<?xml version="1.0" encoding="UTF-8" standalone="no"?>
<!-- Created with Inkscape (http://www.inkscape.org/) -->

<svg
   xmlns:ns0="http://www.iki.fi/pav/software/textext/"
   xmlns:dc="http://purl.org/dc/elements/1.1/"
   xmlns:cc="http://creativecommons.org/ns#"
   xmlns:rdf="http://www.w3.org/1999/02/22-rdf-syntax-ns#"
   xmlns:svg="http://www.w3.org/2000/svg"
   xmlns="http://www.w3.org/2000/svg"
   xmlns:sodipodi="http://sodipodi.sourceforge.net/DTD/sodipodi-0.dtd"
   xmlns:inkscape="http://www.inkscape.org/namespaces/inkscape"
   width="172.75"
   height="144.93002"
   id="svg2"
   version="1.1"
   inkscape:version="0.47 r22583"
   sodipodi:docname="choice-case.svg">
  <sodipodi:namedview
     id="base"
     pagecolor="#ffffff"
     bordercolor="#666666"
     borderopacity="1.0"
     inkscape:pageopacity="0.0"
     inkscape:pageshadow="2"
     inkscape:zoom="3.8827838"
     inkscape:cx="72.928543"
     inkscape:cy="40.778119"
     inkscape:document-units="px"
     inkscape:current-layer="layer1"
     showgrid="false"
     inkscape:snap-grids="true"
     inkscape:window-width="1091"
     inkscape:window-height="778"
     inkscape:window-x="174"
     inkscape:window-y="23"
     inkscape:window-maximized="0"
     inkscape:snap-center="false">
    <inkscape:grid
       snapvisiblegridlinesonly="true"
       enabled="true"
       visible="true"
       empspacing="5"
       id="grid2818"
       type="xygrid" />
  </sodipodi:namedview>
  <defs
     id="defs4">
    <marker
       style="overflow:visible"
       id="Arrow1Mend"
       refX="0"
       refY="0"
       orient="auto"
       inkscape:stockid="Arrow1Mend">
      <path
         transform="matrix(-0.4,0,0,-0.4,-4,0)"
         style="fill-rule:evenodd;stroke:#000000;stroke-width:1pt;marker-start:none"
         d="M 0,0 5,-5 -12.5,0 5,5 0,0 z"
         id="path3732" />
    </marker>
    <marker
       style="overflow:visible"
       id="Arrow1Send"
       refX="0"
       refY="0"
       orient="auto"
       inkscape:stockid="Arrow1Send">
      <path
         transform="matrix(-0.2,0,0,-0.2,-1.2,0)"
         style="fill-rule:evenodd;stroke:#000000;stroke-width:1pt;marker-start:none"
         d="M 0,0 5,-5 -12.5,0 5,5 0,0 z"
         id="path3738" />
    </marker>
    <inkscape:perspective
       id="perspective10"
       inkscape:persp3d-origin="372.04724 : 350.78739 : 1"
       inkscape:vp_z="744.09448 : 526.18109 : 1"
       inkscape:vp_y="0 : 1000 : 0"
       inkscape:vp_x="0 : 526.18109 : 1"
       sodipodi:type="inkscape:persp3d" />
    <inkscape:perspective
       sodipodi:type="inkscape:persp3d"
       inkscape:vp_x="0 : 0.5 : 1"
       inkscape:vp_y="0 : 1000 : 0"
       inkscape:vp_z="1 : 0.5 : 1"
       inkscape:persp3d-origin="0.5 : 0.33333333 : 1"
       id="perspective3098" />
    <inkscape:perspective
       sodipodi:type="inkscape:persp3d"
       inkscape:vp_x="0 : 0.5 : 1"
       inkscape:vp_y="0 : 1000 : 0"
       inkscape:vp_z="1 : 0.5 : 1"
       inkscape:persp3d-origin="0.5 : 0.33333333 : 1"
       id="perspective3128" />
  </defs>
  <metadata
     id="metadata7">
    <rdf:RDF>
      <cc:Work
         rdf:about="">
        <dc:format>image/svg+xml</dc:format>
        <dc:type
           rdf:resource="http://purl.org/dc/dcmitype/StillImage" />
        <dc:title />
      </cc:Work>
    </rdf:RDF>
  </metadata>
  <g
     transform="translate(-367.86,-538.7295)"
     id="layer1"
     inkscape:groupmode="layer"
     inkscape:label="Layer 1">
    <rect
       transform="translate(368.36,548.2495)"
       y="-0.58998108"
       x="20"
       height="135.5"
       width="139.5"
       id="rect6192"
       style="fill:#ffffff;fill-opacity:1;stroke:#000000;stroke-width:1;stroke-miterlimit:4;stroke-dasharray:none" />
    <path
       sodipodi:nodetypes="cc"
       id="path2940"
       d="m 368.86,585.7295 82,0"
       style="fill:none;stroke:#000000;stroke-width:1px;stroke-linecap:butt;stroke-linejoin:miter;stroke-opacity:1;marker-end:url(#Arrow1Mend)" />
    <path
       sodipodi:nodetypes="cc"
       id="path2942"
       d="m 368.86,595.7295 82,0"
       style="fill:none;stroke:#000000;stroke-width:1px;stroke-linecap:butt;stroke-linejoin:miter;stroke-opacity:1;marker-end:url(#Arrow1Mend)" />
    <g
       style="font-style:normal;font-variant:normal;font-weight:normal;font-stretch:normal;letter-spacing:normal;word-spacing:normal;text-anchor:start;fill:none;stroke:#000000;stroke-linecap:butt;stroke-linejoin:miter;stroke-miterlimit:10.43299961;stroke-opacity:1;stroke-dasharray:none;stroke-dashoffset:0"
       id="content"
       transform="matrix(1,0,0,-1,150.98988,1240.6404)"
       xml:space="preserve"
       stroke-miterlimit="10.433"
       font-style="normal"
       font-variant="normal"
       font-weight="normal"
       font-stretch="normal"
       font-size-adjust="none"
       letter-spacing="normal"
       word-spacing="normal"
       ns0:text="$\\mathit{a}$\n"
       ns0:preamble="">
<path
   style="fill:#000000;stroke-width:0"
   d="m 226.91,657.82 0.01,-0.04 0.01,-0.05 0.02,-0.04 0.01,-0.04 0.02,-0.04 0.02,-0.04 0.02,-0.03 0.02,-0.03 0.02,-0.04 0.02,-0.03 0.02,-0.03 0.03,-0.03 0.02,-0.02 0.03,-0.03 0.03,-0.02 0.02,-0.02 0.03,-0.02 0.03,-0.02 0.03,-0.02 0.03,-0.02 0.03,-0.01 0.03,-0.01 0.03,-0.02 0.04,-0.01 0.03,-0.01 0.03,0 0.03,-0.01 0.04,-0.01 0.03,0 0.03,0 0.03,-0.01 0.04,0 c 0.36,0 0.57,0.25 0.72,0.56 0.18,0.38 0.3,0.96 0.3,0.98 0,0.1 -0.08,0.1 -0.15,0.1 -0.12,0 -0.13,-0.01 -0.19,-0.23 -0.14,-0.56 -0.32,-1.19 -0.66,-1.19 -0.26,0 -0.26,0.27 -0.26,0.41 0,0.07 0,0.23 0.07,0.51 l 0.67,2.71 c 0.04,0.14 0.04,0.16 0.04,0.21 0,0.21 -0.16,0.26 -0.27,0.26 -0.31,0 -0.38,-0.34 -0.39,-0.39 -0.19,0.43 -0.51,0.59 -0.83,0.59 v -0.22 c 0.44,0 0.69,-0.52 0.69,-0.94 0,-0.02 -0.01,-0.07 -0.03,-0.13 h 0 l -0.47,-1.88 c -0.08,-0.32 -0.7,-1.13 -1.25,-1.13 -0.46,0 -0.54,0.59 -0.54,0.89 0,0.5 0.3,1.66 0.48,2.08 0.25,0.61 0.71,1.11 1.12,1.11 v 0.22 c -1.11,0 -2.28,-1.52 -2.28,-2.97 0,-0.85 0.46,-1.55 1.2,-1.55 0.36,0 0.8,0.21 1.2,0.7 z"
   id="path3817" />
</g>    <g
       ns0:preamble=""
       ns0:text="$\\mathit{b}$\n"
       word-spacing="normal"
       letter-spacing="normal"
       font-size-adjust="none"
       font-stretch="normal"
       font-weight="normal"
       font-variant="normal"
       font-style="normal"
       stroke-miterlimit="10.433"
       xml:space="preserve"
       transform="matrix(1,0,0,-1,151.32988,1251.5995)"
       id="g3863"
       style="font-style:normal;font-variant:normal;font-weight:normal;font-stretch:normal;letter-spacing:normal;word-spacing:normal;text-anchor:start;fill:none;stroke:#000000;stroke-linecap:butt;stroke-linejoin:miter;stroke-miterlimit:10.43299961;stroke-opacity:1;stroke-dasharray:none;stroke-dashoffset:0">
<path
   id="path3865"
   d="m 226.45,663.9 0,0 0,0 0,0.01 0.01,0 0,0 0,0.01 0,0 0,0.01 0,0 0,0.01 0,0.01 0.01,0.01 0,0.01 0,0.01 0,0 0,0 0.01,0.01 0,0 0,0.01 0,0 0,0.01 0,0 0,0 0,0.01 0,0 0,0 0,0 0,0.01 c 0,0.09 -0.06,0.12 -0.14,0.12 -0.03,0 -0.13,-0.01 -0.16,-0.02 l -0.98,-0.08 c -0.12,-0.01 -0.23,-0.02 -0.23,-0.21 0,-0.11 0.1,-0.11 0.24,-0.11 0.47,0 0.49,-0.07 0.49,-0.17 0,-0.03 -0.03,-0.16 -0.03,-0.17 l -0.98,-3.94 c -0.01,-0.03 -0.11,-0.43 -0.11,-0.81 0,-0.84 0.42,-1.52 1.14,-1.52 v 0.22 c -0.24,0 -0.57,0.21 -0.57,0.96 0,0.44 0.09,0.79 0.37,1.92 0.07,0.24 0.07,0.26 0.22,0.46 0.29,0.4 0.67,0.74 1.05,0.74 0.45,0 0.55,-0.57 0.55,-0.89 0,-0.42 -0.27,-1.6 -0.56,-2.24 -0.12,-0.25 -0.55,-0.95 -1.06,-0.95 h 0 v -0.22 c 1.12,0 2.29,1.5 2.29,2.96 0,1.07 -0.6,1.56 -1.2,1.56 -0.38,0 -0.72,-0.21 -1.06,-0.53 z"
   style="fill:#000000;stroke-width:0" />
</g>    <g
       id="g2979"
       transform="matrix(1,0,0,-1,144.90488,1314.7085)"
       xml:space="preserve"
       stroke-miterlimit="10.433"
       font-style="normal"
       font-variant="normal"
       font-weight="normal"
       font-stretch="normal"
       font-size-adjust="none"
       letter-spacing="normal"
       word-spacing="normal"
       ns0:text="$\\mathit{pred}$\n\n"
       ns0:preamble=""
       style="font-style:normal;font-variant:normal;font-weight:normal;font-stretch:normal;letter-spacing:normal;word-spacing:normal;text-anchor:start;fill:none;stroke:#000000;stroke-linecap:butt;stroke-linejoin:miter;stroke-miterlimit:10.43299961;stroke-opacity:1;stroke-dasharray:none;stroke-dashoffset:0">
<path
   d="m 224.33,655.96 -0.01,-0.03 -0.01,-0.03 0,-0.02 -0.01,-0.03 -0.01,-0.02 -0.01,-0.02 -0.01,-0.02 -0.01,-0.02 -0.01,-0.01 -0.01,-0.02 -0.01,-0.01 -0.01,-0.02 -0.01,-0.01 -0.01,-0.01 -0.01,-0.01 -0.02,-0.01 -0.01,-0.01 -0.02,-0.01 -0.02,0 -0.02,-0.01 -0.02,0 -0.02,-0.01 -0.02,0 -0.02,-0.01 -0.02,0 -0.03,0 -0.03,0 -0.03,-0.01 -0.03,0 -0.03,0 -0.03,0 -0.04,0 c -0.09,0 -0.21,0 -0.21,-0.19 0,-0.07 0.05,-0.12 0.12,-0.12 0.27,0 0.56,0.03 0.84,0.03 0.32,0 0.66,-0.03 0.96,-0.03 0.06,0 0.19,0 0.19,0.19 0,0.12 -0.1,0.12 -0.23,0.12 -0.51,0 -0.51,0.06 -0.51,0.16 0,0.06 0.07,0.32 0.11,0.48 l 0.35,1.45 c 0.08,-0.17 0.32,-0.58 0.84,-0.58 l -0.01,0.22 c -0.58,0 -0.68,0.85 -0.68,0.93 0,0.03 0.01,0.06 0.03,0.14 l 0.47,1.88 c 0.08,0.34 0.7,1.13 1.25,1.13 0.45,0 0.55,-0.57 0.55,-0.89 0,-0.42 -0.27,-1.6 -0.56,-2.24 -0.12,-0.25 -0.55,-0.95 -1.06,-0.95 l 0.01,-0.22 c 1.09,0 2.27,1.48 2.27,2.96 0,1.07 -0.59,1.56 -1.19,1.56 -0.49,0 -0.92,-0.36 -1.21,-0.7 -0.12,0.58 -0.57,0.7 -0.81,0.7 -0.36,0 -0.56,-0.23 -0.72,-0.53 -0.19,-0.4 -0.32,-0.99 -0.32,-1.01 0,-0.1 0.1,-0.1 0.15,-0.1 0.13,0 0.14,0.01 0.19,0.23 0.18,0.7 0.37,1.19 0.68,1.19 0.26,0 0.26,-0.29 0.26,-0.4 0,-0.06 0,-0.22 -0.08,-0.5 z"
   id="path2981"
   style="fill:#000000;stroke-width:0" />
<path
   d="m 231.1,660.1 0,0 0,0.01 0,0 0,0.01 0.01,0.01 0,0.01 0,0.01 0.01,0.02 0.01,0.01 0,0.02 0.01,0.02 0.01,0.01 0.01,0.05 0.02,0.04 0.03,0.05 0.02,0.05 0.03,0.05 0.03,0.06 0.03,0.06 0.04,0.06 0.04,0.06 0.04,0.06 0.04,0.06 0.04,0.06 0.05,0.06 0.05,0.06 0.05,0.05 0.06,0.06 0.06,0.05 0.05,0.05 0.07,0.04 0.06,0.04 0.03,0.02 0.04,0.01 0.03,0.02 0.04,0.01 0.03,0.01 0.04,0.02 0.04,0 0.03,0.01 0.04,0.01 0.04,0 0.04,0.01 0.04,0 c 0.05,0 0.33,0 0.53,-0.14 -0.35,-0.11 -0.38,-0.43 -0.38,-0.48 0,-0.13 0.09,-0.32 0.35,-0.32 0.18,0 0.49,0.14 0.49,0.53 0,0.52 -0.65,0.63 -0.98,0.63 -0.69,0 -1.05,-0.5 -1.21,-0.72 -0.11,0.53 -0.49,0.72 -0.82,0.72 -0.36,0 -0.56,-0.23 -0.72,-0.53 -0.19,-0.4 -0.32,-0.99 -0.32,-1.01 0,-0.1 0.1,-0.1 0.15,-0.1 0.13,0 0.14,0.01 0.19,0.23 0.18,0.7 0.37,1.19 0.68,1.19 0.26,0 0.26,-0.29 0.26,-0.4 0,-0.16 -0.03,-0.35 -0.07,-0.51 l -0.75,-2.99 c -0.02,-0.06 -0.03,-0.11 -0.03,-0.14 0,-0.11 0.08,-0.26 0.28,-0.26 0.3,0 0.37,0.29 0.39,0.37 z"
   id="path2983"
   style="fill:#000000;stroke-width:0" />
<path
   d="m 234.6,659.53 0.03,0 0.03,0 0.03,0 0.03,0.01 0.04,0 0.04,0 0.04,0 0.04,0 0.04,0 0.05,0.01 0.04,0 0.05,0 0.09,0.01 0.1,0.01 0.1,0.02 0.1,0.01 0.1,0.02 0.11,0.02 0.1,0.02 0.09,0.03 0.05,0.01 0.05,0.02 0.05,0.02 0.04,0.01 c 0.79,0.32 0.79,0.97 0.79,1.04 0,0.46 -0.37,0.85 -1.01,0.85 v -0.22 c 0.4,0 0.63,-0.27 0.63,-0.61 0,-1.06 -1.65,-1.06 -1.97,-1.06 h -0.21 c 0.43,1.64 1.45,1.67 1.55,1.67 v 0.22 c -1.05,0 -2.47,-1.01 -2.47,-2.77 0,-0.9 0.48,-1.75 1.42,-1.75 1.28,0 2.11,1 2.11,1.15 0,0.05 -0.08,0.16 -0.16,0.16 -0.04,0 -0.05,-0.01 -0.13,-0.11 -0.74,-0.94 -1.63,-0.98 -1.8,-0.98 -0.64,0 -0.75,0.71 -0.75,1.1 0,0.38 0.1,0.83 0.17,1.09 z"
   id="path2985"
   style="fill:#000000;stroke-width:0" />
<path
   d="m 241.84,663.9 0,0 0.01,0 0,0.01 0,0 0,0 0,0.01 0,0 0,0.01 0,0 0.01,0.01 0,0.01 0,0.01 0,0.01 0.01,0.01 0,0 0,0 0,0.01 0,0 0,0.01 0,0 0,0.01 0,0 0,0 0,0.01 0,0 0,0 0,0 0,0.01 c 0,0.09 -0.06,0.12 -0.13,0.12 -0.03,0 -0.14,-0.01 -0.17,-0.02 l -0.98,-0.08 c -0.12,-0.01 -0.23,-0.02 -0.23,-0.21 0,-0.11 0.1,-0.11 0.24,-0.11 0.48,0 0.5,-0.07 0.5,-0.17 0,-0.03 -0.03,-0.16 -0.03,-0.17 l -0.58,-2.33 c -0.15,0.31 -0.42,0.58 -0.84,0.58 v -0.22 c 0.08,0 0.31,-0.01 0.49,-0.29 0.1,-0.16 0.2,-0.45 0.2,-0.64 0,-0.03 -0.01,-0.07 -0.03,-0.13 l -0.48,-1.91 c -0.08,-0.31 -0.69,-1.11 -1.23,-1.11 -0.47,0 -0.55,0.59 -0.55,0.89 0,0.5 0.31,1.66 0.49,2.08 0.25,0.61 0.7,1.11 1.11,1.11 v 0.22 c -1.1,0 -2.28,-1.52 -2.28,-2.97 0,-0.85 0.46,-1.55 1.21,-1.55 0.35,0 0.79,0.21 1.19,0.7 0.11,-0.49 0.48,-0.7 0.83,-0.7 0.37,0 0.58,0.25 0.73,0.56 0.18,0.38 0.29,0.96 0.29,0.98 0,0.1 -0.08,0.1 -0.14,0.1 -0.12,0 -0.13,-0.01 -0.19,-0.23 -0.14,-0.56 -0.33,-1.19 -0.67,-1.19 -0.26,0 -0.26,0.27 -0.26,0.41 0,0.07 0,0.22 0.06,0.46 z"
   id="path2987"
   style="fill:#000000;stroke-width:0" />
</g>    <g
       id="g5140"
       transform="translate(-75.428753,-10)">
      <g
         id="g4445"
         transform="translate(118.2,-6.1899623)">
        <path
           transform="translate(379,551.3654)"
           d="m 50,26.984081 c 0,5.522848 -4.477153,10 -10,10 -5.522847,0 -10,-4.477152 -10,-10 0,-5.522847 4.477153,-10 10,-10 5.522847,0 10,4.477153 10,10 z"
           sodipodi:ry="10"
           sodipodi:rx="10"
           sodipodi:cy="26.984081"
           sodipodi:cx="40"
           id="path3641"
           style="fill:#ffffff;stroke:#000000"
           sodipodi:type="arc" />
        <g
           style="font-style:normal;font-variant:normal;font-weight:normal;font-stretch:normal;letter-spacing:normal;word-spacing:normal;text-anchor:start;fill:none;stroke:#000000;stroke-linecap:butt;stroke-linejoin:miter;stroke-miterlimit:10.43299961;stroke-opacity:1;stroke-dasharray:none;stroke-dashoffset:0"
           ns0:preamble=""
           ns0:text="$\\mathbf{+}$\n\n"
           word-spacing="normal"
           letter-spacing="normal"
           font-size-adjust="none"
           font-stretch="normal"
           font-weight="normal"
           font-variant="normal"
           font-style="normal"
           stroke-miterlimit="10.433"
           xml:space="preserve"
           transform="matrix(1,0,0,-1,191.89,1238.2695)"
           id="g3067">
<path
   id="path3069"
   d="m 227.51,659.52 h 2.78 c 0.14,0 0.33,0 0.33,0.2 0,0.2 -0.19,0.2 -0.33,0.2 h -2.78 v 2.79 c 0,0.14 0,0.33 -0.2,0.33 -0.2,0 -0.2,-0.19 -0.2,-0.33 v -2.79 h -2.79 c -0.14,0 -0.33,0 -0.33,-0.2 0,-0.2 0.19,-0.2 0.33,-0.2 h 2.79 v -2.79 c 0,-0.14 0,-0.32 0.2,-0.32 0.2,0 0.2,0.18 0.2,0.32 z"
   style="fill:#000000;stroke-width:0" />
</g>      </g>
    </g>
    <g
       id="g4438"
       transform="translate(-67.228753,71.145019)">
      <path
         sodipodi:type="arc"
         style="fill:#ffffff;stroke:#000000"
         id="path4429"
         sodipodi:cx="40"
         sodipodi:cy="26.984081"
         sodipodi:rx="10"
         sodipodi:ry="10"
         d="m 50,26.984081 c 0,5.522848 -4.477153,10 -10,10 -5.522847,0 -10,-4.477152 -10,-10 0,-5.522847 4.477153,-10 10,-10 5.522847,0 10,4.477153 10,10 z"
         transform="translate(489,516.3654)" />
      <g
         style="font-style:normal;font-variant:normal;font-weight:normal;font-stretch:normal;letter-spacing:normal;word-spacing:normal;text-anchor:start;fill:none;stroke:#000000;stroke-linecap:butt;stroke-linejoin:miter;stroke-miterlimit:10.43299961;stroke-opacity:1;stroke-dasharray:none;stroke-dashoffset:0"
         ns0:preamble=""
         ns0:text="$\\neq$\n\n\n\n\n"
         word-spacing="normal"
         letter-spacing="normal"
         font-size-adjust="none"
         font-stretch="normal"
         font-weight="normal"
         font-variant="normal"
         font-style="normal"
         stroke-miterlimit="10.433"
         xml:space="preserve"
         transform="matrix(1,0,0,-1,301.695,1203.0745)"
         id="g3583">
<path
   id="path3585"
   d="m 229.71,663.98 0,0 0.01,0.01 0,0.01 0,0 0.01,0.01 0,0 0,0.01 0.01,0 0,0.01 0,0 0,0.01 0.01,0 0,0.01 0,0 0,0.01 0.01,0 0,0.01 0,0 0,0.01 0.01,0 0,0.01 0,0.01 0,0 0.01,0.01 0,0 0,0.01 0,0 0,0.01 0,0 0.01,0 0,0.01 0,0 0,0 0,0.01 0,0 0,0.01 0,0 0,0.01 c 0,0.07 -0.06,0.2 -0.2,0.2 -0.12,0 -0.15,-0.06 -0.22,-0.2 l -4.47,-8.7 c -0.08,-0.14 -0.08,-0.16 -0.08,-0.19 0,-0.08 0.07,-0.2 0.2,-0.2 0.12,0 0.15,0.06 0.22,0.2 z"
   style="fill:#000000;stroke-width:0" />
<path
   id="path3587"
   d="m 230.28,660.49 0.03,0 0.02,0 0.03,0 0.02,0 0.01,0 0.02,0 0.01,0.01 0.02,0 0.01,0 0.01,0 0.02,0.01 0.01,0 0.01,0 0.01,0.01 0.02,0.01 0.01,0 0.01,0.01 0.01,0.01 0.01,0 0.01,0.01 0,0.01 0.01,0.01 0,0.01 0,0 0.01,0.01 0,0 0,0.01 0.01,0.01 0,0 0,0.01 0,0.01 0,0.01 0,0 0,0.01 0.01,0.01 0,0.01 0,0.01 c 0,0.2 -0.19,0.2 -0.33,0.2 h -5.97 c -0.14,0 -0.33,0 -0.33,-0.2 0,-0.2 0.19,-0.2 0.34,-0.2 z"
   style="fill:#000000;stroke-width:0" />
<path
   id="path3589"
   d="m 230.29,658.56 0.01,0 0.01,0 0.03,0 0.03,0 0.01,0 0.02,0 0.01,0 0.01,0 0.02,0.01 0.01,0 0.02,0 0.01,0 0.01,0.01 0.01,0 0.02,0.01 0.01,0 0.01,0.01 0.01,0.01 0.01,0 0.01,0.01 0.01,0.01 0,0.01 0,0 0.01,0.01 0,0 0,0.01 0.01,0 0,0.01 0,0.01 0.01,0 0,0.01 0,0.01 0,0.01 0,0 0,0.01 0,0.01 0.01,0.01 0,0.01 0,0.01 c 0,0.2 -0.19,0.2 -0.34,0.2 h -5.95 c -0.15,0 -0.34,0 -0.34,-0.2 0,-0.2 0.19,-0.2 0.33,-0.2 z"
   style="fill:#000000;stroke-width:0" />
</g>    </g>
    <g
       id="g4579"
       transform="translate(-12.228753,57.380016)">
      <path
         sodipodi:type="arc"
         style="fill:#ffffff;stroke:#000000"
         id="path4581"
         sodipodi:cx="40"
         sodipodi:cy="26.984081"
         sodipodi:rx="10"
         sodipodi:ry="10"
         d="m 50,26.984081 c 0,5.522848 -4.477153,10 -10,10 -5.522847,0 -10,-4.477152 -10,-10 0,-5.522847 4.477153,-10 10,-10 5.522847,0 10,4.477153 10,10 z"
         transform="translate(434,506.3654)" />
      <g
         style="font-style:normal;font-variant:normal;font-weight:normal;font-stretch:normal;letter-spacing:normal;word-spacing:normal;text-anchor:start;fill:none;stroke:#000000;stroke-linecap:butt;stroke-linejoin:miter;stroke-miterlimit:10.43299961;stroke-opacity:1;stroke-dasharray:none;stroke-dashoffset:0"
         ns0:preamble=""
         ns0:text="$\\equiv$\n\n\n\n\n"
         word-spacing="normal"
         letter-spacing="normal"
         font-size-adjust="none"
         font-stretch="normal"
         font-weight="normal"
         font-variant="normal"
         font-style="normal"
         stroke-miterlimit="10.433"
         xml:space="preserve"
         transform="matrix(1,0,0,-1,246.72,1192.8695)"
         id="g4583">
<path
   style="fill:#000000;stroke-width:0"
   id="path4585"
   d="m 230.27,661.46 0.03,0 0.03,0 0.03,0 0.02,0 0.01,0 0.02,0 0.02,0 0.01,0.01 0.01,0 0.02,0 0.01,0 0.02,0.01 0.01,0 0.01,0.01 0.01,0 0.02,0.01 0.01,0.01 0.01,0 0.01,0.01 0.01,0.01 0,0.01 0.01,0.01 0,0 0,0.01 0.01,0 0,0.01 0,0.01 0.01,0 0,0.01 0,0.01 0,0.01 0,0 0,0.01 0,0.01 0.01,0.01 0,0.01 0,0.01 c 0,0.19 -0.18,0.19 -0.35,0.19 h -5.95 c -0.17,0 -0.35,0 -0.35,-0.19 0,-0.2 0.2,-0.2 0.36,-0.2 z" />
<path
   style="fill:#000000;stroke-width:0"
   id="path4587"
   d="m 230.28,657.59 0.03,0 0.03,0 0.03,0 0.02,0 0.01,0 0.02,0.01 0.01,0 0.02,0 0.01,0 0.02,0 0.01,0.01 0.01,0 0.01,0.01 0.02,0 0.01,0.01 0.01,0 0.01,0.01 0.01,0.01 0.01,0.01 0.01,0 0.01,0.01 0,0.01 0,0.01 0.01,0 0,0.01 0,0 0,0.01 0.01,0.01 0,0 0,0.01 0,0.01 0,0.01 0,0 0,0.01 0.01,0.01 0,0.01 0,0.01 c 0,0.2 -0.19,0.2 -0.36,0.2 h -5.93 c -0.16,0 -0.36,0 -0.36,-0.2 0,-0.2 0.18,-0.2 0.35,-0.2 z" />
<path
   style="fill:#000000;stroke-width:0"
   id="path4589"
   d="m 230.28,659.52 0.03,0 0.03,0 0.03,0.01 0.02,0 0.01,0 0.02,0 0.01,0 0.02,0 0.01,0 0.02,0.01 0.01,0 0.01,0 0.01,0.01 0.02,0 0.01,0.01 0.01,0.01 0.01,0 0.01,0.01 0.01,0.01 0.01,0.01 0.01,0.01 0,0 0,0.01 0.01,0 0,0.01 0,0.01 0,0 0.01,0.01 0,0.01 0,0 0,0.01 0,0.01 0,0.01 0,0.01 0.01,0 0,0.01 0,0.01 c 0,0.2 -0.18,0.2 -0.35,0.2 h -5.95 c -0.17,0 -0.35,0 -0.35,-0.2 0,-0.2 0.18,-0.2 0.35,-0.2 z" />
</g>    </g>
    <g
       style="font-style:normal;font-variant:normal;font-weight:normal;font-stretch:normal;letter-spacing:normal;word-spacing:normal;text-anchor:start;fill:none;stroke:#000000;stroke-linecap:butt;stroke-linejoin:miter;stroke-miterlimit:10.43299961;stroke-opacity:1;stroke-dasharray:none;stroke-dashoffset:0"
       ns0:preamble=""
       ns0:text="$\\mathbf{sumif}$\n\n"
       word-spacing="normal"
       letter-spacing="normal"
       font-size-adjust="none"
       font-stretch="normal"
       font-weight="normal"
       font-variant="normal"
       font-style="normal"
       stroke-miterlimit="10.433"
       xml:space="preserve"
       transform="matrix(1,0,0,-1,220.755,1202.9395)"
       id="g5038">
<path
   id="path5040"
   d="m 225.54,660.16 -0.04,0.01 -0.04,0 -0.04,0.01 -0.03,0.01 -0.04,0.01 -0.05,0.01 -0.08,0.02 -0.08,0.02 -0.05,0.01 -0.04,0.01 -0.04,0.02 -0.04,0.01 -0.04,0.02 -0.04,0.02 -0.04,0.01 -0.04,0.02 -0.03,0.02 -0.04,0.03 -0.03,0.02 -0.03,0.03 -0.03,0.02 -0.02,0.03 -0.03,0.03 -0.02,0.03 -0.02,0.03 -0.01,0.02 0,0.02 -0.01,0.02 -0.01,0.02 0,0.02 0,0.02 -0.01,0.02 0,0.02 0,0.02 0,0.02 c 0,0.62 0.93,0.62 1.11,0.62 0.75,0 1.13,-0.29 1.18,-0.84 0.01,-0.15 0.02,-0.2 0.23,-0.2 0.24,0 0.24,0.05 0.24,0.28 v 0.8 c 0,0.19 0,0.28 -0.18,0.28 -0.04,0 -0.06,0 -0.45,-0.19 -0.26,0.13 -0.61,0.19 -1.01,0.19 -0.29,0 -1.83,0 -1.83,-1.31 0,-0.4 0.2,-0.67 0.4,-0.84 0.4,-0.34 0.78,-0.4 1.54,-0.54 0.36,-0.06 1.11,-0.19 1.11,-0.78 0,-0.75 -0.92,-0.75 -1.14,-0.75 -1.05,0 -1.31,0.73 -1.43,1.16 -0.05,0.14 -0.1,0.14 -0.24,0.14 -0.24,0 -0.24,-0.06 -0.24,-0.29 v -1.09 c 0,-0.19 0,-0.28 0.18,-0.28 0.07,0 0.09,0 0.3,0.15 0.01,0 0.23,0.15 0.26,0.17 0.46,-0.32 0.97,-0.32 1.17,-0.32 0.31,0 1.85,0 1.85,1.46 0,0.43 -0.2,0.77 -0.55,1.05 -0.39,0.29 -0.71,0.35 -1.48,0.48 z"
   style="fill:#000000;stroke-width:0" />
<path
   id="path5042"
   d="m 232.31,657.95 v -0.78 l 1.76,0.06 v 0.47 c -0.61,0 -0.68,0 -0.68,0.39 v 3.63 l -1.83,-0.08 v -0.47 c 0.62,0 0.69,0 0.69,-0.39 v -1.9 c 0,-0.82 -0.51,-1.35 -1.23,-1.35 -0.77,0 -0.8,0.25 -0.8,0.79 v 3.4 l -1.82,-0.08 v -0.47 c 0.61,0 0.68,0 0.68,-0.39 v -2.32 c 0,-1.07 0.81,-1.29 1.8,-1.29 0.26,0 0.97,0 1.43,0.78 z"
   style="fill:#000000;stroke-width:0" />
<path
   id="path5044"
   d="m 235.45,660.78 v -3.08 h -0.69 v -0.47 c 0.28,0.01 0.88,0.03 1.26,0.03 0.39,0 0.97,-0.02 1.25,-0.03 v 0.47 h -0.68 v 2.08 c 0,1.09 0.86,1.58 1.48,1.58 0.34,0 0.56,-0.2 0.56,-0.97 v -2.69 h -0.69 v -0.47 c 0.28,0.01 0.88,0.03 1.26,0.03 0.39,0 0.97,-0.02 1.25,-0.03 v 0.47 h -0.69 v 2.08 c 0,1.09 0.87,1.58 1.49,1.58 0.34,0 0.56,-0.2 0.56,-0.97 v -2.69 h -0.69 v -0.47 c 0.28,0.01 0.88,0.03 1.26,0.03 0.38,0 0.97,-0.02 1.25,-0.03 v 0.47 h -0.69 v 2.58 c 0,1.03 -0.51,1.44 -1.53,1.44 -0.91,0 -1.43,-0.5 -1.68,-0.96 -0.21,0.93 -1.12,0.96 -1.5,0.96 -0.87,0 -1.43,-0.45 -1.75,-1.08 v 1.08 l -1.72,-0.08 v -0.47 c 0.62,0 0.69,0 0.69,-0.39 z"
   style="fill:#000000;stroke-width:0" />
<path
   id="path5046"
   d="m 246.09,661.72 -1.73,-0.08 v -0.47 c 0.59,0 0.66,0 0.66,-0.39 v -3.08 h -0.69 v -0.47 c 0.31,0.01 0.8,0.03 1.22,0.03 0.3,0 0.8,-0.02 1.16,-0.03 v 0.47 h -0.62 z"
   style="fill:#000000;stroke-width:0" />
<path
   id="path5048"
   d="m 246.19,663.38 0,0.04 0,0.04 -0.01,0.04 0,0.04 -0.01,0.04 -0.01,0.03 -0.01,0.04 -0.02,0.04 -0.01,0.03 -0.02,0.03 -0.02,0.04 -0.02,0.03 -0.02,0.03 -0.03,0.03 -0.02,0.03 -0.03,0.02 -0.02,0.03 -0.03,0.02 -0.03,0.02 -0.03,0.03 -0.04,0.02 -0.03,0.01 -0.03,0.02 -0.04,0.02 -0.03,0.01 -0.04,0.01 -0.03,0.01 -0.04,0.01 -0.04,0.01 -0.04,0 -0.03,0.01 -0.04,0 c -0.43,0 -0.78,-0.35 -0.78,-0.78 0,-0.43 0.35,-0.78 0.78,-0.78 0.42,0 0.77,0.34 0.77,0.78 z"
   style="fill:#000000;stroke-width:0" />
<path
   id="path5050"
   d="m 248.21,661.66 h -0.75 v -0.47 h 0.75 v -3.49 h -0.69 v -0.47 c 0.35,0.01 0.8,0.03 1.26,0.03 0.37,0 1.01,0 1.37,-0.03 v 0.47 h -0.87 v 3.49 h 1.15 v 0.47 h -1.21 v 1 c 0,1.1 0.76,1.19 1.01,1.19 0.05,0 0.1,0 0.17,-0.02 -0.15,-0.11 -0.23,-0.3 -0.23,-0.49 0,-0.43 0.35,-0.62 0.61,-0.62 0.3,0 0.62,0.21 0.62,0.62 0,0.42 -0.36,0.87 -1.14,0.87 -0.98,0 -2.05,-0.42 -2.05,-1.55 z"
   style="fill:#000000;stroke-width:0" />
</g>    <path
       style="fill:none;stroke:#000000;stroke-width:1px;stroke-linecap:butt;stroke-linejoin:miter;stroke-opacity:1"
       d="m 488.02,578.19451 10,-5 0,-10 -10,-5 0,20 z"
       id="path5134" />
    <path
       style="fill:none;stroke:#000000;stroke-width:1;stroke-linecap:butt;stroke-linejoin:miter;stroke-miterlimit:4;stroke-opacity:1;stroke-dasharray:none;marker-end:url(#Arrow1Mend)"
       d="m 427.2,595.15952 0.16,-27.5 24,0"
       id="path5136"
       sodipodi:nodetypes="ccc" />
    <path
       sodipodi:nodetypes="ccc"
       id="path5138"
       d="m 421.2,585.15952 0.16,-28.2 29.8,0"
       style="fill:none;stroke:#000000;stroke-width:1;stroke-linecap:butt;stroke-linejoin:miter;stroke-miterlimit:4;stroke-opacity:1;stroke-dasharray:none;marker-end:url(#Arrow1Mend)" />
    <path
       style="fill:none;stroke:#000000;stroke-width:1px;stroke-linecap:butt;stroke-linejoin:miter;stroke-opacity:1;marker-end:url(#Arrow1Mend)"
       d="m 474.36,573.65952 12,0"
       id="path5148"
       sodipodi:nodetypes="cc" />
    <g
       id="g5245"
       transform="matrix(1,0,0,-1,245.53,1233.8495)"
       xml:space="preserve"
       stroke-miterlimit="10.433"
       font-style="normal"
       font-variant="normal"
       font-weight="normal"
       font-stretch="normal"
       font-size-adjust="none"
       letter-spacing="normal"
       word-spacing="normal"
       ns0:text="$0$\n\n\n\n\n"
       ns0:preamble=""
       style="font-style:normal;font-variant:normal;font-weight:normal;font-stretch:normal;letter-spacing:normal;word-spacing:normal;text-anchor:start;fill:none;stroke:#000000;stroke-linecap:butt;stroke-linejoin:miter;stroke-miterlimit:10.43299961;stroke-opacity:1;stroke-dasharray:none;stroke-dashoffset:0">
<path
   style="fill:#000000;stroke-width:0"
   d="m 228.01,660.42 0,0.15 0,0.15 0,0.15 -0.01,0.15 -0.01,0.15 -0.01,0.14 -0.01,0.15 -0.02,0.15 -0.03,0.15 -0.02,0.14 -0.04,0.15 -0.03,0.14 -0.05,0.14 -0.05,0.14 -0.05,0.14 -0.03,0.07 -0.03,0.07 c -0.46,0.96 -1.28,1.12 -1.7,1.12 -0.6,0 -1.32,-0.26 -1.73,-1.19 -0.32,-0.69 -0.37,-1.46 -0.37,-2.26 0,-0.75 0.04,-1.64 0.45,-2.4 0.43,-0.81 1.16,-1.01 1.64,-1.01 v 0.22 c -0.39,0 -0.97,0.25 -1.15,1.21 -0.11,0.6 -0.11,1.51 -0.11,2.1 0,0.64 0,1.3 0.08,1.83 0.19,1.19 0.93,1.28 1.18,1.28 0.33,0 0.99,-0.18 1.18,-1.17 0.1,-0.56 0.1,-1.31 0.1,-1.94 0,-0.75 0,-1.43 -0.11,-2.06 -0.15,-0.95 -0.72,-1.25 -1.17,-1.25 h 0 v -0.22 c 0.54,0 1.3,0.21 1.74,1.16 0.31,0.69 0.36,1.46 0.36,2.25 z"
   id="path5247" />
</g>    <path
       sodipodi:nodetypes="cc"
       id="path5338"
       d="m 471.36,562.65952 15,0"
       style="fill:none;stroke:#000000;stroke-width:1px;stroke-linecap:butt;stroke-linejoin:miter;stroke-opacity:1;marker-end:url(#Arrow1Mend)" />
    <path
       transform="matrix(1.44,0,0,1.44,370.16475,537.40097)"
       d="m 36.150834,33.558914 c 0,0.43934 -0.356155,0.795495 -0.795495,0.795495 -0.43934,0 -0.795495,-0.356155 -0.795495,-0.795495 0,-0.43934 0.356155,-0.795495 0.795495,-0.795495 0.43934,0 0.795495,0.356155 0.795495,0.795495 z"
       sodipodi:ry="0.79549515"
       sodipodi:rx="0.79549515"
       sodipodi:cy="33.558914"
       sodipodi:cx="35.355339"
       id="path5351"
       style="fill:#000000;fill-opacity:1;stroke:#000000;stroke-width:1;stroke-miterlimit:4;stroke-dasharray:none"
       sodipodi:type="arc" />
    <path
       sodipodi:type="arc"
       style="fill:#000000;fill-opacity:1;stroke:#000000;stroke-width:1;stroke-miterlimit:4;stroke-dasharray:none"
       id="path5353"
       sodipodi:cx="35.355339"
       sodipodi:cy="33.558914"
       sodipodi:rx="0.79549515"
       sodipodi:ry="0.79549515"
       d="m 36.150834,33.558914 c 0,0.43934 -0.356155,0.795495 -0.795495,0.795495 -0.43934,0 -0.795495,-0.356155 -0.795495,-0.795495 0,-0.43934 0.356155,-0.795495 0.795495,-0.795495 0.43934,0 0.795495,0.356155 0.795495,0.795495 z"
       transform="matrix(1.44,0,0,1.44,376.30016,547.21208)" />
    <path
       sodipodi:nodetypes="ccc"
       id="path5378"
       d="m 471.36,590.65952 23,0 0,-13"
       style="fill:none;stroke:#000000;stroke-width:1;stroke-linecap:butt;stroke-linejoin:miter;stroke-miterlimit:4;stroke-opacity:1;stroke-dasharray:none;marker-end:url(#Arrow1Mend)" />
    <g
       transform="matrix(1,0,0,-1,-75.428753,1214.8191)"
       id="g5380">
      <g
         transform="translate(118.2,-6.1899623)"
         id="g5382">
        <path
           sodipodi:type="arc"
           style="fill:#ffffff;stroke:#000000"
           id="path5384"
           sodipodi:cx="40"
           sodipodi:cy="26.984081"
           sodipodi:rx="10"
           sodipodi:ry="10"
           d="m 50,26.984081 c 0,5.522848 -4.477153,10 -10,10 -5.522847,0 -10,-4.477152 -10,-10 0,-5.522847 4.477153,-10 10,-10 5.522847,0 10,4.477153 10,10 z"
           transform="translate(379,551.3654)" />
        <g
           id="g5386"
           transform="matrix(1,0,0,-1,191.89,1238.2695)"
           xml:space="preserve"
           stroke-miterlimit="10.433"
           font-style="normal"
           font-variant="normal"
           font-weight="normal"
           font-stretch="normal"
           font-size-adjust="none"
           letter-spacing="normal"
           word-spacing="normal"
           ns0:text="$\\mathbf{+}$\n\n"
           ns0:preamble=""
           style="font-style:normal;font-variant:normal;font-weight:normal;font-stretch:normal;letter-spacing:normal;word-spacing:normal;text-anchor:start;fill:none;stroke:#000000;stroke-linecap:butt;stroke-linejoin:miter;stroke-miterlimit:10.43299961;stroke-opacity:1;stroke-dasharray:none;stroke-dashoffset:0">
<path
   style="fill:#000000;stroke-width:0"
   d="m 227.51,659.52 h 2.78 c 0.14,0 0.33,0 0.33,0.2 0,0.2 -0.19,0.2 -0.33,0.2 h -2.78 v 2.79 c 0,0.14 0,0.33 -0.2,0.33 -0.2,0 -0.2,-0.19 -0.2,-0.33 v -2.79 h -2.79 c -0.14,0 -0.33,0 -0.33,-0.2 0,-0.2 0.19,-0.2 0.33,-0.2 h 2.79 v -2.79 c 0,-0.14 0,-0.32 0.2,-0.32 0.2,0 0.2,0.18 0.2,0.32 z"
   id="path5388" />
</g>      </g>
    </g>
    <path
       id="path5402"
       d="m 488.02,626.62457 10,5 0,10 -10,5 0,-20 z"
       style="fill:none;stroke:#000000;stroke-width:1px;stroke-linecap:butt;stroke-linejoin:miter;stroke-opacity:1" />
    <path
       sodipodi:nodetypes="ccc"
       id="path5404"
       d="m 403.02,595.65956 0,42 49,0"
       style="fill:none;stroke:#000000;stroke-width:1;stroke-linecap:butt;stroke-linejoin:miter;stroke-miterlimit:4;stroke-opacity:1;stroke-dasharray:none;marker-end:url(#Arrow1Mend)" />
    <path
       style="fill:none;stroke:#000000;stroke-width:1;stroke-linecap:butt;stroke-linejoin:miter;stroke-miterlimit:4;stroke-opacity:1;stroke-dasharray:none;marker-end:url(#Arrow1Mend)"
       d="m 395.02,585.65956 0,62 57,0"
       id="path5406"
       sodipodi:nodetypes="ccc" />
    <path
       sodipodi:nodetypes="cc"
       id="path5408"
       d="m 476.18,631.15956 10,0"
       style="fill:none;stroke:#000000;stroke-width:1px;stroke-linecap:butt;stroke-linejoin:miter;stroke-opacity:1;marker-end:url(#Arrow1Mend)" />
    <g
       style="font-style:normal;font-variant:normal;font-weight:normal;font-stretch:normal;letter-spacing:normal;word-spacing:normal;text-anchor:start;fill:none;stroke:#000000;stroke-linecap:butt;stroke-linejoin:miter;stroke-miterlimit:10.43299961;stroke-opacity:1;stroke-dasharray:none;stroke-dashoffset:0"
       ns0:preamble=""
       ns0:text="$0$\n\n\n\n\n"
       word-spacing="normal"
       letter-spacing="normal"
       font-size-adjust="none"
       font-stretch="normal"
       font-weight="normal"
       font-variant="normal"
       font-style="normal"
       stroke-miterlimit="10.433"
       xml:space="preserve"
       transform="translate(247.35,-29.030423)"
       id="g5410">
<path
   id="path5412"
   d="m 228.01,660.42 0,0.15 0,0.15 0,0.15 -0.01,0.15 -0.01,0.15 -0.01,0.14 -0.01,0.15 -0.02,0.15 -0.03,0.15 -0.02,0.14 -0.04,0.15 -0.03,0.14 -0.05,0.14 -0.05,0.14 -0.05,0.14 -0.03,0.07 -0.03,0.07 c -0.46,0.96 -1.28,1.12 -1.7,1.12 -0.6,0 -1.32,-0.26 -1.73,-1.19 -0.32,-0.69 -0.37,-1.46 -0.37,-2.26 0,-0.75 0.04,-1.64 0.45,-2.4 0.43,-0.81 1.16,-1.01 1.64,-1.01 v 0.22 c -0.39,0 -0.97,0.25 -1.15,1.21 -0.11,0.6 -0.11,1.51 -0.11,2.1 0,0.64 0,1.3 0.08,1.83 0.19,1.19 0.93,1.28 1.18,1.28 0.33,0 0.99,-0.18 1.18,-1.17 0.1,-0.56 0.1,-1.31 0.1,-1.94 0,-0.75 0,-1.43 -0.11,-2.06 -0.15,-0.95 -0.72,-1.25 -1.17,-1.25 h 0 v -0.22 c 0.54,0 1.3,0.21 1.74,1.16 0.31,0.69 0.36,1.46 0.36,2.25 z"
   style="fill:#000000;stroke-width:0" />
</g>    <path
       style="fill:none;stroke:#000000;stroke-width:1px;stroke-linecap:butt;stroke-linejoin:miter;stroke-opacity:1;marker-end:url(#Arrow1Mend)"
       d="m 471.58,642.15956 14.6,0"
       id="path5414"
       sodipodi:nodetypes="cc" />
    <path
       transform="matrix(1.44,0,0,-1.44,364.49516,644.107)"
       d="m 36.150834,33.558914 c 0,0.43934 -0.356155,0.795495 -0.795495,0.795495 -0.43934,0 -0.795495,-0.356155 -0.795495,-0.795495 0,-0.43934 0.356155,-0.795495 0.795495,-0.795495 0.43934,0 0.795495,0.356155 0.795495,0.795495 z"
       sodipodi:ry="0.79549515"
       sodipodi:rx="0.79549515"
       sodipodi:cy="33.558914"
       sodipodi:cx="35.355339"
       id="path5418"
       style="fill:#000000;fill-opacity:1;stroke:#000000;stroke-width:1;stroke-miterlimit:4;stroke-dasharray:none"
       sodipodi:type="arc" />
    <path
       style="fill:none;stroke:#000000;stroke-width:1;stroke-linecap:butt;stroke-linejoin:miter;stroke-miterlimit:4;stroke-opacity:1;stroke-dasharray:none;marker-end:url(#Arrow1Mend)"
       d="m 471.18,614.15956 23,0 0,13"
       id="path5420"
       sodipodi:nodetypes="ccc" />
    <path
       sodipodi:nodetypes="ccc"
       id="path5422"
       d="m 415.2,595.90952 0.16,13.5 35.2,0"
       style="fill:none;stroke:#000000;stroke-width:1;stroke-linecap:butt;stroke-linejoin:miter;stroke-miterlimit:4;stroke-opacity:1;stroke-dasharray:none;marker-end:url(#Arrow1Mend)" />
    <path
       style="fill:none;stroke:#000000;stroke-width:1;stroke-linecap:butt;stroke-linejoin:miter;stroke-miterlimit:4;stroke-opacity:1;stroke-dasharray:none;marker-end:url(#Arrow1Mend)"
       d="m 409.2,585.90952 0.16,33.5 41.1,0"
       id="path5424"
       sodipodi:nodetypes="ccc" />
    <path
       sodipodi:type="arc"
       style="fill:#000000;fill-opacity:1;stroke:#000000;stroke-width:1;stroke-miterlimit:4;stroke-dasharray:none"
       id="path5426"
       sodipodi:cx="35.355339"
       sodipodi:cy="33.558914"
       sodipodi:rx="0.79549515"
       sodipodi:ry="0.79549515"
       d="m 36.150834,33.558914 c 0,0.43934 -0.356155,0.795495 -0.795495,0.795495 -0.43934,0 -0.795495,-0.356155 -0.795495,-0.795495 0,-0.43934 0.356155,-0.795495 0.795495,-0.795495 0.43934,0 0.795495,0.356155 0.795495,0.795495 z"
       transform="matrix(1.44,0,0,-1.44,358.24516,633.982)" />
    <path
       transform="matrix(1.44,0,0,-1.44,344.05766,633.9195)"
       d="m 36.150834,33.558914 c 0,0.43934 -0.356155,0.795495 -0.795495,0.795495 -0.43934,0 -0.795495,-0.356155 -0.795495,-0.795495 0,-0.43934 0.356155,-0.795495 0.795495,-0.795495 0.43934,0 0.795495,0.356155 0.795495,0.795495 z"
       sodipodi:ry="0.79549515"
       sodipodi:rx="0.79549515"
       sodipodi:cy="33.558914"
       sodipodi:cx="35.355339"
       id="path5428"
       style="fill:#000000;fill-opacity:1;stroke:#000000;stroke-width:1;stroke-miterlimit:4;stroke-dasharray:none"
       sodipodi:type="arc" />
    <path
       sodipodi:type="arc"
       style="fill:#000000;fill-opacity:1;stroke:#000000;stroke-width:1;stroke-miterlimit:4;stroke-dasharray:none"
       id="path5430"
       sodipodi:cx="35.355339"
       sodipodi:cy="33.558914"
       sodipodi:rx="0.79549515"
       sodipodi:ry="0.79549515"
       d="m 36.150834,33.558914 c 0,0.43934 -0.356155,0.795495 -0.795495,0.795495 -0.43934,0 -0.795495,-0.356155 -0.795495,-0.795495 0,-0.43934 0.356155,-0.795495 0.795495,-0.795495 0.43934,0 0.795495,0.356155 0.795495,0.795495 z"
       transform="matrix(1.44,0,0,-1.44,352.05766,644.107)" />
    <path
       style="fill:none;stroke:#000000;stroke-width:1;stroke-linecap:butt;stroke-linejoin:miter;stroke-miterlimit:4;stroke-opacity:1;stroke-dasharray:none;marker-end:url(#Arrow1Mend)"
       d="m 471.66,666.15952 47.7,0 0,-54.5"
       id="path5432"
       sodipodi:nodetypes="ccc" />
    <path
       style="fill:none;stroke:#000000;stroke-width:1px;stroke-linecap:butt;stroke-linejoin:miter;stroke-opacity:1"
       d="m 514.36,592.40953 10,5 0,10 -10,5 0,-20 z"
       id="path5434" />
    <path
       sodipodi:nodetypes="ccccc"
       transform="translate(368.36,548.2495)"
       id="path5438"
       d="m 130,88.410019 5,0 0,-29 0,0 9,0"
       style="fill:none;stroke:#000000;stroke-width:1px;stroke-linecap:butt;stroke-linejoin:miter;stroke-opacity:1;marker-start:none;marker-end:url(#Arrow1Mend)" />
    <path
       style="fill:none;stroke:#000000;stroke-width:1px;stroke-linecap:butt;stroke-linejoin:miter;stroke-opacity:1;marker-start:none;marker-end:url(#Arrow1Mend)"
       d="m 498.36,567.90952 5,0 0,29 0,0 9,0"
       id="path6184"
       sodipodi:nodetypes="ccccc" />
    <path
       style="fill:none;stroke:#000000;stroke-width:1px;stroke-linecap:butt;stroke-linejoin:miter;stroke-opacity:1;marker-end:url(#Arrow1Mend)"
       d="m 524.36,602.65952 15,0"
       id="path6186"
       sodipodi:nodetypes="cc" />
    <g
       transform="translate(-12.228753,133.38002)"
       id="g2899">
      <path
         transform="translate(434,506.3654)"
         d="m 50,26.984081 c 0,5.522848 -4.477153,10 -10,10 -5.522847,0 -10,-4.477152 -10,-10 0,-5.522847 4.477153,-10 10,-10 5.522847,0 10,4.477153 10,10 z"
         sodipodi:ry="10"
         sodipodi:rx="10"
         sodipodi:cy="26.984081"
         sodipodi:cx="40"
         id="path2901"
         style="fill:#ffffff;stroke:#000000"
         sodipodi:type="arc" />
      <g
         id="g2903"
         transform="matrix(1,0,0,-1,246.72,1192.8695)"
         xml:space="preserve"
         stroke-miterlimit="10.433"
         font-style="normal"
         font-variant="normal"
         font-weight="normal"
         font-stretch="normal"
         font-size-adjust="none"
         letter-spacing="normal"
         word-spacing="normal"
         ns0:text="$\\equiv$\n\n\n\n\n"
         ns0:preamble=""
         style="font-style:normal;font-variant:normal;font-weight:normal;font-stretch:normal;letter-spacing:normal;word-spacing:normal;text-anchor:start;fill:none;stroke:#000000;stroke-linecap:butt;stroke-linejoin:miter;stroke-miterlimit:10.43299961;stroke-opacity:1;stroke-dasharray:none;stroke-dashoffset:0">
<path
   d="m 230.27,661.46 0.03,0 0.03,0 0.03,0 0.02,0 0.01,0 0.02,0 0.02,0 0.01,0.01 0.01,0 0.02,0 0.01,0 0.02,0.01 0.01,0 0.01,0.01 0.01,0 0.02,0.01 0.01,0.01 0.01,0 0.01,0.01 0.01,0.01 0,0.01 0.01,0.01 0,0 0,0.01 0.01,0 0,0.01 0,0.01 0.01,0 0,0.01 0,0.01 0,0.01 0,0 0,0.01 0,0.01 0.01,0.01 0,0.01 0,0.01 c 0,0.19 -0.18,0.19 -0.35,0.19 h -5.95 c -0.17,0 -0.35,0 -0.35,-0.19 0,-0.2 0.2,-0.2 0.36,-0.2 z"
   id="path2905"
   style="fill:#000000;stroke-width:0" />
<path
   d="m 230.28,657.59 0.03,0 0.03,0 0.03,0 0.02,0 0.01,0 0.02,0.01 0.01,0 0.02,0 0.01,0 0.02,0 0.01,0.01 0.01,0 0.01,0.01 0.02,0 0.01,0.01 0.01,0 0.01,0.01 0.01,0.01 0.01,0.01 0.01,0 0.01,0.01 0,0.01 0,0.01 0.01,0 0,0.01 0,0 0,0.01 0.01,0.01 0,0 0,0.01 0,0.01 0,0.01 0,0 0,0.01 0.01,0.01 0,0.01 0,0.01 c 0,0.2 -0.19,0.2 -0.36,0.2 h -5.93 c -0.16,0 -0.36,0 -0.36,-0.2 0,-0.2 0.18,-0.2 0.35,-0.2 z"
   id="path2907"
   style="fill:#000000;stroke-width:0" />
<path
   d="m 230.28,659.52 0.03,0 0.03,0 0.03,0.01 0.02,0 0.01,0 0.02,0 0.01,0 0.02,0 0.01,0 0.02,0.01 0.01,0 0.01,0 0.01,0.01 0.02,0 0.01,0.01 0.01,0.01 0.01,0 0.01,0.01 0.01,0.01 0.01,0.01 0.01,0.01 0,0 0,0.01 0.01,0 0,0.01 0,0.01 0,0 0.01,0.01 0,0.01 0,0 0,0.01 0,0.01 0,0.01 0,0.01 0.01,0 0,0.01 0,0.01 c 0,0.2 -0.18,0.2 -0.35,0.2 h -5.95 c -0.17,0 -0.35,0 -0.35,-0.2 0,-0.2 0.18,-0.2 0.35,-0.2 z"
   id="path2909"
   style="fill:#000000;stroke-width:0" />
</g>    </g>
    <path
       sodipodi:nodetypes="cc"
       id="path2911"
       d="m 368.36,660.85952 83.7,0"
       style="fill:none;stroke:#000000;stroke-width:1;stroke-linecap:butt;stroke-linejoin:miter;stroke-miterlimit:4;stroke-opacity:1;stroke-dasharray:none;marker-end:url(#Arrow1Mend)" />
    <path
       style="fill:none;stroke:#000000;stroke-width:1;stroke-linecap:butt;stroke-linejoin:miter;stroke-miterlimit:4;stroke-opacity:1;stroke-dasharray:none;marker-end:url(#Arrow1Mend)"
       d="m 440.76,671.95952 11,0"
       id="path2913"
       sodipodi:nodetypes="cc" />
    <g
       style="font-style:normal;font-variant:normal;font-weight:normal;font-stretch:normal;letter-spacing:normal;word-spacing:normal;text-anchor:start;fill:none;stroke:#000000;stroke-linecap:butt;stroke-linejoin:miter;stroke-miterlimit:10.43299961;stroke-opacity:1;stroke-dasharray:none;stroke-dashoffset:0"
       ns0:preamble=""
       ns0:text="$\\mathit{Equal}$\n\n\n\n\n\n\n\n"
       text-anchor="start"
       word-spacing="normal"
       letter-spacing="normal"
       font-size-adjust="none"
       font-stretch="normal"
       font-weight="normal"
       font-variant="normal"
       font-style="normal"
       fill-opacity="1"
       fill-rule="evenodd"
       fill="none"
       stroke-opacity="1"
       stroke-dashoffset="0"
       stroke-dasharray="none"
       stroke-miterlimit="10.433"
       stroke-linejoin="miter"
       stroke-linecap="butt"
       stroke="black"
       xml:space="preserve"
       transform="matrix(1,0,0,-1,191.39491,1331.6142)"
       id="g3005">
<path
   id="path3007"
   fill="black"
   stroke-width="0"
   d="M230.24,659.57 L230.24,659.57 L230.24,659.58 L230.24,659.58 L230.24,659.58 L230.24,659.58 L230.24,659.58 L230.24,659.59 L230.24,659.59 L230.25,659.6 L230.25,659.6 L230.25,659.6 L230.25,659.61 L230.25,659.61 L230.25,659.62 L230.26,659.63 L230.26,659.64 L230.26,659.64 L230.26,659.65 L230.27,659.65 L230.27,659.66 L230.27,659.66 L230.27,659.66 L230.27,659.67 L230.27,659.67 L230.27,659.68 L230.27,659.68 L230.27,659.68 L230.28,659.68 L230.28,659.69 L230.28,659.69 L230.28,659.69 L230.28,659.69 L230.28,659.69 L230.28,659.69 L230.28,659.69 L230.28,659.69 L230.28,659.69 C230.28,659.8,230.16,659.8,230.13,659.8 C230.02,659.8,230.01,659.79,229.92,659.56 C229.34,658.19,228.99,657.54,227.41,657.54 H226.19 C225.88,657.54,225.88,657.57,225.88,657.64 C225.88,657.7,225.91,657.8,225.92,657.86 L226.61,660.6 H227.48 C228.15,660.6,228.23,660.44,228.23,660.17 C228.23,660.1,228.21,659.95,228.13,659.66 C228.13,659.64,228.12,659.58,228.12,659.55 C228.12,659.43,228.21,659.43,228.27,659.43 C228.38,659.43,228.41,659.45,228.45,659.63 L229,661.83 C229.01,661.85,229.03,661.93,229.03,661.96 C229.03,662.07,228.91,662.07,228.87,662.07 C228.74,662.07,228.74,662.04,228.68,661.84 C228.49,661.13,228.3,660.91,227.5,660.91 H226.69 L227.3,663.36 C227.38,663.69,227.45,663.7,227.78,663.7 H229.02 C230.1,663.7,230.35,663.4,230.35,662.69 C230.35,662.42,230.33,662.29,230.3,662.05 C230.29,662.01,230.28,661.91,230.28,661.89 C230.28,661.77,230.39,661.77,230.43,661.77 C230.57,661.77,230.58,661.8,230.6,661.98 L230.82,663.75 C230.85,664.01,230.79,664.01,230.59,664.01 H225.93 C225.76,664.01,225.66,664.01,225.66,663.83 C225.66,663.7,225.73,663.7,225.93,663.7 C226.51,663.7,226.51,663.62,226.51,663.53 C226.51,663.52,226.51,663.45,226.47,663.3 L225.14,657.96 C225.06,657.62,225,657.54,224.32,657.54 C224.16,657.54,224.05,657.54,224.05,657.35 C224.05,657.23,224.14,657.23,224.3,657.23 H229.07 C229.27,657.23,229.28,657.24,229.35,657.39 Z " />
<path
   id="path3009"
   fill="black"
   stroke-width="0"
   d="M235.11,661.39 L235.11,661.39 L235.11,661.39 L235.11,661.4 L235.12,661.4 L235.12,661.4 L235.12,661.41 L235.12,661.41 L235.12,661.42 L235.12,661.42 L235.12,661.43 L235.13,661.44 L235.13,661.45 L235.13,661.46 L235.13,661.47 L235.13,661.47 L235.13,661.47 L235.14,661.48 L235.14,661.48 L235.14,661.49 L235.14,661.49 L235.14,661.5 L235.14,661.5 L235.14,661.5 L235.14,661.51 L235.14,661.51 L235.14,661.51 L235.14,661.51 L235.14,661.52 C235.14,661.61,235.06,661.63,235.03,661.63 C234.92,661.63,234.56,661.28,234.4,661 C234.29,661.29,234.03,661.64,233.55,661.64 V661.42 C233.63,661.42,233.86,661.41,234.04,661.13 C234.13,660.97,234.24,660.68,234.24,660.49 C234.24,660.46,234.23,660.42,234.21,660.36 L233.73,658.45 C233.65,658.14,233.04,657.34,232.49,657.34 C232.02,657.34,231.94,657.93,231.94,658.23 C231.94,658.73,232.25,659.89,232.43,660.31 C232.68,660.92,233.14,661.42,233.55,661.42 V661.64 C232.44,661.64,231.27,660.12,231.27,658.67 C231.27,657.82,231.72,657.12,232.47,657.12 C232.88,657.12,233.25,657.38,233.53,657.65 L233.14,656.09 C233.03,655.66,233.02,655.62,232.38,655.61 C232.25,655.61,232.14,655.61,232.14,655.42 C232.14,655.33,232.2,655.3,232.27,655.3 C232.59,655.3,232.94,655.33,233.27,655.33 C233.6,655.33,233.96,655.3,234.27,655.3 C234.33,655.3,234.46,655.3,234.46,655.49 C234.46,655.61,234.36,655.61,234.23,655.61 C233.72,655.61,233.72,655.67,233.72,655.77 C233.72,655.84,233.74,655.89,233.75,655.95 Z " />
<path
   id="path3011"
   fill="black"
   stroke-width="0"
   d="M239.88,661.13 L239.89,661.14 L239.89,661.15 L239.89,661.16 L239.9,661.17 L239.9,661.18 L239.9,661.19 L239.9,661.2 L239.91,661.21 L239.91,661.21 L239.91,661.22 L239.91,661.22 L239.91,661.23 L239.91,661.23 L239.91,661.23 L239.91,661.24 L239.91,661.24 L239.91,661.24 L239.91,661.25 L239.91,661.25 L239.91,661.25 L239.91,661.26 L239.91,661.26 L239.91,661.26 L239.91,661.27 C239.91,661.38,239.83,661.53,239.63,661.53 C239.34,661.53,239.27,661.24,239.25,661.16 L238.52,658.25 C238.47,658.07,238.47,658.05,238.38,657.92 C238.19,657.64,237.9,657.34,237.46,657.34 C237.01,657.34,236.92,657.78,236.92,658.11 C236.92,658.72,237.25,659.61,237.5,660.29 C237.58,660.5,237.63,660.64,237.63,660.83 C237.63,661.33,237.3,661.64,236.88,661.64 C235.95,661.64,235.6,660.16,235.6,660.1 C235.6,660,235.7,660,235.75,660 C235.88,660,235.89,660.02,235.93,660.16 C236.01,660.47,236.28,661.42,236.85,661.42 C236.96,661.42,237.07,661.39,237.07,661.13 C237.07,660.89,236.97,660.62,236.84,660.23 C236.58,659.53,236.32,658.8,236.32,658.28 C236.32,657.41,236.9,657.12,237.43,657.12 C237.96,657.12,238.3,657.42,238.54,657.72 C238.72,657.18,239.15,657.12,239.34,657.12 C239.7,657.12,239.91,657.37,240.06,657.68 C240.24,658.06,240.36,658.64,240.36,658.66 C240.36,658.76,240.28,658.76,240.21,658.76 C240.09,658.76,240.08,658.75,240.02,658.53 C239.88,657.97,239.69,657.34,239.35,657.34 C239.1,657.34,239.1,657.61,239.1,657.75 C239.1,657.82,239.1,657.98,239.17,658.26 Z " />
<path
   id="path3013"
   fill="black"
   stroke-width="0"
   d="M243.6,657.82 L243.61,657.78 L243.62,657.73 L243.63,657.69 L243.65,657.65 L243.67,657.61 L243.68,657.57 L243.7,657.54 L243.72,657.51 L243.74,657.47 L243.77,657.44 L243.79,657.41 L243.81,657.38 L243.84,657.36 L243.87,657.33 L243.89,657.31 L243.92,657.29 L243.95,657.27 L243.98,657.25 L244.01,657.23 L244.04,657.21 L244.07,657.2 L244.1,657.19 L244.13,657.17 L244.16,657.16 L244.2,657.15 L244.23,657.15 L244.26,657.14 L244.29,657.13 L244.33,657.13 L244.36,657.13 L244.39,657.12 L244.42,657.12 C244.79,657.12,245,657.37,245.15,657.68 C245.33,658.06,245.45,658.64,245.45,658.66 C245.45,658.76,245.37,658.76,245.3,658.76 C245.18,658.76,245.17,658.75,245.11,658.53 C244.97,657.97,244.78,657.34,244.44,657.34 C244.18,657.34,244.18,657.61,244.18,657.75 C244.18,657.82,244.18,657.98,244.26,658.26 L244.93,660.97 C244.97,661.11,244.97,661.13,244.97,661.18 C244.97,661.39,244.8,661.44,244.7,661.44 C244.38,661.44,244.31,661.1,244.3,661.05 C244.12,661.48,243.8,661.64,243.48,661.64 V661.42 C243.92,661.42,244.16,660.9,244.16,660.48 C244.16,660.46,244.15,660.41,244.13,660.35 H244.13 L243.67,658.47 C243.59,658.15,242.97,657.34,242.42,657.34 C241.95,657.34,241.87,657.93,241.87,658.23 C241.87,658.73,242.18,659.89,242.36,660.31 C242.61,660.92,243.07,661.42,243.48,661.42 V661.64 C242.37,661.64,241.2,660.12,241.2,658.67 C241.2,657.82,241.65,657.12,242.4,657.12 C242.76,657.12,243.2,657.33,243.6,657.82 Z " />
<path
   id="path3015"
   fill="black"
   stroke-width="0"
   d="M248.23,663.9 L248.23,663.9 L248.23,663.9 L248.23,663.91 L248.24,663.91 L248.24,663.91 L248.24,663.92 L248.24,663.92 L248.24,663.93 L248.24,663.93 L248.24,663.94 L248.24,663.95 L248.25,663.96 L248.25,663.97 L248.25,663.98 L248.25,663.98 L248.25,663.98 L248.26,663.99 L248.26,663.99 L248.26,664 L248.26,664 L248.26,664.01 L248.26,664.01 L248.26,664.01 L248.26,664.02 L248.26,664.02 L248.26,664.02 L248.26,664.02 L248.26,664.03 C248.26,664.12,248.2,664.15,248.12,664.15 C248.09,664.15,247.99,664.14,247.96,664.13 L246.98,664.05 C246.86,664.04,246.75,664.03,246.75,663.84 C246.75,663.73,246.85,663.73,246.99,663.73 C247.46,663.73,247.48,663.66,247.48,663.56 C247.48,663.53,247.45,663.4,247.45,663.39 L246.21,658.41 C246.2,658.37,246.15,658.17,246.15,658.02 C246.15,657.49,246.51,657.12,246.99,657.12 C247.36,657.12,247.56,657.39,247.69,657.64 C247.86,657.99,248,658.63,248,658.66 C248,658.76,247.92,658.76,247.85,658.76 C247.8,658.76,247.74,658.76,247.71,658.71 L247.64,658.46 C247.47,657.76,247.29,657.34,247.01,657.34 C246.75,657.34,246.75,657.61,246.75,657.75 C246.75,657.82,246.75,657.97,246.81,658.21 Z " />
</g>  </g>
</svg>
