<?xml version="1.0" encoding="UTF-8" standalone="no"?>
<!-- Created with Inkscape (http://www.inkscape.org/) -->

<svg
   xmlns:ns0="http://www.iki.fi/pav/software/textext/"
   xmlns:dc="http://purl.org/dc/elements/1.1/"
   xmlns:cc="http://creativecommons.org/ns#"
   xmlns:rdf="http://www.w3.org/1999/02/22-rdf-syntax-ns#"
   xmlns:svg="http://www.w3.org/2000/svg"
   xmlns="http://www.w3.org/2000/svg"
   xmlns:sodipodi="http://sodipodi.sourceforge.net/DTD/sodipodi-0.dtd"
   xmlns:inkscape="http://www.inkscape.org/namespaces/inkscape"
   width="172.75"
   height="142.6393"
   id="svg2"
   version="1.1"
   inkscape:version="0.47 r22583"
   sodipodi:docname="counter.svg">
  <sodipodi:namedview
     id="base"
     pagecolor="#ffffff"
     bordercolor="#666666"
     borderopacity="1.0"
     inkscape:pageopacity="0.0"
     inkscape:pageshadow="2"
     inkscape:zoom="2.5858452"
     inkscape:cx="69.577315"
     inkscape:cy="49.983004"
     inkscape:document-units="px"
     inkscape:current-layer="layer1"
     showgrid="false"
     inkscape:snap-grids="true"
     inkscape:window-width="1091"
     inkscape:window-height="778"
     inkscape:window-x="209"
     inkscape:window-y="89"
     inkscape:window-maximized="0"
     inkscape:snap-center="false">
    <inkscape:grid
       type="xygrid"
       id="grid2818"
       empspacing="5"
       visible="true"
       enabled="true"
       snapvisiblegridlinesonly="true" />
  </sodipodi:namedview>
  <defs
     id="defs4">
    <marker
       inkscape:stockid="Arrow1Mend"
       orient="auto"
       refY="0"
       refX="0"
       id="Arrow1Mend"
       style="overflow:visible">
      <path
         id="path3732"
         d="M 0,0 5,-5 -12.5,0 5,5 0,0 z"
         style="fill-rule:evenodd;stroke:#000000;stroke-width:1pt;marker-start:none"
         transform="matrix(-0.4,0,0,-0.4,-4,0)" />
    </marker>
    <marker
       inkscape:stockid="Arrow1Send"
       orient="auto"
       refY="0"
       refX="0"
       id="Arrow1Send"
       style="overflow:visible">
      <path
         id="path3738"
         d="M 0,0 5,-5 -12.5,0 5,5 0,0 z"
         style="fill-rule:evenodd;stroke:#000000;stroke-width:1pt;marker-start:none"
         transform="matrix(-0.2,0,0,-0.2,-1.2,0)" />
    </marker>
    <inkscape:perspective
       sodipodi:type="inkscape:persp3d"
       inkscape:vp_x="0 : 526.18109 : 1"
       inkscape:vp_y="0 : 1000 : 0"
       inkscape:vp_z="744.09448 : 526.18109 : 1"
       inkscape:persp3d-origin="372.04724 : 350.78739 : 1"
       id="perspective10" />
    <inkscape:perspective
       id="perspective3098"
       inkscape:persp3d-origin="0.5 : 0.33333333 : 1"
       inkscape:vp_z="1 : 0.5 : 1"
       inkscape:vp_y="0 : 1000 : 0"
       inkscape:vp_x="0 : 0.5 : 1"
       sodipodi:type="inkscape:persp3d" />
    <inkscape:perspective
       id="perspective3128"
       inkscape:persp3d-origin="0.5 : 0.33333333 : 1"
       inkscape:vp_z="1 : 0.5 : 1"
       inkscape:vp_y="0 : 1000 : 0"
       inkscape:vp_x="0 : 0.5 : 1"
       sodipodi:type="inkscape:persp3d" />
  </defs>
  <metadata
     id="metadata7">
    <rdf:RDF>
      <cc:Work
         rdf:about="">
        <dc:format>image/svg+xml</dc:format>
        <dc:type
           rdf:resource="http://purl.org/dc/dcmitype/StillImage" />
        <dc:title />
      </cc:Work>
    </rdf:RDF>
  </metadata>
  <g
     inkscape:label="Layer 1"
     inkscape:groupmode="layer"
     id="layer1"
     transform="translate(-367.86,-539.3795)">
    <rect
       style="fill:#ffffff;fill-opacity:1;stroke:#000000;stroke-width:1;stroke-miterlimit:4;stroke-dasharray:none"
       id="rect6192"
       width="121.45211"
       height="133.58583"
       x="38.594795"
       y="-0.3165282"
       transform="translate(368.36,548.2495)" />
    <path
       style="fill:none;stroke:#000000;stroke-width:1px;stroke-linecap:butt;stroke-linejoin:miter;stroke-opacity:1;marker-end:url(#Arrow1Mend)"
       d="m 368.86,585.7295 82,0"
       id="path2940"
       sodipodi:nodetypes="cc" />
    <g
       transform="translate(-75.428753,-10)"
       id="g5140">
      <g
         transform="translate(118.2,-6.1899623)"
         id="g4445">
        <path
           sodipodi:type="arc"
           style="fill:#ffffff;stroke:#000000"
           id="path3641"
           sodipodi:cx="40"
           sodipodi:cy="26.984081"
           sodipodi:rx="10"
           sodipodi:ry="10"
           d="m 50,26.984081 c 0,5.522848 -4.477153,10 -10,10 -5.522847,0 -10,-4.477152 -10,-10 0,-5.522847 4.477153,-10 10,-10 5.522847,0 10,4.477153 10,10 z"
           transform="translate(379,551.3654)" />
        <g
           id="g3067"
           transform="matrix(1,0,0,-1,191.89,1238.2695)"
           xml:space="preserve"
           stroke-miterlimit="10.433"
           font-style="normal"
           font-variant="normal"
           font-weight="normal"
           font-stretch="normal"
           font-size-adjust="none"
           letter-spacing="normal"
           word-spacing="normal"
           ns0:text="$\\mathbf{+}$\n\n"
           ns0:preamble=""
           style="font-style:normal;font-variant:normal;font-weight:normal;font-stretch:normal;letter-spacing:normal;word-spacing:normal;text-anchor:start;fill:none;stroke:#000000;stroke-linecap:butt;stroke-linejoin:miter;stroke-miterlimit:10.43299961;stroke-opacity:1;stroke-dasharray:none;stroke-dashoffset:0">
<path
   style="fill:#000000;stroke-width:0"
   d="m 227.51,659.52 h 2.78 c 0.14,0 0.33,0 0.33,0.2 0,0.2 -0.19,0.2 -0.33,0.2 h -2.78 v 2.79 c 0,0.14 0,0.33 -0.2,0.33 -0.2,0 -0.2,-0.19 -0.2,-0.33 v -2.79 h -2.79 c -0.14,0 -0.33,0 -0.33,-0.2 0,-0.2 0.19,-0.2 0.33,-0.2 h 2.79 v -2.79 c 0,-0.14 0,-0.32 0.2,-0.32 0.2,0 0.2,0.18 0.2,0.32 z"
   id="path3069" />
</g>      </g>
    </g>
    <path
       sodipodi:type="arc"
       style="fill:#ffffff;stroke:#000000"
       id="path4429"
       sodipodi:cx="40"
       sodipodi:cy="26.984081"
       sodipodi:rx="10"
       sodipodi:ry="10"
       d="m 50,26.984081 c 0,5.522848 -4.477153,10 -10,10 -5.522847,0 -10,-4.477152 -10,-10 0,-5.522847 4.477153,-10 10,-10 5.522847,0 10,4.477153 10,10 z"
       transform="translate(421.77125,587.51042)" />
    <path
       sodipodi:type="arc"
       style="fill:#ffffff;stroke:#000000"
       id="path4581"
       sodipodi:cx="40"
       sodipodi:cy="26.984081"
       sodipodi:rx="10"
       sodipodi:ry="10"
       d="m 50,26.984081 c 0,5.522848 -4.477153,10 -10,10 -5.522847,0 -10,-4.477152 -10,-10 0,-5.522847 4.477153,-10 10,-10 5.522847,0 10,4.477153 10,10 z"
       transform="translate(421.77125,563.74542)" />
    <path
       id="path5134"
       d="m 488.02,578.19451 10,-5 0,-10 -10,-5 0,20 z"
       style="fill:none;stroke:#000000;stroke-width:1px;stroke-linecap:butt;stroke-linejoin:miter;stroke-opacity:1" />
    <path
       style="fill:none;stroke:#000000;stroke-width:1;stroke-linecap:butt;stroke-linejoin:miter;stroke-miterlimit:4;stroke-opacity:1;stroke-dasharray:none;marker-end:url(#Arrow1Mend)"
       d="m 431.2,585.15952 0.16,-28.2 19.8,0"
       id="path5138"
       sodipodi:nodetypes="ccc" />
    <path
       sodipodi:nodetypes="cc"
       id="path5148"
       d="m 474.36,573.65952 12,0"
       style="fill:none;stroke:#000000;stroke-width:1px;stroke-linecap:butt;stroke-linejoin:miter;stroke-opacity:1;marker-end:url(#Arrow1Mend)" />
    <g
       style="font-style:normal;font-variant:normal;font-weight:normal;font-stretch:normal;letter-spacing:normal;word-spacing:normal;text-anchor:start;fill:none;stroke:#000000;stroke-linecap:butt;stroke-linejoin:miter;stroke-miterlimit:10.43299961;stroke-opacity:1;stroke-dasharray:none;stroke-dashoffset:0"
       ns0:preamble=""
       ns0:text="$0$\n\n\n\n\n"
       word-spacing="normal"
       letter-spacing="normal"
       font-size-adjust="none"
       font-stretch="normal"
       font-weight="normal"
       font-variant="normal"
       font-style="normal"
       stroke-miterlimit="10.433"
       xml:space="preserve"
       transform="matrix(1,0,0,-1,245.53,1233.8495)"
       id="g5245">
<path
   id="path5247"
   d="m 228.01,660.42 0,0.15 0,0.15 0,0.15 -0.01,0.15 -0.01,0.15 -0.01,0.14 -0.01,0.15 -0.02,0.15 -0.03,0.15 -0.02,0.14 -0.04,0.15 -0.03,0.14 -0.05,0.14 -0.05,0.14 -0.05,0.14 -0.03,0.07 -0.03,0.07 c -0.46,0.96 -1.28,1.12 -1.7,1.12 -0.6,0 -1.32,-0.26 -1.73,-1.19 -0.32,-0.69 -0.37,-1.46 -0.37,-2.26 0,-0.75 0.04,-1.64 0.45,-2.4 0.43,-0.81 1.16,-1.01 1.64,-1.01 v 0.22 c -0.39,0 -0.97,0.25 -1.15,1.21 -0.11,0.6 -0.11,1.51 -0.11,2.1 0,0.64 0,1.3 0.08,1.83 0.19,1.19 0.93,1.28 1.18,1.28 0.33,0 0.99,-0.18 1.18,-1.17 0.1,-0.56 0.1,-1.31 0.1,-1.94 0,-0.75 0,-1.43 -0.11,-2.06 -0.15,-0.95 -0.72,-1.25 -1.17,-1.25 h 0 v -0.22 c 0.54,0 1.3,0.21 1.74,1.16 0.31,0.69 0.36,1.46 0.36,2.25 z"
   style="fill:#000000;stroke-width:0" />
</g>    <path
       style="fill:none;stroke:#000000;stroke-width:1px;stroke-linecap:butt;stroke-linejoin:miter;stroke-opacity:1;marker-end:url(#Arrow1Mend)"
       d="m 471.36,562.65952 15,0"
       id="path5338"
       sodipodi:nodetypes="cc" />
    <path
       sodipodi:type="arc"
       style="fill:#000000;fill-opacity:1;stroke:#000000;stroke-width:1;stroke-miterlimit:4;stroke-dasharray:none"
       id="path5351"
       sodipodi:cx="35.355339"
       sodipodi:cy="33.558914"
       sodipodi:rx="0.79549515"
       sodipodi:ry="0.79549515"
       d="m 36.150834,33.558914 c 0,0.43934 -0.356155,0.795495 -0.795495,0.795495 -0.43934,0 -0.795495,-0.356155 -0.795495,-0.795495 0,-0.43934 0.356155,-0.795495 0.795495,-0.795495 0.43934,0 0.795495,0.356155 0.795495,0.795495 z"
       transform="matrix(1.44,0,0,1.44,370.16475,537.40097)" />
    <path
       style="fill:none;stroke:#000000;stroke-width:1;stroke-linecap:butt;stroke-linejoin:miter;stroke-miterlimit:4;stroke-opacity:1;stroke-dasharray:none;marker-end:url(#Arrow1Mend)"
       d="m 471.36,590.65952 23,0 0,-13"
       id="path5378"
       sodipodi:nodetypes="ccc" />
    <path
       style="fill:none;stroke:#000000;stroke-width:1px;stroke-linecap:butt;stroke-linejoin:miter;stroke-opacity:1"
       d="m 488.02,634.62457 10,5 0,10 -10,5 0,-20 z"
       id="path5402" />
    <path
       style="fill:none;stroke:#000000;stroke-width:1;stroke-linecap:butt;stroke-linejoin:miter;stroke-miterlimit:4;stroke-opacity:1;stroke-dasharray:none;marker-end:url(#Arrow1Mend)"
       d="m 431.02,595.65956 0,55.39996 55.4,0"
       id="path5404"
       sodipodi:nodetypes="ccc" />
    <path
       sodipodi:nodetypes="ccc"
       id="path5406"
       d="m 411.02,585.65956 0,47.69996 40.3,0"
       style="fill:none;stroke:#000000;stroke-width:1;stroke-linecap:butt;stroke-linejoin:miter;stroke-miterlimit:4;stroke-opacity:1;stroke-dasharray:none;marker-end:url(#Arrow1Mend)" />
    <g
       id="g5410"
       transform="translate(247.35,-29.030423)"
       xml:space="preserve"
       stroke-miterlimit="10.433"
       font-style="normal"
       font-variant="normal"
       font-weight="normal"
       font-stretch="normal"
       font-size-adjust="none"
       letter-spacing="normal"
       word-spacing="normal"
       ns0:text="$0$\n\n\n\n\n"
       ns0:preamble=""
       style="font-style:normal;font-variant:normal;font-weight:normal;font-stretch:normal;letter-spacing:normal;word-spacing:normal;text-anchor:start;fill:none;stroke:#000000;stroke-linecap:butt;stroke-linejoin:miter;stroke-miterlimit:10.43299961;stroke-opacity:1;stroke-dasharray:none;stroke-dashoffset:0">

</g>    <path
       sodipodi:nodetypes="cc"
       id="path5414"
       d="m 471.58,638.65962 14.6,0"
       style="fill:none;stroke:#000000;stroke-width:1px;stroke-linecap:butt;stroke-linejoin:miter;stroke-opacity:1;marker-end:url(#Arrow1Mend)" />
    <path
       sodipodi:nodetypes="ccc"
       id="path5420"
       d="m 471.18,614.15956 23,0 0,21.40024"
       style="fill:none;stroke:#000000;stroke-width:1;stroke-linecap:butt;stroke-linejoin:miter;stroke-miterlimit:4;stroke-opacity:1;stroke-dasharray:none;marker-end:url(#Arrow1Mend)" />
    <path
       sodipodi:nodetypes="ccc"
       id="path5424"
       d="m 421.2,585.90952 0.16,23.5 30.1,0"
       style="fill:none;stroke:#000000;stroke-width:1;stroke-linecap:butt;stroke-linejoin:miter;stroke-miterlimit:4;stroke-opacity:1;stroke-dasharray:none;marker-end:url(#Arrow1Mend)" />
    <path
       transform="matrix(1.44,0,0,-1.44,359.94482,633.982)"
       d="m 36.150834,33.558914 c 0,0.43934 -0.356155,0.795495 -0.795495,0.795495 -0.43934,0 -0.795495,-0.356155 -0.795495,-0.795495 0,-0.43934 0.356155,-0.795495 0.795495,-0.795495 0.43934,0 0.795495,0.356155 0.795495,0.795495 z"
       sodipodi:ry="0.79549515"
       sodipodi:rx="0.79549515"
       sodipodi:cy="33.558914"
       sodipodi:cx="35.355339"
       id="path5426"
       style="fill:#000000;fill-opacity:1;stroke:#000000;stroke-width:1;stroke-miterlimit:4;stroke-dasharray:none"
       sodipodi:type="arc" />
    <path
       sodipodi:type="arc"
       style="fill:#000000;fill-opacity:1;stroke:#000000;stroke-width:1;stroke-miterlimit:4;stroke-dasharray:none"
       id="path5428"
       sodipodi:cx="35.355339"
       sodipodi:cy="33.558914"
       sodipodi:rx="0.79549515"
       sodipodi:ry="0.79549515"
       d="m 36.150834,33.558914 c 0,0.43934 -0.356155,0.795495 -0.795495,0.795495 -0.43934,0 -0.795495,-0.356155 -0.795495,-0.795495 0,-0.43934 0.356155,-0.795495 0.795495,-0.795495 0.43934,0 0.795495,0.356155 0.795495,0.795495 z"
       transform="matrix(1.44,0,0,-1.44,380.15782,633.9195)" />
    <path
       transform="matrix(1.44,0,0,-1.44,379.95782,644.107)"
       d="m 36.150834,33.558914 c 0,0.43934 -0.356155,0.795495 -0.795495,0.795495 -0.43934,0 -0.795495,-0.356155 -0.795495,-0.795495 0,-0.43934 0.356155,-0.795495 0.795495,-0.795495 0.43934,0 0.795495,0.356155 0.795495,0.795495 z"
       sodipodi:ry="0.79549515"
       sodipodi:rx="0.79549515"
       sodipodi:cy="33.558914"
       sodipodi:cx="35.355339"
       id="path5430"
       style="fill:#000000;fill-opacity:1;stroke:#000000;stroke-width:1;stroke-miterlimit:4;stroke-dasharray:none"
       sodipodi:type="arc" />
    <path
       sodipodi:nodetypes="ccc"
       id="path5432"
       d="m 471.66,666.15952 47.7,0 0,-54.5"
       style="fill:none;stroke:#000000;stroke-width:1;stroke-linecap:butt;stroke-linejoin:miter;stroke-miterlimit:4;stroke-opacity:1;stroke-dasharray:none;marker-end:url(#Arrow1Mend)" />
    <path
       id="path5434"
       d="m 514.36,592.40953 10,5 0,10 -10,5 0,-20 z"
       style="fill:none;stroke:#000000;stroke-width:1px;stroke-linecap:butt;stroke-linejoin:miter;stroke-opacity:1" />
    <path
       style="fill:none;stroke:#000000;stroke-width:1px;stroke-linecap:butt;stroke-linejoin:miter;stroke-opacity:1;marker-start:none;marker-end:url(#Arrow1Mend)"
       d="m 130,95.810023 5,0 0,-36.400004 0,0 9,0"
       id="path5438"
       transform="translate(368.36,548.2495)"
       sodipodi:nodetypes="ccccc" />
    <path
       sodipodi:nodetypes="ccccc"
       id="path6184"
       d="m 498.36,567.90952 5,0 0,29 0,0 9,0"
       style="fill:none;stroke:#000000;stroke-width:1px;stroke-linecap:butt;stroke-linejoin:miter;stroke-opacity:1;marker-start:none;marker-end:url(#Arrow1Mend)" />
    <path
       sodipodi:nodetypes="cc"
       id="path6186"
       d="m 524.36,602.65952 15,0"
       style="fill:none;stroke:#000000;stroke-width:1px;stroke-linecap:butt;stroke-linejoin:miter;stroke-opacity:1;marker-end:url(#Arrow1Mend)" />
    <g
       id="g2899"
       transform="translate(-12.228753,133.38002)">
      <path
         sodipodi:type="arc"
         style="fill:#ffffff;stroke:#000000"
         id="path2901"
         sodipodi:cx="40"
         sodipodi:cy="26.984081"
         sodipodi:rx="10"
         sodipodi:ry="10"
         d="m 50,26.984081 c 0,5.522848 -4.477153,10 -10,10 -5.522847,0 -10,-4.477152 -10,-10 0,-5.522847 4.477153,-10 10,-10 5.522847,0 10,4.477153 10,10 z"
         transform="translate(434,506.3654)" />
      <g
         style="font-style:normal;font-variant:normal;font-weight:normal;font-stretch:normal;letter-spacing:normal;word-spacing:normal;text-anchor:start;fill:none;stroke:#000000;stroke-linecap:butt;stroke-linejoin:miter;stroke-miterlimit:10.43299961;stroke-opacity:1;stroke-dasharray:none;stroke-dashoffset:0"
         ns0:preamble=""
         ns0:text="$\\equiv$\n\n\n\n\n"
         word-spacing="normal"
         letter-spacing="normal"
         font-size-adjust="none"
         font-stretch="normal"
         font-weight="normal"
         font-variant="normal"
         font-style="normal"
         stroke-miterlimit="10.433"
         xml:space="preserve"
         transform="matrix(1,0,0,-1,246.72,1192.8695)"
         id="g2903">
<path
   style="fill:#000000;stroke-width:0"
   id="path2905"
   d="m 230.27,661.46 0.03,0 0.03,0 0.03,0 0.02,0 0.01,0 0.02,0 0.02,0 0.01,0.01 0.01,0 0.02,0 0.01,0 0.02,0.01 0.01,0 0.01,0.01 0.01,0 0.02,0.01 0.01,0.01 0.01,0 0.01,0.01 0.01,0.01 0,0.01 0.01,0.01 0,0 0,0.01 0.01,0 0,0.01 0,0.01 0.01,0 0,0.01 0,0.01 0,0.01 0,0 0,0.01 0,0.01 0.01,0.01 0,0.01 0,0.01 c 0,0.19 -0.18,0.19 -0.35,0.19 h -5.95 c -0.17,0 -0.35,0 -0.35,-0.19 0,-0.2 0.2,-0.2 0.36,-0.2 z" />
<path
   style="fill:#000000;stroke-width:0"
   id="path2907"
   d="m 230.28,657.59 0.03,0 0.03,0 0.03,0 0.02,0 0.01,0 0.02,0.01 0.01,0 0.02,0 0.01,0 0.02,0 0.01,0.01 0.01,0 0.01,0.01 0.02,0 0.01,0.01 0.01,0 0.01,0.01 0.01,0.01 0.01,0.01 0.01,0 0.01,0.01 0,0.01 0,0.01 0.01,0 0,0.01 0,0 0,0.01 0.01,0.01 0,0 0,0.01 0,0.01 0,0.01 0,0 0,0.01 0.01,0.01 0,0.01 0,0.01 c 0,0.2 -0.19,0.2 -0.36,0.2 h -5.93 c -0.16,0 -0.36,0 -0.36,-0.2 0,-0.2 0.18,-0.2 0.35,-0.2 z" />
<path
   style="fill:#000000;stroke-width:0"
   id="path2909"
   d="m 230.28,659.52 0.03,0 0.03,0 0.03,0.01 0.02,0 0.01,0 0.02,0 0.01,0 0.02,0 0.01,0 0.02,0.01 0.01,0 0.01,0 0.01,0.01 0.02,0 0.01,0.01 0.01,0.01 0.01,0 0.01,0.01 0.01,0.01 0.01,0.01 0.01,0.01 0,0 0,0.01 0.01,0 0,0.01 0,0.01 0,0 0.01,0.01 0,0.01 0,0 0,0.01 0,0.01 0,0.01 0,0.01 0.01,0 0,0.01 0,0.01 c 0,0.2 -0.18,0.2 -0.35,0.2 h -5.95 c -0.17,0 -0.35,0 -0.35,-0.2 0,-0.2 0.18,-0.2 0.35,-0.2 z" />
</g>    </g>
    <path
       style="fill:none;stroke:#000000;stroke-width:1;stroke-linecap:butt;stroke-linejoin:miter;stroke-miterlimit:4;stroke-opacity:1;stroke-dasharray:none;marker-end:url(#Arrow1Mend)"
       d="m 368.36,660.85952 83.7,0"
       id="path2911"
       sodipodi:nodetypes="cc" />
    <path
       sodipodi:nodetypes="cc"
       id="path2913"
       d="m 440.76,671.95952 11,0"
       style="fill:none;stroke:#000000;stroke-width:1;stroke-linecap:butt;stroke-linejoin:miter;stroke-miterlimit:4;stroke-opacity:1;stroke-dasharray:none;marker-end:url(#Arrow1Mend)" />
    <g
       style="font-style:normal;font-variant:normal;font-weight:normal;font-stretch:normal;letter-spacing:normal;word-spacing:normal;text-anchor:start;fill:none;stroke:#000000;stroke-linecap:butt;stroke-linejoin:miter;stroke-miterlimit:10.43299961;stroke-opacity:1;stroke-dasharray:none;stroke-dashoffset:0"
       ns0:preamble=""
       ns0:text="$\\mathit{direction}$\n\n\n"
       word-spacing="normal"
       letter-spacing="normal"
       font-size-adjust="none"
       font-stretch="normal"
       font-weight="normal"
       font-variant="normal"
       font-style="normal"
       stroke-miterlimit="10.433"
       xml:space="preserve"
       transform="matrix(1,0,0,-1,143.905,1316.4088)"
       id="g3006">
<path
   id="path3008"
   d="m 228.98,663.9 0,0 0,0 0.01,0.01 0,0 0,0 0,0.01 0,0 0,0.01 0,0 0,0.01 0.01,0.01 0,0.01 0,0.01 0,0.01 0,0 0.01,0 0,0.01 0,0 0,0.01 0,0 0,0.01 0,0 0,0 0,0.01 0,0 0,0 0,0 0,0.01 c 0,0.09 -0.06,0.12 -0.14,0.12 -0.03,0 -0.13,-0.01 -0.16,-0.02 l -0.98,-0.08 c -0.12,-0.01 -0.23,-0.02 -0.23,-0.21 0,-0.11 0.1,-0.11 0.24,-0.11 0.47,0 0.49,-0.07 0.49,-0.17 0,-0.03 -0.02,-0.16 -0.02,-0.17 l -0.58,-2.33 c -0.15,0.31 -0.42,0.58 -0.84,0.58 v -0.22 c 0.08,0 0.31,-0.01 0.49,-0.29 0.1,-0.16 0.2,-0.45 0.2,-0.64 0,-0.03 -0.01,-0.07 -0.03,-0.13 l -0.48,-1.91 c -0.08,-0.31 -0.69,-1.11 -1.24,-1.11 -0.46,0 -0.54,0.59 -0.54,0.89 0,0.5 0.3,1.66 0.48,2.08 0.25,0.61 0.71,1.11 1.12,1.11 v 0.22 c -1.11,0 -2.28,-1.52 -2.28,-2.97 0,-0.85 0.46,-1.55 1.2,-1.55 0.36,0 0.8,0.21 1.2,0.7 0.11,-0.49 0.48,-0.7 0.83,-0.7 0.36,0 0.57,0.25 0.72,0.56 0.18,0.38 0.3,0.96 0.3,0.98 0,0.1 -0.08,0.1 -0.15,0.1 -0.12,0 -0.13,-0.01 -0.19,-0.23 -0.14,-0.56 -0.32,-1.19 -0.66,-1.19 -0.26,0 -0.26,0.27 -0.26,0.41 0,0.07 0,0.22 0.06,0.46 z"
   style="fill:#000000;stroke-width:0" />
<path
   id="path3010"
   d="m 231.82,658.66 0,0 0,0.01 0,0 0,0 0,0.01 0,0 0,0.01 0,0 0,0 0,0.01 0,0 0,0 -0.01,0.01 0,0 0,0 0,0 0,0.01 0,0 -0.01,0 0,0.01 -0.01,0 0,0.01 -0.01,0 0,0 -0.01,0 0,0.01 -0.01,0 0,0 -0.01,0 0,0 -0.01,0 -0.01,0 0,0.01 -0.01,0 -0.01,0 -0.01,0 -0.01,0 -0.02,0 c -0.13,0 -0.13,-0.02 -0.17,-0.17 -0.08,-0.29 -0.35,-1.25 -0.92,-1.25 -0.08,0 -0.22,0.01 -0.22,0.28 0,0.26 0.13,0.59 0.26,0.96 l 0.64,1.7 c 0.09,0.29 0.11,0.37 0.11,0.56 0,0.55 -0.37,0.8 -0.74,0.8 -0.94,0 -1.28,-1.49 -1.28,-1.54 0,-0.1 0.1,-0.1 0.15,-0.1 0.13,0 0.14,0.02 0.18,0.16 0.09,0.33 0.35,1.26 0.93,1.26 0.11,0 0.22,-0.05 0.22,-0.28 0,-0.24 -0.11,-0.53 -0.18,-0.72 l -0.3,-0.83 c -0.13,-0.32 -0.25,-0.65 -0.37,-0.98 -0.14,-0.38 -0.18,-0.49 -0.18,-0.69 0,-0.39 0.24,-0.8 0.76,-0.8 0.93,0 1.26,1.5 1.26,1.54 z"
   style="fill:#000000;stroke-width:0" />
<path
   id="path3012"
   d="m 231.77,663.44 0,0.01 0,0.01 0,0.01 0,0.01 0,0.01 0,0.01 -0.01,0.02 0,0.02 -0.01,0.02 0,0.02 -0.01,0.02 -0.01,0.01 -0.01,0.02 -0.01,0.01 -0.01,0.01 -0.01,0.01 -0.01,0.02 -0.01,0.01 -0.01,0.01 -0.02,0.01 -0.01,0 -0.01,0.01 -0.02,0.01 -0.01,0.01 -0.02,0 -0.01,0.01 -0.01,0 -0.02,0.01 -0.01,0 -0.02,0 -0.01,0 -0.02,0.01 -0.01,0 -0.01,0 -0.02,0 c -0.2,0 -0.47,-0.2 -0.47,-0.48 0,-0.25 0.19,-0.33 0.33,-0.33 0.2,0 0.48,0.19 0.48,0.48 z"
   style="fill:#000000;stroke-width:0" />
<path
   id="path3014"
   d="m 234.15,660.1 0,0 0,0.01 0,0 0,0.01 0.01,0.01 0,0.01 0.01,0.01 0,0.02 0.01,0.01 0,0.02 0.01,0.02 0.01,0.01 0.02,0.05 0.02,0.04 0.02,0.05 0.02,0.05 0.03,0.05 0.03,0.06 0.04,0.06 0.03,0.06 0.04,0.06 0.04,0.06 0.04,0.06 0.05,0.06 0.04,0.06 0.05,0.06 0.06,0.05 0.05,0.06 0.06,0.05 0.06,0.05 0.06,0.04 0.06,0.04 0.04,0.02 0.03,0.01 0.04,0.02 0.03,0.01 0.04,0.01 0.03,0.02 0.04,0 0.04,0.01 0.04,0.01 0.03,0 0.04,0.01 0.04,0 c 0.05,0 0.33,0 0.53,-0.14 -0.35,-0.11 -0.38,-0.43 -0.38,-0.48 0,-0.13 0.09,-0.32 0.35,-0.32 0.18,0 0.49,0.14 0.49,0.53 0,0.52 -0.65,0.63 -0.98,0.63 -0.68,0 -1.04,-0.5 -1.2,-0.72 -0.11,0.53 -0.5,0.72 -0.83,0.72 -0.36,0 -0.56,-0.23 -0.72,-0.53 -0.19,-0.4 -0.32,-0.99 -0.32,-1.01 0,-0.1 0.1,-0.1 0.15,-0.1 0.13,0 0.14,0.01 0.19,0.23 0.18,0.7 0.37,1.19 0.68,1.19 0.26,0 0.26,-0.29 0.26,-0.4 0,-0.16 -0.03,-0.35 -0.07,-0.51 l -0.75,-2.99 c -0.02,-0.06 -0.03,-0.11 -0.03,-0.14 0,-0.11 0.08,-0.26 0.28,-0.26 0.3,0 0.37,0.29 0.39,0.37 z"
   style="fill:#000000;stroke-width:0" />
<path
   id="path3016"
   d="m 237.66,659.53 0.03,0 0.03,0 0.03,0 0.03,0.01 0.04,0 0.04,0 0.04,0 0.04,0 0.04,0 0.05,0.01 0.04,0 0.05,0 0.09,0.01 0.1,0.01 0.1,0.02 0.1,0.01 0.1,0.02 0.11,0.02 0.1,0.02 0.09,0.03 0.05,0.01 0.05,0.02 0.05,0.02 0.04,0.01 c 0.79,0.32 0.79,0.97 0.79,1.04 0,0.46 -0.37,0.85 -1.01,0.85 v -0.22 c 0.4,0 0.63,-0.27 0.63,-0.61 0,-1.06 -1.64,-1.06 -1.97,-1.06 h -0.21 c 0.43,1.64 1.45,1.67 1.55,1.67 v 0.22 c -1.04,0 -2.47,-1.01 -2.47,-2.77 0,-0.9 0.48,-1.75 1.43,-1.75 1.27,0 2.1,1 2.1,1.15 0,0.05 -0.08,0.16 -0.16,0.16 -0.04,0 -0.05,-0.01 -0.13,-0.11 -0.74,-0.94 -1.63,-0.98 -1.8,-0.98 -0.64,0 -0.75,0.71 -0.75,1.1 0,0.38 0.1,0.83 0.17,1.09 z"
   style="fill:#000000;stroke-width:0" />
<path
   id="path3018"
   d="m 243.68,660.99 -0.02,-0.01 -0.02,0 -0.03,0 -0.02,-0.01 -0.02,0 -0.02,-0.01 -0.02,0 -0.01,-0.01 -0.02,-0.01 -0.02,0 -0.01,-0.01 -0.02,-0.01 -0.02,-0.01 -0.01,0 -0.01,-0.01 -0.02,-0.01 -0.01,-0.01 -0.01,-0.01 -0.01,-0.01 -0.02,-0.01 -0.01,-0.01 -0.01,-0.01 -0.02,-0.02 -0.01,-0.02 -0.02,-0.02 -0.01,-0.02 -0.01,-0.02 -0.02,-0.02 -0.01,-0.02 0,-0.02 -0.01,-0.02 -0.01,-0.02 0,-0.02 -0.01,-0.02 0,-0.01 0,-0.02 0,-0.01 -0.01,-0.01 0,-0.02 0,0 0,-0.01 0,0 0,-0.01 0,0 0,0 c 0,-0.16 0.11,-0.32 0.34,-0.32 0.27,0 0.51,0.22 0.51,0.6 0,0.49 -0.43,0.86 -1.07,0.86 -1.23,0 -2.52,-1.42 -2.52,-2.87 0,-0.99 0.59,-1.65 1.47,-1.65 1.27,0 2.1,1 2.1,1.15 0,0.05 -0.08,0.16 -0.16,0.16 -0.04,0 -0.05,-0.01 -0.13,-0.11 -0.74,-0.94 -1.62,-0.98 -1.79,-0.98 -0.54,0 -0.79,0.45 -0.79,1.03 0,0.53 0.27,1.57 0.53,2.05 0.36,0.65 0.86,1 1.3,1 0.11,0 0.56,-0.02 0.71,-0.43 z"
   style="fill:#000000;stroke-width:0" />
<path
   id="path3020"
   d="m 246.52,661.22 h 0.85 c 0.17,0 0.28,0 0.28,0.19 0,0.12 -0.09,0.12 -0.25,0.12 h -0.8 l 0.37,1.47 c 0.04,0.14 0.04,0.16 0.04,0.21 0,0.21 -0.17,0.26 -0.27,0.26 -0.25,0 -0.35,-0.21 -0.39,-0.36 l -0.39,-1.58 h -0.84 c -0.17,0 -0.28,0 -0.28,-0.19 0,-0.12 0.09,-0.12 0.25,-0.12 h 0.79 l -0.72,-2.86 c -0.01,-0.04 -0.04,-0.2 -0.04,-0.34 0,-0.5 0.32,-0.9 0.84,-0.9 1.01,0 1.52,1.49 1.52,1.54 0,0.1 -0.08,0.1 -0.15,0.1 -0.12,0 -0.12,-0.01 -0.2,-0.19 -0.18,-0.48 -0.58,-1.23 -1.15,-1.23 -0.27,0 -0.27,0.25 -0.27,0.41 0,0.07 0,0.23 0.07,0.51 z"
   style="fill:#000000;stroke-width:0" />
<path
   id="path3022"
   d="m 250.54,658.66 -0.01,0 0,0.01 0,0 0,0 0,0.01 0,0 0,0.01 0,0 0,0 0,0.01 0,0 0,0 0,0.01 -0.01,0 0,0 0,0 0,0.01 0,0 -0.01,0 0,0.01 0,0 -0.01,0.01 0,0 -0.01,0 0,0 -0.01,0.01 0,0 -0.01,0 -0.01,0 0,0 -0.01,0 -0.01,0 0,0.01 -0.01,0 0,0 -0.02,0 -0.01,0 -0.01,0 c -0.13,0 -0.13,-0.02 -0.17,-0.17 -0.08,-0.29 -0.35,-1.25 -0.93,-1.25 -0.08,0 -0.22,0.01 -0.22,0.28 0,0.26 0.13,0.59 0.26,0.96 l 0.64,1.7 c 0.1,0.29 0.12,0.37 0.12,0.56 0,0.55 -0.38,0.8 -0.75,0.8 -0.94,0 -1.28,-1.49 -1.28,-1.54 0,-0.1 0.1,-0.1 0.15,-0.1 0.13,0 0.14,0.02 0.18,0.16 0.09,0.33 0.35,1.26 0.93,1.26 0.11,0 0.22,-0.05 0.22,-0.28 0,-0.24 -0.11,-0.53 -0.18,-0.72 l -0.3,-0.83 c -0.13,-0.32 -0.25,-0.65 -0.37,-0.98 -0.14,-0.38 -0.18,-0.49 -0.18,-0.69 0,-0.39 0.24,-0.8 0.76,-0.8 0.94,0 1.27,1.5 1.27,1.54 z"
   style="fill:#000000;stroke-width:0" />
<path
   id="path3024"
   d="m 250.49,663.44 -0.01,0.01 0,0.01 0,0.01 0,0.01 0,0.01 0,0.01 0,0.02 -0.01,0.02 0,0.02 -0.01,0.02 -0.01,0.02 -0.01,0.01 -0.01,0.02 -0.01,0.01 -0.01,0.01 -0.01,0.01 -0.01,0.02 -0.01,0.01 -0.01,0.01 -0.01,0.01 -0.02,0 -0.01,0.01 -0.01,0.01 -0.02,0.01 -0.01,0 -0.02,0.01 -0.01,0 -0.02,0.01 -0.01,0 -0.01,0 -0.02,0 -0.01,0.01 -0.02,0 -0.01,0 -0.01,0 c -0.21,0 -0.48,-0.2 -0.48,-0.48 0,-0.25 0.2,-0.33 0.34,-0.33 0.2,0 0.48,0.19 0.48,0.48 z"
   style="fill:#000000;stroke-width:0" />
<path
   id="path3026"
   d="m 255.37,660 0,0.09 -0.01,0.09 -0.01,0.08 -0.01,0.08 -0.01,0.09 -0.02,0.07 -0.02,0.08 -0.03,0.08 -0.02,0.07 -0.03,0.07 -0.04,0.07 -0.03,0.07 -0.04,0.06 -0.04,0.06 -0.05,0.06 -0.04,0.05 -0.05,0.06 -0.05,0.05 -0.06,0.04 -0.05,0.05 -0.06,0.04 -0.06,0.04 -0.07,0.03 -0.06,0.03 -0.07,0.03 -0.07,0.03 -0.07,0.02 -0.07,0.01 -0.08,0.02 -0.08,0.01 -0.08,0 -0.08,0.01 c -1.23,0 -2.52,-1.42 -2.52,-2.87 0,-1.03 0.63,-1.65 1.46,-1.65 v 0.22 c -0.39,0 -0.76,0.31 -0.76,1.03 0,0.5 0.26,1.6 0.58,2.14 0.37,0.61 0.84,0.91 1.23,0.91 0.49,0 0.77,-0.44 0.77,-1.03 0,-0.43 -0.22,-1.45 -0.54,-2.05 -0.29,-0.55 -0.79,-1 -1.28,-1 h 0 v -0.22 c 1.23,0 2.52,1.42 2.52,2.88 z"
   style="fill:#000000;stroke-width:0" />
<path
   id="path3028"
   d="m 257.68,658.98 0.02,0.08 0.02,0.08 0.02,0.08 0.02,0.08 0.02,0.08 0.02,0.08 0.02,0.08 0.02,0.08 c 0.13,0.51 0.13,0.52 0.3,0.81 0.14,0.24 0.59,0.99 1.34,0.99 0.44,0 0.46,-0.45 0.46,-0.66 0,-0.62 -0.43,-1.8 -0.58,-2.2 -0.12,-0.34 -0.15,-0.43 -0.15,-0.64 0,-0.44 0.27,-0.8 0.75,-0.8 0.93,0 1.27,1.49 1.27,1.54 0,0.1 -0.08,0.1 -0.15,0.1 -0.13,0 -0.13,-0.02 -0.17,-0.17 -0.08,-0.27 -0.35,-1.25 -0.93,-1.25 -0.21,0 -0.22,0.15 -0.22,0.29 0,0.25 0.1,0.51 0.18,0.75 0.2,0.53 0.61,1.64 0.61,2.22 0,0.82 -0.55,1.04 -1.03,1.04 -0.82,0 -1.3,-0.6 -1.43,-0.79 -0.07,0.49 -0.41,0.79 -0.84,0.79 -0.36,0 -0.55,-0.23 -0.71,-0.53 -0.19,-0.4 -0.32,-0.99 -0.32,-1.01 0,-0.1 0.1,-0.1 0.15,-0.1 0.13,0 0.14,0.01 0.19,0.23 0.17,0.7 0.36,1.19 0.67,1.19 0.26,0 0.26,-0.29 0.26,-0.4 0,-0.16 -0.03,-0.35 -0.07,-0.51 l -0.75,-2.99 c -0.02,-0.06 -0.03,-0.11 -0.03,-0.14 0,-0.11 0.09,-0.26 0.28,-0.26 0.12,0 0.29,0.07 0.36,0.26 z"
   style="fill:#000000;stroke-width:0" />
</g>    <g
       id="g3230"
       transform="matrix(1,0,0,-1,202.995,1331.6142)"
       xml:space="preserve"
       stroke-miterlimit="10.433"
       font-style="normal"
       font-variant="normal"
       font-weight="normal"
       font-stretch="normal"
       font-size-adjust="none"
       letter-spacing="normal"
       word-spacing="normal"
       ns0:text="$\\mathit{Up}$\n\n\n\n\n\n\n\n\n"
       ns0:preamble=""
       style="font-style:normal;font-variant:normal;font-weight:normal;font-stretch:normal;letter-spacing:normal;word-spacing:normal;text-anchor:start;fill:none;stroke:#000000;stroke-linecap:butt;stroke-linejoin:miter;stroke-miterlimit:10.43299961;stroke-opacity:1;stroke-dasharray:none;stroke-dashoffset:0">
<path
   d="m 230.76,663.05 0.01,0.03 0.01,0.03 0.01,0.03 0.01,0.02 0.01,0.03 0.01,0.02 0.01,0.03 0.01,0.02 0.03,0.05 0.02,0.04 0.03,0.04 0.03,0.03 0.03,0.04 0.03,0.03 0.03,0.03 0.04,0.02 0.03,0.03 0.04,0.02 0.03,0.02 0.04,0.01 0.04,0.02 0.03,0.01 0.04,0.02 0.04,0.01 0.03,0.01 0.04,0 0.04,0.01 0.03,0.01 0.04,0 0.03,0.01 0.04,0 0.03,0 0.03,0 0.03,0.01 0.03,0 0.03,0 c 0.03,0 0.15,0.01 0.15,0.18 0,0.08 -0.04,0.13 -0.13,0.13 -0.3,0 -0.63,-0.03 -0.94,-0.03 -0.31,0 -0.64,0.03 -0.95,0.03 -0.05,0 -0.18,0 -0.18,-0.19 0,-0.11 0.09,-0.12 0.18,-0.12 0.52,-0.02 0.6,-0.22 0.6,-0.43 0,-0.09 -0.02,-0.16 -0.04,-0.24 l -0.89,-3.55 c -0.32,-1.28 -1.37,-2.19 -2.31,-2.19 -0.52,0 -1.07,0.34 -1.07,1.25 0,0.22 0.05,0.53 0.1,0.76 l 1,4 c 0.08,0.32 0.16,0.4 0.78,0.4 0.21,0 0.3,0 0.3,0.18 0,0.11 -0.07,0.13 -0.14,0.13 -0.37,0 -0.78,-0.03 -1.17,-0.03 -0.4,0 -0.81,0.03 -1.2,0.03 -0.06,0 -0.19,0 -0.19,-0.19 0,-0.12 0.08,-0.12 0.27,-0.12 0.31,0 0.58,0 0.58,-0.17 0,-0.03 0,-0.05 -0.04,-0.19 l -0.96,-3.85 c -0.07,-0.31 -0.07,-0.53 -0.07,-0.63 0,-1.2 0.83,-1.88 1.77,-1.88 1.26,0 2.37,1.3 2.64,2.39 z"
   id="path3232"
   style="fill:#000000;stroke-width:0" />
<path
   d="m 231.73,655.96 -0.01,-0.03 0,-0.03 -0.01,-0.02 -0.01,-0.03 -0.01,-0.02 -0.01,-0.02 0,-0.02 -0.01,-0.02 -0.01,-0.01 -0.01,-0.02 -0.01,-0.01 -0.01,-0.02 -0.02,-0.01 -0.01,-0.01 -0.01,-0.01 -0.02,-0.01 -0.01,-0.01 -0.02,-0.01 -0.01,0 -0.02,-0.01 -0.02,0 -0.02,-0.01 -0.02,0 -0.03,-0.01 -0.02,0 -0.03,0 -0.03,0 -0.02,-0.01 -0.03,0 -0.04,0 -0.03,0 -0.04,0 c -0.09,0 -0.21,0 -0.21,-0.19 0,-0.07 0.05,-0.12 0.12,-0.12 0.27,0 0.56,0.03 0.84,0.03 0.32,0 0.66,-0.03 0.97,-0.03 0.06,0 0.19,0 0.19,0.19 0,0.12 -0.1,0.12 -0.24,0.12 -0.51,0 -0.51,0.06 -0.51,0.16 0,0.06 0.07,0.32 0.11,0.48 l 0.36,1.45 c 0.07,-0.17 0.32,-0.58 0.83,-0.58 l -0.01,0.22 c -0.57,0 -0.67,0.85 -0.67,0.93 0,0.03 0.01,0.06 0.03,0.14 l 0.47,1.88 c 0.08,0.34 0.69,1.13 1.24,1.13 0.45,0 0.55,-0.57 0.55,-0.89 0,-0.42 -0.27,-1.6 -0.56,-2.24 -0.12,-0.25 -0.55,-0.95 -1.06,-0.95 l 0.01,-0.22 c 1.09,0 2.28,1.48 2.28,2.96 0,1.07 -0.6,1.56 -1.2,1.56 -0.49,0 -0.92,-0.36 -1.21,-0.7 -0.11,0.58 -0.56,0.7 -0.81,0.7 -0.36,0 -0.56,-0.23 -0.72,-0.53 -0.19,-0.4 -0.32,-0.99 -0.32,-1.01 0,-0.1 0.1,-0.1 0.15,-0.1 0.13,0 0.14,0.01 0.19,0.23 0.18,0.7 0.37,1.19 0.68,1.19 0.26,0 0.26,-0.29 0.26,-0.4 0,-0.06 0,-0.22 -0.07,-0.5 z"
   id="path3234"
   style="fill:#000000;stroke-width:0" />
</g>    <g
       style="font-style:normal;font-variant:normal;font-weight:normal;font-stretch:normal;letter-spacing:normal;word-spacing:normal;text-anchor:start;fill:none;stroke:#000000;stroke-linecap:butt;stroke-linejoin:miter;stroke-miterlimit:10.43299961;stroke-opacity:1;stroke-dasharray:none;stroke-dashoffset:0"
       ns0:preamble=""
       ns0:text="$\\mathit{wrap}$\n\n"
       word-spacing="normal"
       letter-spacing="normal"
       font-size-adjust="none"
       font-stretch="normal"
       font-weight="normal"
       font-variant="normal"
       font-style="normal"
       stroke-miterlimit="10.433"
       xml:space="preserve"
       transform="matrix(1,0,0,-1,152.685,1249.9995)"
       id="g3434">
<path
   id="path3436"
   d="m 227.22,658.91 -0.01,-0.03 0,-0.03 -0.01,-0.02 -0.01,-0.03 0,-0.02 0,-0.02 -0.01,-0.03 0,-0.02 -0.01,-0.02 0,-0.03 0,-0.02 -0.01,-0.02 0,-0.02 0,-0.02 -0.01,-0.04 0,-0.04 0,-0.04 -0.01,-0.03 0,-0.03 0,-0.04 0,-0.03 0,-0.02 0,-0.03 c 0,-0.11 -0.31,-0.94 -0.84,-0.94 -0.7,0 -0.7,0.74 -0.7,0.87 0,0.54 0.26,1.27 0.57,2.09 0.07,0.19 0.12,0.34 0.12,0.53 0,0.5 -0.33,0.81 -0.75,0.81 -0.93,0 -1.28,-1.48 -1.28,-1.54 0,-0.1 0.1,-0.1 0.15,-0.1 0.13,0 0.14,0.02 0.18,0.16 0.08,0.31 0.35,1.26 0.92,1.26 0.11,0 0.22,-0.03 0.22,-0.29 0,-0.24 -0.1,-0.51 -0.24,-0.9 -0.49,-1.35 -0.49,-1.61 -0.49,-1.88 0,-0.34 0.08,-0.68 0.34,-0.92 0.31,-0.28 0.76,-0.31 0.93,-0.31 0.32,0 0.67,0.13 0.97,0.64 0.15,-0.37 0.55,-0.64 1.13,-0.64 0.6,0 1.02,0.41 1.32,1.12 0.3,0.68 0.69,2.21 0.69,2.74 0,0.35 -0.12,0.66 -0.41,0.66 -0.23,0 -0.48,-0.23 -0.48,-0.46 0,-0.13 0.07,-0.2 0.13,-0.27 0.24,-0.26 0.27,-0.58 0.27,-0.79 0,-0.4 -0.32,-1.44 -0.49,-1.85 -0.22,-0.52 -0.54,-0.93 -1,-0.93 -0.49,0 -0.65,0.41 -0.65,0.83 0,0.09 0.01,0.33 0.12,0.77 l 0.41,1.67 c 0.06,0.22 0.16,0.62 0.16,0.66 0,0.11 -0.08,0.26 -0.28,0.26 -0.28,0 -0.35,-0.27 -0.37,-0.35 z"
   style="fill:#000000;stroke-width:0" />
<path
   id="path3438"
   d="m 232.62,660.1 0,0 0,0.01 0,0 0,0.01 0.01,0.01 0,0.01 0.01,0.01 0,0.02 0.01,0.01 0,0.02 0.01,0.02 0.01,0.01 0.02,0.05 0.02,0.04 0.02,0.05 0.02,0.05 0.03,0.05 0.03,0.06 0.04,0.06 0.03,0.06 0.04,0.06 0.04,0.06 0.04,0.06 0.05,0.06 0.04,0.06 0.05,0.06 0.06,0.05 0.05,0.06 0.06,0.05 0.06,0.05 0.06,0.04 0.06,0.04 0.04,0.02 0.03,0.01 0.04,0.02 0.03,0.01 0.04,0.01 0.03,0.02 0.04,0 0.04,0.01 0.04,0.01 0.03,0 0.04,0.01 0.04,0 c 0.05,0 0.33,0 0.53,-0.14 -0.35,-0.11 -0.38,-0.43 -0.38,-0.48 0,-0.13 0.09,-0.32 0.35,-0.32 0.18,0 0.49,0.14 0.49,0.53 0,0.52 -0.65,0.63 -0.98,0.63 -0.68,0 -1.04,-0.5 -1.2,-0.72 -0.11,0.53 -0.5,0.72 -0.83,0.72 -0.36,0 -0.56,-0.23 -0.72,-0.53 -0.19,-0.4 -0.32,-0.99 -0.32,-1.01 0,-0.1 0.1,-0.1 0.15,-0.1 0.13,0 0.14,0.01 0.19,0.23 0.18,0.7 0.37,1.19 0.68,1.19 0.26,0 0.26,-0.29 0.26,-0.4 0,-0.16 -0.03,-0.35 -0.07,-0.51 l -0.75,-2.99 c -0.02,-0.06 -0.03,-0.11 -0.03,-0.14 0,-0.11 0.08,-0.26 0.28,-0.26 0.3,0 0.37,0.29 0.39,0.37 z"
   style="fill:#000000;stroke-width:0" />
<path
   id="path3440"
   d="m 237.22,657.82 0.01,-0.04 0.02,-0.05 0.01,-0.04 0.01,-0.04 0.02,-0.04 0.02,-0.04 0.02,-0.03 0.02,-0.03 0.02,-0.04 0.02,-0.03 0.03,-0.03 0.02,-0.03 0.03,-0.02 0.02,-0.03 0.03,-0.02 0.03,-0.02 0.02,-0.02 0.03,-0.02 0.03,-0.02 0.03,-0.02 0.03,-0.01 0.03,-0.01 0.04,-0.02 0.03,-0.01 0.03,-0.01 0.03,0 0.04,-0.01 0.03,-0.01 0.03,0 0.03,0 0.04,-0.01 0.03,0 c 0.37,0 0.58,0.25 0.73,0.56 0.18,0.38 0.29,0.96 0.29,0.98 0,0.1 -0.08,0.1 -0.14,0.1 -0.12,0 -0.13,-0.01 -0.19,-0.23 -0.14,-0.56 -0.33,-1.19 -0.67,-1.19 -0.26,0 -0.26,0.27 -0.26,0.41 0,0.07 0,0.23 0.07,0.51 l 0.68,2.71 c 0.04,0.14 0.04,0.16 0.04,0.21 0,0.21 -0.17,0.26 -0.27,0.26 -0.32,0 -0.39,-0.34 -0.4,-0.39 -0.19,0.43 -0.51,0.59 -0.83,0.59 v -0.22 c 0.44,0 0.69,-0.52 0.69,-0.94 0,-0.02 -0.01,-0.07 -0.03,-0.13 h 0 l -0.47,-1.88 c -0.08,-0.32 -0.7,-1.13 -1.24,-1.13 -0.47,0 -0.55,0.59 -0.55,0.89 0,0.5 0.31,1.66 0.49,2.08 0.25,0.61 0.7,1.11 1.11,1.11 v 0.22 c -1.1,0 -2.28,-1.52 -2.28,-2.97 0,-0.85 0.46,-1.55 1.21,-1.55 0.35,0 0.79,0.21 1.19,0.7 z"
   style="fill:#000000;stroke-width:0" />
<path
   id="path3442"
   d="m 239.73,655.96 0,-0.03 -0.01,-0.03 -0.01,-0.02 -0.01,-0.03 0,-0.02 -0.01,-0.02 -0.01,-0.02 -0.01,-0.02 -0.01,-0.01 -0.01,-0.02 -0.01,-0.01 -0.01,-0.02 -0.01,-0.01 -0.02,-0.01 -0.01,-0.01 -0.01,-0.01 -0.02,-0.01 -0.02,-0.01 -0.01,0 -0.02,-0.01 -0.02,0 -0.02,-0.01 -0.02,0 -0.03,-0.01 -0.02,0 -0.03,0 -0.02,0 -0.03,-0.01 -0.03,0 -0.03,0 -0.04,0 -0.03,0 c -0.09,0 -0.21,0 -0.21,-0.19 0,-0.07 0.05,-0.12 0.12,-0.12 0.27,0 0.55,0.03 0.83,0.03 0.32,0 0.66,-0.03 0.97,-0.03 0.06,0 0.19,0 0.19,0.19 0,0.12 -0.1,0.12 -0.24,0.12 -0.51,0 -0.51,0.06 -0.51,0.16 0,0.06 0.07,0.32 0.11,0.48 l 0.36,1.45 c 0.07,-0.17 0.32,-0.58 0.84,-0.58 l -0.01,0.22 c -0.58,0 -0.68,0.85 -0.68,0.93 0,0.03 0.01,0.06 0.03,0.14 l 0.47,1.88 c 0.08,0.34 0.69,1.13 1.24,1.13 0.45,0 0.55,-0.57 0.55,-0.89 0,-0.42 -0.27,-1.6 -0.56,-2.24 -0.12,-0.25 -0.54,-0.95 -1.05,-0.95 l 0.01,-0.22 c 1.08,0 2.27,1.48 2.27,2.96 0,1.07 -0.6,1.56 -1.2,1.56 -0.48,0 -0.91,-0.36 -1.2,-0.7 -0.12,0.58 -0.57,0.7 -0.82,0.7 -0.36,0 -0.56,-0.23 -0.72,-0.53 -0.19,-0.4 -0.32,-0.99 -0.32,-1.01 0,-0.1 0.1,-0.1 0.15,-0.1 0.13,0 0.14,0.01 0.19,0.23 0.18,0.7 0.37,1.19 0.68,1.19 0.26,0 0.26,-0.29 0.26,-0.4 0,-0.06 0,-0.22 -0.07,-0.5 z"
   style="fill:#000000;stroke-width:0" />
</g>    <g
       id="content"
       transform="matrix(1,0,0,-1,160.5,1240.6404)"
       xml:space="preserve"
       stroke-miterlimit="10.433"
       font-style="normal"
       font-variant="normal"
       font-weight="normal"
       font-stretch="normal"
       font-size-adjust="none"
       letter-spacing="normal"
       word-spacing="normal"
       ns0:text="$\\mathit{x}$\n\n"
       ns0:preamble=""
       style="font-style:normal;font-variant:normal;font-weight:normal;font-stretch:normal;letter-spacing:normal;word-spacing:normal;text-anchor:start;fill:none;stroke:#000000;stroke-linecap:butt;stroke-linejoin:miter;stroke-miterlimit:10.43299961;stroke-opacity:1;stroke-dasharray:none;stroke-dashoffset:0">
<path
   d="m 228.15,661.28 -0.01,-0.01 -0.02,0 -0.02,-0.01 -0.02,0 -0.01,-0.01 -0.02,-0.01 -0.01,0 -0.02,-0.01 -0.01,-0.01 -0.01,-0.01 -0.02,0 -0.01,-0.01 -0.01,-0.01 -0.01,-0.01 -0.01,-0.01 -0.02,-0.01 -0.01,-0.01 -0.01,-0.01 -0.01,-0.02 -0.02,-0.02 -0.02,-0.02 -0.01,-0.02 -0.01,-0.02 -0.01,-0.02 -0.01,-0.02 -0.01,-0.02 -0.01,-0.01 -0.01,-0.02 0,-0.02 -0.01,-0.02 0,-0.02 -0.01,-0.01 0,-0.02 0,-0.01 0,-0.01 0,-0.01 0,-0.01 0,-0.01 0,0 0,-0.01 0,0 0,0 0,0 0,0 c 0,-0.13 0.09,-0.32 0.34,-0.32 0.18,0 0.49,0.14 0.49,0.53 0,0.51 -0.58,0.63 -0.86,0.63 -0.55,0 -0.88,-0.49 -0.98,-0.68 -0.22,0.6 -0.71,0.68 -0.96,0.68 -0.99,0 -1.53,-1.31 -1.53,-1.54 0,-0.1 0.1,-0.1 0.15,-0.1 0.13,0 0.13,0.01 0.18,0.17 0.27,0.86 0.79,1.25 1.18,1.25 0.29,0 0.48,-0.23 0.48,-0.63 0,-0.24 -0.12,-0.73 -0.21,-1.1 -0.11,-0.41 -0.12,-0.45 -0.23,-0.9 -0.16,-0.65 -0.36,-1.45 -0.96,-1.45 -0.03,0 -0.27,0 -0.44,0.14 0.3,0.08 0.39,0.33 0.39,0.48 0,0.26 -0.21,0.32 -0.34,0.32 -0.25,0 -0.5,-0.21 -0.5,-0.54 0,-0.39 0.42,-0.62 0.88,-0.62 0.48,0 0.8,0.38 0.97,0.68 0.2,-0.57 0.69,-0.68 0.95,-0.68 1.03,0 1.53,1.34 1.53,1.54 0,0.1 -0.08,0.1 -0.14,0.1 -0.13,0 -0.14,-0.01 -0.19,-0.17 -0.26,-0.86 -0.76,-1.25 -1.18,-1.25 -0.2,0 -0.47,0.12 -0.47,0.64 0,0.24 0.11,0.67 0.19,1.01 0.11,0.41 0.26,1.03 0.34,1.36 0.14,0.52 0.41,1.07 0.88,1.07 0.03,0 0.27,0 0.43,-0.14 z"
   id="path3649"
   style="fill:#000000;stroke-width:0" />
</g>    <g
       style="font-style:normal;font-variant:normal;font-weight:normal;font-stretch:normal;letter-spacing:normal;word-spacing:normal;text-anchor:start;fill:none;stroke:#000000;stroke-linecap:butt;stroke-linejoin:miter;stroke-miterlimit:10.43299961;stroke-opacity:1;stroke-dasharray:none;stroke-dashoffset:0"
       ns0:preamble=""
       ns0:text="$\\mathbf{counter}$\n\n\n"
       word-spacing="normal"
       letter-spacing="normal"
       font-size-adjust="none"
       font-stretch="normal"
       font-weight="normal"
       font-variant="normal"
       font-style="normal"
       stroke-miterlimit="10.433"
       xml:space="preserve"
       transform="matrix(1,0,0,-1,225.38585,1202.9395)"
       id="g3850">
<path
   id="path3852"
   d="m 227.02,661.29 -0.02,-0.02 -0.01,-0.01 -0.02,-0.02 -0.01,-0.01 -0.01,-0.02 -0.02,-0.02 -0.01,-0.01 -0.01,-0.02 -0.01,-0.02 -0.01,-0.01 0,-0.02 -0.01,-0.01 -0.01,-0.02 -0.01,-0.02 0,-0.01 -0.01,-0.02 0,-0.01 -0.01,-0.02 0,-0.01 0,-0.02 -0.01,-0.01 0,-0.02 0,-0.01 0,-0.01 -0.01,-0.02 0,-0.01 0,-0.01 0,-0.01 0,-0.01 0,-0.01 0,-0.01 0,-0.01 c 0,-0.44 0.35,-0.63 0.62,-0.63 0.31,0 0.63,0.21 0.63,0.63 0,0.86 -1.16,0.92 -1.74,0.92 -1.78,0 -2.52,-1.15 -2.52,-2.31 0,-1.32 0.94,-2.27 2.47,-2.27 1.62,0 1.92,1.16 1.92,1.23 0,0.14 -0.15,0.14 -0.24,0.14 -0.18,0 -0.19,-0.02 -0.24,-0.15 -0.26,-0.63 -0.74,-0.82 -1.25,-0.82 -1.38,0 -1.38,1.47 -1.38,1.92 0,0.56 0,1.86 1.28,1.86 0.35,0 0.52,-0.03 0.65,-0.06 z"
   style="fill:#000000;stroke-width:0" />
<path
   id="path3854"
   d="m 233.93,659.4 -0.01,0.13 -0.01,0.12 -0.01,0.12 -0.02,0.12 -0.02,0.11 -0.03,0.12 -0.03,0.11 -0.04,0.1 -0.05,0.11 -0.05,0.1 -0.05,0.1 -0.06,0.09 -0.06,0.09 -0.07,0.09 -0.08,0.09 -0.08,0.08 -0.08,0.07 -0.09,0.07 -0.09,0.07 -0.1,0.07 -0.1,0.06 -0.11,0.05 -0.11,0.05 -0.11,0.05 -0.12,0.04 -0.13,0.03 -0.13,0.03 -0.13,0.03 -0.14,0.02 -0.14,0.01 -0.15,0.01 -0.15,0.01 v -0.36 c 0.42,0 0.84,-0.16 1.06,-0.51 0.21,-0.34 0.21,-0.89 0.21,-1.37 0,-0.86 0,-1.94 -1.27,-1.94 h 0 c -1.26,0 -1.26,1.08 -1.26,1.94 0,0.45 0,0.96 0.17,1.3 0.19,0.37 0.61,0.58 1.09,0.58 v 0.36 c -1.63,0 -2.54,-1.02 -2.54,-2.35 0,-1.23 0.88,-2.23 2.54,-2.23 1.68,0 2.55,1.01 2.55,2.23 z"
   style="fill:#000000;stroke-width:0" />
<path
   id="path3856"
   d="m 238.62,657.95 v -0.78 l 1.76,0.06 v 0.47 c -0.62,0 -0.68,0 -0.68,0.39 v 3.63 l -1.83,-0.08 v -0.47 c 0.62,0 0.69,0 0.69,-0.39 v -1.9 c 0,-0.82 -0.51,-1.35 -1.24,-1.35 -0.76,0 -0.79,0.25 -0.79,0.79 v 3.4 l -1.83,-0.08 v -0.47 c 0.62,0 0.69,0 0.69,-0.39 v -2.32 c 0,-1.07 0.81,-1.29 1.79,-1.29 0.26,0 0.98,0 1.44,0.78 z"
   style="fill:#000000;stroke-width:0" />
<path
   id="path3858"
   d="m 241.75,660.78 v -3.08 h -0.69 v -0.47 c 0.28,0.01 0.88,0.03 1.26,0.03 0.39,0 0.97,-0.02 1.25,-0.03 v 0.47 h -0.68 v 2.08 c 0,1.09 0.85,1.58 1.48,1.58 0.34,0 0.55,-0.21 0.55,-0.97 v -2.69 h -0.69 v -0.47 c 0.28,0.01 0.88,0.03 1.26,0.03 0.39,0 0.97,-0.02 1.25,-0.03 v 0.47 h -0.69 v 2.58 c 0,1.05 -0.53,1.44 -1.53,1.44 -0.96,0 -1.48,-0.57 -1.74,-1.08 v 1.08 l -1.72,-0.08 v -0.47 c 0.62,0 0.69,0 0.69,-0.39 z"
   style="fill:#000000;stroke-width:0" />
<path
   id="path3860"
   d="m 247.69,661.19 v -2.73 c 0,-1.07 0.87,-1.29 1.58,-1.29 0.75,0 1.2,0.57 1.2,1.3 V 659 h -0.46 v -0.51 c 0,-0.68 -0.32,-0.92 -0.6,-0.92 -0.58,0 -0.58,0.64 -0.58,0.87 v 2.75 h 1.45 v 0.47 h -1.45 v 1.9 h -0.47 c -0.01,-1 -0.5,-1.98 -1.48,-2.01 v -0.36 z"
   style="fill:#000000;stroke-width:0" />
<path
   id="path3862"
   d="m 255.73,659.4 0.02,0 0.01,0 0.02,0 0.02,0 0.02,0.01 0.02,0 0.01,0 0.02,0 0.01,0 0.02,0 0.01,0 0.01,0.01 0.01,0 0.02,0.01 0.01,0 0.01,0.01 0.01,0 0,0.01 0.01,0.01 0.01,0.01 0.01,0.01 0,0.01 0.01,0.01 0,0 0,0.01 0,0.01 0.01,0 0,0.01 0,0.01 0,0.01 0.01,0.01 0,0.01 0,0 0,0.01 0,0.01 0,0.01 0,0.01 0,0.02 0,0.01 0,0.01 0,0.01 0,0.01 c 0,0.31 -0.06,1.04 -0.55,1.54 -0.37,0.36 -0.9,0.54 -1.59,0.54 -1.59,0 -2.46,-1.03 -2.46,-2.28 0,-1.33 1,-2.3 2.6,-2.3 1.58,0 2,1.06 2,1.23 0,0.18 -0.19,0.18 -0.24,0.18 -0.16,0 -0.18,-0.05 -0.24,-0.21 -0.21,-0.48 -0.78,-0.8 -1.43,-0.8 -1.4,0 -1.41,1.33 -1.41,1.83 v 0.33 c 0.02,0.39 0.03,0.81 0.24,1.14 0.25,0.4 0.65,0.52 0.94,0.52 1.17,0 1.19,-1.31 1.2,-1.66 h -2.38 v -0.33 z"
   style="fill:#000000;stroke-width:0" />
<path
   id="path3864"
   d="m 258.39,660.59 v 1.13 l -1.65,-0.08 v -0.47 c 0.62,0 0.69,0 0.69,-0.39 v -3.08 h -0.69 v -0.47 c 0.35,0.01 0.8,0.03 1.26,0.03 0.38,0 1.01,0 1.37,-0.03 v 0.47 h -0.86 v 1.74 c 0,0.7 0.24,1.92 1.24,1.92 -0.01,-0.01 -0.19,-0.17 -0.19,-0.46 0,-0.41 0.32,-0.61 0.61,-0.61 0.29,0 0.61,0.21 0.61,0.61 0,0.53 -0.54,0.82 -1.06,0.82 -0.7,0 -1.1,-0.5 -1.33,-1.13 z"
   style="fill:#000000;stroke-width:0" />
</g>    <g
       id="g4073"
       transform="matrix(1,0,0,-1,234.46625,1250.2495)"
       xml:space="preserve"
       stroke-miterlimit="10.433"
       font-style="normal"
       font-variant="normal"
       font-weight="normal"
       font-stretch="normal"
       font-size-adjust="none"
       letter-spacing="normal"
       word-spacing="normal"
       ns0:text="$&lt;$\n\n\n\n\n\n"
       ns0:preamble=""
       style="font-style:normal;font-variant:normal;font-weight:normal;font-stretch:normal;letter-spacing:normal;word-spacing:normal;text-anchor:start;fill:none;stroke:#000000;stroke-linecap:butt;stroke-linejoin:miter;stroke-miterlimit:10.43299961;stroke-opacity:1;stroke-dasharray:none;stroke-dashoffset:0">
<path
   style="fill:#000000;stroke-width:0"
   d="m 230.16,662.19 0.01,0.01 0.01,0.01 0.01,0 0.01,0.01 0.01,0 0.01,0.01 0.01,0 0.01,0.01 0.01,0 0,0.01 0.01,0 0.01,0.01 0.01,0.01 0,0 0.01,0.01 0.01,0 0,0.01 0.01,0.01 0,0 0.01,0.01 0,0.01 0.01,0.01 0,0 0,0.01 0.01,0.01 0,0.01 0,0.01 0,0 0.01,0.01 0,0.01 0,0.01 0,0.01 c 0,0.11 -0.09,0.2 -0.2,0.2 -0.03,0 -0.05,0 -0.18,-0.07 l -5.52,-2.6 c -0.11,-0.05 -0.19,-0.1 -0.19,-0.22 0,-0.12 0.08,-0.17 0.19,-0.22 l 5.52,-2.6 c 0.13,-0.07 0.15,-0.07 0.18,-0.07 0.11,0 0.2,0.09 0.2,0.2 0,0.11 -0.07,0.16 -0.19,0.22 l -5.23,2.47 z"
   id="path4075" />
</g>    <path
       sodipodi:nodetypes="cc"
       id="path4960"
       d="m 368.46,595.62952 82.3,0"
       style="fill:none;stroke:#000000;stroke-width:1px;stroke-linecap:butt;stroke-linejoin:miter;stroke-opacity:1;marker-end:url(#Arrow1Mend)" />
    <path
       style="fill:none;stroke:#000000;stroke-width:1px;stroke-linecap:butt;stroke-linejoin:miter;stroke-opacity:1;marker-end:url(#Arrow1Mend)"
       d="m 439.56,567.65952 12,0"
       id="path4962"
       sodipodi:nodetypes="cc" />
    <g
       style="font-style:normal;font-variant:normal;font-weight:normal;font-stretch:normal;letter-spacing:normal;word-spacing:normal;text-anchor:start;fill:none;stroke:#000000;stroke-linecap:butt;stroke-linejoin:miter;stroke-miterlimit:10.43299961;stroke-opacity:1;stroke-dasharray:none;stroke-dashoffset:0"
       ns0:preamble=""
       ns0:text="$1$\n\n\n\n\n\n"
       word-spacing="normal"
       letter-spacing="normal"
       font-size-adjust="none"
       font-stretch="normal"
       font-weight="normal"
       font-variant="normal"
       font-style="normal"
       stroke-miterlimit="10.433"
       xml:space="preserve"
       transform="matrix(1,0,0,-1,210.73,1227.8495)"
       id="g5070">
<path
   id="path5072"
   d="m 226.36,663.61 0,0.01 0,0.01 0,0.01 0,0.01 0,0.01 0,0.01 0,0.01 0,0.01 0,0.01 0,0.01 0,0 0,0.01 0,0.01 0,0.01 0,0 0,0.01 0,0.01 0,0 -0.01,0.01 0,0.02 0,0.01 0,0.01 -0.01,0 0,0.01 -0.01,0.01 0,0 -0.01,0.01 -0.01,0 0,0.01 -0.01,0 -0.01,0 0,0.01 -0.01,0 0,0 -0.01,0 -0.01,0 0,0 -0.01,0 0,0 -0.01,0 -0.01,0.01 -0.01,0 0,0 -0.01,0 -0.01,0 -0.01,0 -0.01,0 -0.01,0 -0.01,0 -0.01,0 -0.01,0 -0.01,0 c -0.62,-0.64 -1.49,-0.64 -1.81,-0.64 v -0.31 c 0.2,0 0.79,0 1.3,0.26 v -5.16 c 0,-0.36 -0.03,-0.48 -0.92,-0.48 h -0.32 v -0.31 c 0.35,0.03 1.21,0.03 1.61,0.03 0.4,0 1.27,0 1.62,-0.03 v 0.31 h -0.32 c -0.9,0 -0.93,0.11 -0.93,0.48 z"
   style="fill:#000000;stroke-width:0" />
</g>    <g
       id="g5280"
       transform="matrix(1,0,0,-1,234.46625,1274.2145)"
       xml:space="preserve"
       stroke-miterlimit="10.433"
       font-style="normal"
       font-variant="normal"
       font-weight="normal"
       font-stretch="normal"
       font-size-adjust="none"
       letter-spacing="normal"
       word-spacing="normal"
       ns0:text="$&gt;$\n\n\n\n\n\n"
       ns0:preamble=""
       style="font-style:normal;font-variant:normal;font-weight:normal;font-stretch:normal;letter-spacing:normal;word-spacing:normal;text-anchor:start;fill:none;stroke:#000000;stroke-linecap:butt;stroke-linejoin:miter;stroke-miterlimit:10.43299961;stroke-opacity:1;stroke-dasharray:none;stroke-dashoffset:0">
<path
   style="fill:#000000;stroke-width:0"
   d="m 230.16,659.5 0.02,0.01 0.01,0.01 0.01,0 0.01,0.01 0.01,0 0,0.01 0.01,0 0.01,0.01 0.01,0 0.01,0.01 0.01,0 0,0.01 0.01,0.01 0.01,0 0,0.01 0.01,0 0.01,0.01 0,0.01 0.01,0 0,0.01 0.01,0.01 0,0.01 0,0.01 0.01,0 0,0.01 0,0.01 0,0.01 0,0.01 0.01,0.01 0,0.01 0,0.01 c 0,0.12 -0.08,0.17 -0.19,0.22 l -5.52,2.6 c -0.13,0.07 -0.15,0.07 -0.18,0.07 -0.11,0 -0.2,-0.09 -0.2,-0.2 0,-0.09 0.05,-0.15 0.19,-0.22 l 5.23,-2.47 -5.23,-2.47 c -0.14,-0.07 -0.19,-0.13 -0.19,-0.22 0,-0.11 0.09,-0.2 0.2,-0.2 0.03,0 0.05,0 0.18,0.07 z"
   id="path5282" />
</g>    <path
       style="fill:none;stroke:#000000;stroke-width:1px;stroke-linecap:butt;stroke-linejoin:miter;stroke-opacity:1;marker-end:url(#Arrow1Mend)"
       d="m 439.06,619.65952 12,0"
       id="path5383"
       sodipodi:nodetypes="cc" />
    <g
       id="g5385"
       transform="matrix(1,0,0,-1,210.23,1279.8495)"
       xml:space="preserve"
       stroke-miterlimit="10.433"
       font-style="normal"
       font-variant="normal"
       font-weight="normal"
       font-stretch="normal"
       font-size-adjust="none"
       letter-spacing="normal"
       word-spacing="normal"
       ns0:text="$0$\n\n\n\n\n"
       ns0:preamble=""
       style="font-style:normal;font-variant:normal;font-weight:normal;font-stretch:normal;letter-spacing:normal;word-spacing:normal;text-anchor:start;fill:none;stroke:#000000;stroke-linecap:butt;stroke-linejoin:miter;stroke-miterlimit:10.43299961;stroke-opacity:1;stroke-dasharray:none;stroke-dashoffset:0">
<path
   style="fill:#000000;stroke-width:0"
   d="m 228.01,660.42 0,0.15 0,0.15 0,0.15 -0.01,0.15 -0.01,0.15 -0.01,0.14 -0.01,0.15 -0.02,0.15 -0.03,0.15 -0.02,0.14 -0.04,0.15 -0.03,0.14 -0.05,0.14 -0.05,0.14 -0.05,0.14 -0.03,0.07 -0.03,0.07 c -0.46,0.96 -1.28,1.12 -1.7,1.12 -0.6,0 -1.32,-0.26 -1.73,-1.19 -0.32,-0.69 -0.37,-1.46 -0.37,-2.26 0,-0.75 0.04,-1.64 0.45,-2.4 0.43,-0.81 1.16,-1.01 1.64,-1.01 v 0.22 c -0.39,0 -0.97,0.25 -1.15,1.21 -0.11,0.6 -0.11,1.51 -0.11,2.1 0,0.64 0,1.3 0.08,1.83 0.19,1.19 0.93,1.28 1.18,1.28 0.33,0 0.99,-0.18 1.18,-1.17 0.1,-0.56 0.1,-1.31 0.1,-1.94 0,-0.75 0,-1.43 -0.11,-2.06 -0.15,-0.95 -0.72,-1.25 -1.17,-1.25 h 0 v -0.22 c 0.54,0 1.3,0.21 1.74,1.16 0.31,0.69 0.36,1.46 0.36,2.25 z"
   id="path5387" />
</g>    <path
       sodipodi:nodetypes="cc"
       id="path5389"
       d="m 439.56,643.75956 12,0"
       style="fill:none;stroke:#000000;stroke-width:1px;stroke-linecap:butt;stroke-linejoin:miter;stroke-opacity:1;marker-end:url(#Arrow1Mend)" />
    <g
       id="g5391"
       transform="matrix(1,0,0,-1,210.73,1303.9495)"
       xml:space="preserve"
       stroke-miterlimit="10.433"
       font-style="normal"
       font-variant="normal"
       font-weight="normal"
       font-stretch="normal"
       font-size-adjust="none"
       letter-spacing="normal"
       word-spacing="normal"
       ns0:text="$1$\n\n\n\n\n\n"
       ns0:preamble=""
       style="font-style:normal;font-variant:normal;font-weight:normal;font-stretch:normal;letter-spacing:normal;word-spacing:normal;text-anchor:start;fill:none;stroke:#000000;stroke-linecap:butt;stroke-linejoin:miter;stroke-miterlimit:10.43299961;stroke-opacity:1;stroke-dasharray:none;stroke-dashoffset:0">
<path
   style="fill:#000000;stroke-width:0"
   d="m 226.36,663.61 0,0.01 0,0.01 0,0.01 0,0.01 0,0.01 0,0.01 0,0.01 0,0.01 0,0.01 0,0.01 0,0 0,0.01 0,0.01 0,0.01 0,0 0,0.01 0,0.01 0,0 -0.01,0.01 0,0.02 0,0.01 0,0.01 -0.01,0 0,0.01 -0.01,0.01 0,0 -0.01,0.01 -0.01,0 0,0.01 -0.01,0 -0.01,0 0,0.01 -0.01,0 0,0 -0.01,0 -0.01,0 0,0 -0.01,0 0,0 -0.01,0 -0.01,0.01 -0.01,0 0,0 -0.01,0 -0.01,0 -0.01,0 -0.01,0 -0.01,0 -0.01,0 -0.01,0 -0.01,0 -0.01,0 c -0.62,-0.64 -1.49,-0.64 -1.81,-0.64 v -0.31 c 0.2,0 0.79,0 1.3,0.26 v -5.16 c 0,-0.36 -0.03,-0.48 -0.92,-0.48 h -0.32 v -0.31 c 0.35,0.03 1.21,0.03 1.61,0.03 0.4,0 1.27,0 1.62,-0.03 v 0.31 h -0.32 c -0.9,0 -0.93,0.11 -0.93,0.48 z"
   id="path5393" />
</g>    <g
       id="g5602"
       transform="translate(0,2)">
      <path
         sodipodi:type="arc"
         style="fill:#ffffff;stroke:#000000"
         id="path5384"
         sodipodi:cx="40"
         sodipodi:cy="26.984081"
         sodipodi:rx="10"
         sodipodi:ry="10"
         d="m 50,26.984081 c 0,5.522848 -4.477153,10 -10,10 -5.522847,0 -10,-4.477152 -10,-10 0,-5.522847 4.477153,-10 10,-10 5.522847,0 10,4.477153 10,10 z"
         transform="matrix(1,0,0,-1,421.77125,663.6437)" />
      <g
         id="g5500"
         transform="translate(234.46625,-23.060381)"
         xml:space="preserve"
         stroke-miterlimit="10.433"
         font-style="normal"
         font-variant="normal"
         font-weight="normal"
         font-stretch="normal"
         font-size-adjust="none"
         letter-spacing="normal"
         word-spacing="normal"
         ns0:text="$\\mathbf{-}$\n\n\n"
         ns0:preamble=""
         style="font-style:normal;font-variant:normal;font-weight:normal;font-stretch:normal;letter-spacing:normal;word-spacing:normal;text-anchor:start;fill:none;stroke:#000000;stroke-linecap:butt;stroke-linejoin:miter;stroke-miterlimit:10.43299961;stroke-opacity:1;stroke-dasharray:none;stroke-dashoffset:0">
<path
   style="fill:#000000;stroke-width:0"
   d="m 230,659.52 0.03,0 0.03,0 0.03,0.01 0.02,0 0.01,0 0.02,0 0.01,0 0.02,0 0.01,0 0.02,0.01 0.01,0 0.01,0 0.02,0.01 0.01,0 0.01,0.01 0.01,0.01 0.01,0 0.01,0.01 0.01,0.01 0.01,0.01 0.01,0.01 0,0 0,0.01 0.01,0 0,0.01 0,0.01 0,0 0.01,0.01 0,0.01 0,0 0,0.01 0,0.01 0,0.01 0.01,0.01 0,0 0,0.01 0,0.01 c 0,0.2 -0.18,0.2 -0.35,0.2 h -5.39 c -0.17,0 -0.35,0 -0.35,-0.2 0,-0.2 0.18,-0.2 0.35,-0.2 z"
   id="path5502" />
</g>    </g>
  </g>
</svg>
