<?xml version="1.0" encoding="UTF-8" standalone="no"?>
<!-- Created with Inkscape (http://www.inkscape.org/) -->

<svg
   xmlns:ns0="http://www.iki.fi/pav/software/textext/"
   xmlns:dc="http://purl.org/dc/elements/1.1/"
   xmlns:cc="http://creativecommons.org/ns#"
   xmlns:rdf="http://www.w3.org/1999/02/22-rdf-syntax-ns#"
   xmlns:svg="http://www.w3.org/2000/svg"
   xmlns="http://www.w3.org/2000/svg"
   xmlns:sodipodi="http://sodipodi.sourceforge.net/DTD/sodipodi-0.dtd"
   xmlns:inkscape="http://www.inkscape.org/namespaces/inkscape"
   width="268.49905"
   height="182.57144"
   id="svg2"
   version="1.1"
   inkscape:version="0.47 r22583"
   sodipodi:docname="highordcpu.svg">
  <sodipodi:namedview
     id="base"
     pagecolor="#ffffff"
     bordercolor="#666666"
     borderopacity="1.0"
     inkscape:pageopacity="0.0"
     inkscape:pageshadow="2"
     inkscape:zoom="2.1"
     inkscape:cx="111.21577"
     inkscape:cy="70.063134"
     inkscape:document-units="px"
     inkscape:current-layer="layer1"
     showgrid="false"
     inkscape:snap-grids="true"
     inkscape:window-width="1280"
     inkscape:window-height="752"
     inkscape:window-x="0"
     inkscape:window-y="0"
     inkscape:window-maximized="0"
     inkscape:snap-center="false"
     showguides="true"
     inkscape:guide-bbox="true">
    <inkscape:grid
       snapvisiblegridlinesonly="true"
       enabled="true"
       visible="true"
       empspacing="5"
       id="grid2818"
       type="xygrid" />
  </sodipodi:namedview>
  <defs
     id="defs4">
    <marker
       style="overflow:visible"
       id="Arrow1Mstart"
       refX="0"
       refY="0"
       orient="auto"
       inkscape:stockid="Arrow1Mstart">
      <path
         transform="matrix(0.4,0,0,0.4,4,0)"
         style="fill-rule:evenodd;stroke:#000000;stroke-width:1pt;marker-start:none"
         d="M 0,0 5,-5 -12.5,0 5,5 0,0 z"
         id="path6180" />
    </marker>
    <marker
       style="overflow:visible"
       id="Arrow1Lend"
       refX="0"
       refY="0"
       orient="auto"
       inkscape:stockid="Arrow1Lend">
      <path
         transform="matrix(-0.8,0,0,-0.8,-10,0)"
         style="fill-rule:evenodd;stroke:#000000;stroke-width:1pt;marker-start:none"
         d="M 0,0 5,-5 -12.5,0 5,5 0,0 z"
         id="path6177" />
    </marker>
    <marker
       style="overflow:visible"
       id="Arrow1Mend"
       refX="0"
       refY="0"
       orient="auto"
       inkscape:stockid="Arrow1Mend">
      <path
         transform="matrix(-0.4,0,0,-0.4,-4,0)"
         style="fill-rule:evenodd;stroke:#000000;stroke-width:1pt;marker-start:none"
         d="M 0,0 5,-5 -12.5,0 5,5 0,0 z"
         id="path3732" />
    </marker>
    <marker
       style="overflow:visible"
       id="Arrow1Send"
       refX="0"
       refY="0"
       orient="auto"
       inkscape:stockid="Arrow1Send">
      <path
         transform="matrix(-0.2,0,0,-0.2,-1.2,0)"
         style="fill-rule:evenodd;stroke:#000000;stroke-width:1pt;marker-start:none"
         d="M 0,0 5,-5 -12.5,0 5,5 0,0 z"
         id="path3738" />
    </marker>
    <inkscape:perspective
       id="perspective10"
       inkscape:persp3d-origin="372.04724 : 350.78739 : 1"
       inkscape:vp_z="744.09448 : 526.18109 : 1"
       inkscape:vp_y="0 : 1000 : 0"
       inkscape:vp_x="0 : 526.18109 : 1"
       sodipodi:type="inkscape:persp3d" />
    <inkscape:perspective
       sodipodi:type="inkscape:persp3d"
       inkscape:vp_x="0 : 0.5 : 1"
       inkscape:vp_y="0 : 1000 : 0"
       inkscape:vp_z="1 : 0.5 : 1"
       inkscape:persp3d-origin="0.5 : 0.33333333 : 1"
       id="perspective3098" />
    <inkscape:perspective
       sodipodi:type="inkscape:persp3d"
       inkscape:vp_x="0 : 0.5 : 1"
       inkscape:vp_y="0 : 1000 : 0"
       inkscape:vp_z="1 : 0.5 : 1"
       inkscape:persp3d-origin="0.5 : 0.33333333 : 1"
       id="perspective3128" />
  </defs>
  <metadata
     id="metadata7">
    <rdf:RDF>
      <cc:Work
         rdf:about="">
        <dc:format>image/svg+xml</dc:format>
        <dc:type
           rdf:resource="http://purl.org/dc/dcmitype/StillImage" />
        <dc:title />
      </cc:Work>
    </rdf:RDF>
  </metadata>
  <g
     transform="translate(-347.22,-807.8203)"
     id="layer1"
     inkscape:groupmode="layer"
     inkscape:label="Layer 1">
    <rect
       style="fill:#ffffff;fill-opacity:1;stroke:#000000;stroke-width:1;stroke-miterlimit:4;stroke-dasharray:none"
       id="rect9258"
       width="229.48787"
       height="173.92477"
       x="27.136841"
       y="-4.7367358"
       transform="translate(347.22,820.7037)" />
    <path
       id="path3366"
       d="m 407.909,879.80127 0,-45.19995 167.73323,0 -0.022,45.19994"
       style="fill:none;stroke:#000000;stroke-width:1;stroke-linecap:butt;stroke-linejoin:miter;stroke-miterlimit:4;stroke-opacity:1;stroke-dasharray:none;marker-start:url(#Arrow1Mstart);marker-end:url(#Arrow1Mend)"
       sodipodi:nodetypes="cccc" />
    <path
       sodipodi:nodetypes="cccc"
       style="fill:none;stroke:#000000;stroke-width:1;stroke-linecap:butt;stroke-linejoin:miter;stroke-miterlimit:4;stroke-opacity:1;stroke-dasharray:none;marker-start:url(#Arrow1Mstart);marker-end:url(#Arrow1Mend)"
       d="m 417.875,879.80127 0,-37.19995 168.899,0 0,37.19994"
       id="path3368" />
    <path
       sodipodi:nodetypes="cccc"
       id="path3370"
       d="m 412.899,879.80127 0,-41.19995 168.275,0 0,41.19994"
       style="fill:none;stroke:#000000;stroke-width:1;stroke-linecap:butt;stroke-linejoin:miter;stroke-miterlimit:4;stroke-opacity:1;stroke-dasharray:none;marker-start:url(#Arrow1Mstart);marker-end:url(#Arrow1Mend)" />
    <path
       sodipodi:nodetypes="ccccc"
       style="fill:none;stroke:#000000;stroke-width:1;stroke-linecap:butt;stroke-linejoin:miter;stroke-miterlimit:4;stroke-opacity:1;stroke-dasharray:none;marker-start:url(#Arrow1Mstart)"
       d="m 422.987,879.80127 0,-33.19995 175.889,0 0,94.79994 -12.133,-0.1"
       id="path3373" />
    <path
       sodipodi:nodetypes="cccc"
       id="path3375"
       d="m 378.165,838.60132 -0.096,-12 186.504,0 0,53.19994"
       style="fill:none;stroke:#000000;stroke-width:1;stroke-linecap:butt;stroke-linejoin:miter;stroke-miterlimit:4;stroke-opacity:1;stroke-dasharray:none;marker-end:url(#Arrow1Mend)" />
    <path
       sodipodi:nodetypes="cccc"
       style="fill:none;stroke:#000000;stroke-width:1;stroke-linecap:butt;stroke-linejoin:miter;stroke-miterlimit:4;stroke-opacity:1;stroke-dasharray:none;marker-end:url(#Arrow1Mend)"
       d="m 384.065,838.50112 -0.0206,-7.8998 186.07961,0 0,49.19994"
       id="path3377" />
    <path
       sodipodi:nodetypes="ccc"
       style="fill:none;stroke:#000000;stroke-width:1;stroke-linecap:butt;stroke-linejoin:miter;stroke-miterlimit:4;stroke-opacity:1;stroke-dasharray:none;marker-end:url(#Arrow1Mend)"
       d="m 347.96478,822.60132 211.05922,0 0,57.19994"
       id="path3381" />
    <path
       style="fill:none;stroke:#000000;stroke-width:1;stroke-linecap:butt;stroke-linejoin:miter;stroke-opacity:1;marker-end:none;marker-mid:none;stroke-miterlimit:4;stroke-dasharray:none"
       d="m 418.12999,941.60132 12.99001,0 0,-53.35 0,-53.35"
       id="path3197"
       sodipodi:nodetypes="cccc" />
    <rect
       y="881.60132"
       x="387.72"
       height="30"
       width="40"
       id="rect3343"
       style="fill:#ffffff;fill-opacity:1;stroke:#000000;stroke-width:1;stroke-miterlimit:4;stroke-dasharray:none" />
    <g
       transform="matrix(1.0476464,0,0,1,-56.24068,254.76497)"
       id="g3351">
      <rect
         transform="translate(367.86,538.7295)"
         y="139.43002"
         x="65"
         height="30"
         width="20"
         id="rect3353"
         style="fill:#ffffff;fill-opacity:1;stroke:#000000;stroke-width:1;stroke-miterlimit:4;stroke-dasharray:none" />
      <path
         transform="translate(367.86,538.7295)"
         id="path3355"
         d="m 65,164.43002 5,-5 -5,-5"
         style="fill:none;stroke:#000000;stroke-width:1px;stroke-linecap:butt;stroke-linejoin:miter;stroke-opacity:1" />
    </g>
    <path
       style="fill:none;stroke:#000000;stroke-width:1px;stroke-linecap:butt;stroke-linejoin:miter;stroke-opacity:1;marker-end:url(#Arrow1Mend)"
       d="m 407.72,911.53732 0,19.19"
       id="path3358"
       sodipodi:nodetypes="cc" />
    <g
       transform="matrix(-1,0,0,1,815.24,0)"
       id="g8349">
      <g
         id="g8323">
        <path
           sodipodi:nodetypes="cc"
           id="path4381"
           d="m 413.12,830.60132 0,49.2"
           style="fill:none;stroke:#000000;stroke-width:1px;stroke-linecap:butt;stroke-linejoin:miter;stroke-opacity:1;marker-end:url(#Arrow1Mend)" />
        <path
           sodipodi:type="arc"
           style="fill:#000000;fill-opacity:1;stroke:#000000;stroke-width:1;stroke-miterlimit:4;stroke-dasharray:none"
           id="path4383"
           sodipodi:cx="-51.79557"
           sodipodi:cy="32.435127"
           sodipodi:rx="5.4800777"
           sodipodi:ry="5.4800777"
           d="m -46.315493,32.435127 c 0,3.026564 -2.453514,5.480078 -5.480077,5.480078 -3.026564,0 -5.480078,-2.453514 -5.480078,-5.480078 0,-3.026563 2.453514,-5.480077 5.480078,-5.480077 3.026563,0 5.480077,2.453514 5.480077,5.480077 z"
           transform="matrix(0.31195247,0,0,0.31195247,429.28726,820.4831)" />
      </g>
      <g
         id="g8319">
        <path
           style="fill:none;stroke:#000000;stroke-width:1px;stroke-linecap:butt;stroke-linejoin:miter;stroke-opacity:1;marker-end:url(#Arrow1Mend)"
           d="m 418.62,826.60132 0,53.2"
           id="path4387"
           sodipodi:nodetypes="cc" />
        <path
           transform="matrix(0.31195247,0,0,0.31195247,434.78726,816.4831)"
           d="m -46.315493,32.435127 c 0,3.026564 -2.453514,5.480078 -5.480077,5.480078 -3.026564,0 -5.480078,-2.453514 -5.480078,-5.480078 0,-3.026563 2.453514,-5.480077 5.480078,-5.480077 3.026563,0 5.480077,2.453514 5.480077,5.480077 z"
           sodipodi:ry="5.4800777"
           sodipodi:rx="5.4800777"
           sodipodi:cy="32.435127"
           sodipodi:cx="-51.79557"
           id="path4389"
           style="fill:#000000;fill-opacity:1;stroke:#000000;stroke-width:1;stroke-miterlimit:4;stroke-dasharray:none"
           sodipodi:type="arc" />
      </g>
      <g
         id="g8315">
        <path
           sodipodi:nodetypes="cc"
           id="path4393"
           d="m 424.12,822.60132 0,57.2"
           style="fill:none;stroke:#000000;stroke-width:1px;stroke-linecap:butt;stroke-linejoin:miter;stroke-opacity:1;marker-end:url(#Arrow1Mend)" />
        <path
           sodipodi:type="arc"
           style="fill:#000000;fill-opacity:1;stroke:#000000;stroke-width:1;stroke-miterlimit:4;stroke-dasharray:none"
           id="path4395"
           sodipodi:cx="-51.79557"
           sodipodi:cy="32.435127"
           sodipodi:rx="5.4800777"
           sodipodi:ry="5.4800777"
           d="m -46.315493,32.435127 c 0,3.026564 -2.453514,5.480078 -5.480077,5.480078 -3.026564,0 -5.480078,-2.453514 -5.480078,-5.480078 0,-3.026563 2.453514,-5.480077 5.480078,-5.480077 3.026563,0 5.480077,2.453514 5.480077,5.480077 z"
           transform="matrix(0.31195247,0,0,0.31195247,440.28726,812.4831)" />
      </g>
    </g>
    <path
       sodipodi:nodetypes="ccc"
       id="path5237"
       d="m 474.12999,941.60132 12.99001,0 0,-102.7"
       style="fill:none;stroke:#000000;stroke-width:1px;stroke-linecap:butt;stroke-linejoin:miter;stroke-opacity:1;marker-end:none" />
    <rect
       style="fill:#ffffff;fill-opacity:1;stroke:#000000;stroke-width:1;stroke-miterlimit:4;stroke-dasharray:none"
       id="rect5239"
       width="40"
       height="30"
       x="443.72"
       y="881.60132" />
    <g
       id="g5247"
       transform="matrix(1.0476464,0,0,1,-0.240681,254.76497)">
      <rect
         style="fill:#ffffff;fill-opacity:1;stroke:#000000;stroke-width:1;stroke-miterlimit:4;stroke-dasharray:none"
         id="rect5249"
         width="20"
         height="30"
         x="65"
         y="139.43002"
         transform="translate(367.86,538.7295)" />
      <path
         style="fill:none;stroke:#000000;stroke-width:1px;stroke-linecap:butt;stroke-linejoin:miter;stroke-opacity:1"
         d="m 65,164.43002 5,-5 -5,-5"
         id="path5251"
         transform="translate(367.86,538.7295)" />
    </g>
    <path
       sodipodi:nodetypes="cc"
       id="path5253"
       d="m 463.72,911.53732 0,19.19"
       style="fill:none;stroke:#000000;stroke-width:1px;stroke-linecap:butt;stroke-linejoin:miter;stroke-opacity:1;marker-end:url(#Arrow1Mend)" />
    <g
       transform="matrix(-1,0,0,1,927.24023,0)"
       id="g8263">
      <g
         transform="translate(283.4,190.70953)"
         id="g5255">
        <path
           style="fill:none;stroke:#000000;stroke-width:1px;stroke-linecap:butt;stroke-linejoin:miter;stroke-opacity:1;marker-end:url(#Arrow1Mend)"
           d="m -225,-8.9477081 0,33.1999511"
           id="path5257"
           transform="translate(388.72,664.8395)"
           sodipodi:nodetypes="cc" />
        <path
           transform="matrix(0.31195247,0,0,0.31195247,179.88726,645.77357)"
           d="m -46.315493,32.435127 c 0,3.026564 -2.453514,5.480078 -5.480077,5.480078 -3.026564,0 -5.480078,-2.453514 -5.480078,-5.480078 0,-3.026563 2.453514,-5.480077 5.480078,-5.480077 3.026563,0 5.480077,2.453514 5.480077,5.480077 z"
           sodipodi:ry="5.4800777"
           sodipodi:rx="5.4800777"
           sodipodi:cy="32.435127"
           sodipodi:cx="-51.79557"
           id="path5259"
           style="fill:#000000;fill-opacity:1;stroke:#000000;stroke-width:1;stroke-miterlimit:4;stroke-dasharray:none"
           sodipodi:type="arc" />
      </g>
      <g
         id="g8239">
        <path
           sodipodi:nodetypes="cc"
           id="path5261"
           d="m 452.62,842.60132 0,37.2"
           style="fill:none;stroke:#000000;stroke-width:1px;stroke-linecap:butt;stroke-linejoin:miter;stroke-opacity:1;marker-end:url(#Arrow1Mend)" />
        <path
           sodipodi:type="arc"
           style="fill:#000000;fill-opacity:1;stroke:#000000;stroke-width:1;stroke-miterlimit:4;stroke-dasharray:none"
           id="path5263"
           sodipodi:cx="-51.79557"
           sodipodi:cy="32.435127"
           sodipodi:rx="5.4800777"
           sodipodi:ry="5.4800777"
           d="m -46.315493,32.435127 c 0,3.026564 -2.453514,5.480078 -5.480077,5.480078 -3.026564,0 -5.480078,-2.453514 -5.480078,-5.480078 0,-3.026563 2.453514,-5.480077 5.480078,-5.480077 3.026563,0 5.480077,2.453514 5.480077,5.480077 z"
           transform="matrix(0.31195247,0,0,0.31195247,468.78726,832.4831)" />
      </g>
      <g
         id="g8243">
        <path
           style="fill:none;stroke:#000000;stroke-width:1px;stroke-linecap:butt;stroke-linejoin:miter;stroke-opacity:1;marker-end:url(#Arrow1Mend)"
           d="m 458.12,838.60132 0,41.2"
           id="path5265"
           sodipodi:nodetypes="cc" />
        <path
           transform="matrix(0.31195247,0,0,0.31195247,474.28726,828.4831)"
           d="m -46.315493,32.435127 c 0,3.026564 -2.453514,5.480078 -5.480077,5.480078 -3.026564,0 -5.480078,-2.453514 -5.480078,-5.480078 0,-3.026563 2.453514,-5.480077 5.480078,-5.480077 3.026563,0 5.480077,2.453514 5.480077,5.480077 z"
           sodipodi:ry="5.4800777"
           sodipodi:rx="5.4800777"
           sodipodi:cy="32.435127"
           sodipodi:cx="-51.79557"
           id="path5267"
           style="fill:#000000;fill-opacity:1;stroke:#000000;stroke-width:1;stroke-miterlimit:4;stroke-dasharray:none"
           sodipodi:type="arc" />
      </g>
      <g
         id="g8247">
        <path
           sodipodi:nodetypes="cc"
           id="path5269"
           d="m 463.62,834.60132 0,45.2"
           style="fill:none;stroke:#000000;stroke-width:1px;stroke-linecap:butt;stroke-linejoin:miter;stroke-opacity:1;marker-end:url(#Arrow1Mend)" />
        <path
           sodipodi:type="arc"
           style="fill:#000000;fill-opacity:1;stroke:#000000;stroke-width:1;stroke-miterlimit:4;stroke-dasharray:none"
           id="path5271"
           sodipodi:cx="-51.79557"
           sodipodi:cy="32.435127"
           sodipodi:rx="5.4800777"
           sodipodi:ry="5.4800777"
           d="m -46.315493,32.435127 c 0,3.026564 -2.453514,5.480078 -5.480077,5.480078 -3.026564,0 -5.480078,-2.453514 -5.480078,-5.480078 0,-3.026563 2.453514,-5.480077 5.480078,-5.480077 3.026563,0 5.480077,2.453514 5.480077,5.480077 z"
           transform="matrix(0.31195247,0,0,0.31195247,479.78726,824.4831)" />
      </g>
    </g>
    <g
       transform="matrix(-1,0,0,1,927.24,0)"
       id="g8338">
      <g
         id="g8311">
        <path
           style="fill:none;stroke:#000000;stroke-width:1px;stroke-linecap:butt;stroke-linejoin:miter;stroke-opacity:1;marker-end:url(#Arrow1Mend)"
           d="m 469.12,830.60132 0,49.2"
           id="path5273"
           sodipodi:nodetypes="cc" />
        <path
           transform="matrix(0.31195247,0,0,0.31195247,485.28726,820.4831)"
           d="m -46.315493,32.435127 c 0,3.026564 -2.453514,5.480078 -5.480077,5.480078 -3.026564,0 -5.480078,-2.453514 -5.480078,-5.480078 0,-3.026563 2.453514,-5.480077 5.480078,-5.480077 3.026563,0 5.480077,2.453514 5.480077,5.480077 z"
           sodipodi:ry="5.4800777"
           sodipodi:rx="5.4800777"
           sodipodi:cy="32.435127"
           sodipodi:cx="-51.79557"
           id="path5275"
           style="fill:#000000;fill-opacity:1;stroke:#000000;stroke-width:1;stroke-miterlimit:4;stroke-dasharray:none"
           sodipodi:type="arc" />
      </g>
      <g
         id="g8307">
        <path
           sodipodi:nodetypes="cc"
           id="path5277"
           d="m 474.62,826.60132 0,53.2"
           style="fill:none;stroke:#000000;stroke-width:1px;stroke-linecap:butt;stroke-linejoin:miter;stroke-opacity:1;marker-end:url(#Arrow1Mend)" />
        <path
           sodipodi:type="arc"
           style="fill:#000000;fill-opacity:1;stroke:#000000;stroke-width:1;stroke-miterlimit:4;stroke-dasharray:none"
           id="path5279"
           sodipodi:cx="-51.79557"
           sodipodi:cy="32.435127"
           sodipodi:rx="5.4800777"
           sodipodi:ry="5.4800777"
           d="m -46.315493,32.435127 c 0,3.026564 -2.453514,5.480078 -5.480077,5.480078 -3.026564,0 -5.480078,-2.453514 -5.480078,-5.480078 0,-3.026563 2.453514,-5.480077 5.480078,-5.480077 3.026563,0 5.480077,2.453514 5.480077,5.480077 z"
           transform="matrix(0.31195247,0,0,0.31195247,490.78726,816.4831)" />
      </g>
      <g
         id="g8303">
        <path
           style="fill:none;stroke:#000000;stroke-width:1px;stroke-linecap:butt;stroke-linejoin:miter;stroke-opacity:1;marker-end:url(#Arrow1Mend)"
           d="m 480.12,822.60132 0,57.2"
           id="path5281"
           sodipodi:nodetypes="cc" />
        <path
           transform="matrix(0.31195247,0,0,0.31195247,496.28726,812.4831)"
           d="m -46.315493,32.435127 c 0,3.026564 -2.453514,5.480078 -5.480077,5.480078 -3.026564,0 -5.480078,-2.453514 -5.480078,-5.480078 0,-3.026563 2.453514,-5.480077 5.480078,-5.480077 3.026563,0 5.480077,2.453514 5.480077,5.480077 z"
           sodipodi:ry="5.4800777"
           sodipodi:rx="5.4800777"
           sodipodi:cy="32.435127"
           sodipodi:cx="-51.79557"
           id="path5283"
           style="fill:#000000;fill-opacity:1;stroke:#000000;stroke-width:1;stroke-miterlimit:4;stroke-dasharray:none"
           sodipodi:type="arc" />
      </g>
    </g>
    <rect
       y="881.60132"
       x="555.71997"
       height="30"
       width="40"
       id="rect5289"
       style="fill:#ffffff;fill-opacity:1;stroke:#000000;stroke-width:1;stroke-miterlimit:4;stroke-dasharray:none" />
    <g
       transform="matrix(1.0476464,0,0,1,111.75932,254.76497)"
       id="g5297">
      <rect
         transform="translate(367.86,538.7295)"
         y="139.43002"
         x="65"
         height="30"
         width="20"
         id="rect5299"
         style="fill:#ffffff;fill-opacity:1;stroke:#000000;stroke-width:1;stroke-miterlimit:4;stroke-dasharray:none" />
      <path
         transform="translate(367.86,538.7295)"
         id="path5301"
         d="m 65,164.43002 5,-5 -5,-5"
         style="fill:none;stroke:#000000;stroke-width:1px;stroke-linecap:butt;stroke-linejoin:miter;stroke-opacity:1" />
    </g>
    <path
       style="fill:none;stroke:#000000;stroke-width:1px;stroke-linecap:butt;stroke-linejoin:miter;stroke-opacity:1;marker-end:url(#Arrow1Mend)"
       d="m 575.72,911.53732 0,19.19"
       id="path5303"
       sodipodi:nodetypes="cc" />
    <g
       transform="translate(16.4,0)"
       id="g8360">
      <path
         sodipodi:nodetypes="cc"
         id="path5319"
         d="m 575.62,846.60132 0,33.2"
         style="fill:none;stroke:#000000;stroke-width:1px;stroke-linecap:butt;stroke-linejoin:miter;stroke-opacity:1;marker-end:url(#Arrow1Mend)" />
      <path
         transform="matrix(0.31195247,0,0,0.31195247,591.83726,836.43354)"
         d="m -46.315493,32.435127 c 0,3.026564 -2.453514,5.480078 -5.480077,5.480078 -3.026564,0 -5.480078,-2.453514 -5.480078,-5.480078 0,-3.026563 2.453514,-5.480077 5.480078,-5.480077 3.026563,0 5.480077,2.453514 5.480077,5.480077 z"
         sodipodi:ry="5.4800777"
         sodipodi:rx="5.4800777"
         sodipodi:cy="32.435127"
         sodipodi:cx="-51.79557"
         id="path5333"
         style="fill:#000000;fill-opacity:1;stroke:#000000;stroke-width:1;stroke-miterlimit:4;stroke-dasharray:none"
         sodipodi:type="arc" />
    </g>
    <path
       sodipodi:nodetypes="ccc"
       id="path5337"
       d="m 530.12999,941.60132 12.99001,0 0,-98.7"
       style="fill:none;stroke:#000000;stroke-width:1px;stroke-linecap:butt;stroke-linejoin:miter;stroke-opacity:1;marker-end:none" />
    <rect
       style="fill:#ffffff;fill-opacity:1;stroke:#000000;stroke-width:1;stroke-miterlimit:4;stroke-dasharray:none"
       id="rect5339"
       width="40"
       height="30"
       x="499.72"
       y="881.60132" />
    <g
       id="g5347"
       transform="matrix(1.0476464,0,0,1,55.75932,254.76497)">
      <rect
         style="fill:#ffffff;fill-opacity:1;stroke:#000000;stroke-width:1;stroke-miterlimit:4;stroke-dasharray:none"
         id="rect5349"
         width="20"
         height="30"
         x="65"
         y="139.43002"
         transform="translate(367.86,538.7295)" />
      <path
         style="fill:none;stroke:#000000;stroke-width:1px;stroke-linecap:butt;stroke-linejoin:miter;stroke-opacity:1"
         d="m 65,164.43002 5,-5 -5,-5"
         id="path5351"
         transform="translate(367.86,538.7295)" />
    </g>
    <path
       sodipodi:nodetypes="cc"
       id="path5353"
       d="m 519.72,911.53732 0,19.19"
       style="fill:none;stroke:#000000;stroke-width:1px;stroke-linecap:butt;stroke-linejoin:miter;stroke-opacity:1;marker-end:url(#Arrow1Mend)" />
    <g
       transform="matrix(-1,0,0,1,1039.2402,0)"
       id="g8277">
      <g
         transform="translate(339.4,190.70953)"
         id="g5355">
        <path
           style="fill:none;stroke:#000000;stroke-width:1px;stroke-linecap:butt;stroke-linejoin:miter;stroke-opacity:1;marker-end:url(#Arrow1Mend)"
           d="m -225,-8.9477081 0,33.2000001"
           id="path5357"
           transform="translate(388.72,664.8395)"
           sodipodi:nodetypes="cc" />
        <path
           transform="matrix(0.31195247,0,0,0.31195247,179.88726,645.77357)"
           d="m -46.315493,32.435127 c 0,3.026564 -2.453514,5.480078 -5.480077,5.480078 -3.026564,0 -5.480078,-2.453514 -5.480078,-5.480078 0,-3.026563 2.453514,-5.480077 5.480078,-5.480077 3.026563,0 5.480077,2.453514 5.480077,5.480077 z"
           sodipodi:ry="5.4800777"
           sodipodi:rx="5.4800777"
           sodipodi:cy="32.435127"
           sodipodi:cx="-51.79557"
           id="path5359"
           style="fill:#000000;fill-opacity:1;stroke:#000000;stroke-width:1;stroke-miterlimit:4;stroke-dasharray:none"
           sodipodi:type="arc" />
      </g>
      <g
         id="g8251">
        <path
           sodipodi:nodetypes="cc"
           id="path5361"
           d="m 508.62,842.60132 0,37.2"
           style="fill:none;stroke:#000000;stroke-width:1px;stroke-linecap:butt;stroke-linejoin:miter;stroke-opacity:1;marker-end:url(#Arrow1Mend)" />
        <path
           sodipodi:type="arc"
           style="fill:#000000;fill-opacity:1;stroke:#000000;stroke-width:1;stroke-miterlimit:4;stroke-dasharray:none"
           id="path5363"
           sodipodi:cx="-51.79557"
           sodipodi:cy="32.435127"
           sodipodi:rx="5.4800777"
           sodipodi:ry="5.4800777"
           d="m -46.315493,32.435127 c 0,3.026564 -2.453514,5.480078 -5.480077,5.480078 -3.026564,0 -5.480078,-2.453514 -5.480078,-5.480078 0,-3.026563 2.453514,-5.480077 5.480078,-5.480077 3.026563,0 5.480077,2.453514 5.480077,5.480077 z"
           transform="matrix(0.31195247,0,0,0.31195247,524.78726,832.4831)" />
      </g>
      <g
         id="g8255">
        <path
           style="fill:none;stroke:#000000;stroke-width:1px;stroke-linecap:butt;stroke-linejoin:miter;stroke-opacity:1;marker-end:url(#Arrow1Mend)"
           d="m 514.12,838.60132 0,41.2"
           id="path5365"
           sodipodi:nodetypes="cc" />
        <path
           transform="matrix(0.31195247,0,0,0.31195247,530.28726,828.4831)"
           d="m -46.315493,32.435127 c 0,3.026564 -2.453514,5.480078 -5.480077,5.480078 -3.026564,0 -5.480078,-2.453514 -5.480078,-5.480078 0,-3.026563 2.453514,-5.480077 5.480078,-5.480077 3.026563,0 5.480077,2.453514 5.480077,5.480077 z"
           sodipodi:ry="5.4800777"
           sodipodi:rx="5.4800777"
           sodipodi:cy="32.435127"
           sodipodi:cx="-51.79557"
           id="path5367"
           style="fill:#000000;fill-opacity:1;stroke:#000000;stroke-width:1;stroke-miterlimit:4;stroke-dasharray:none"
           sodipodi:type="arc" />
      </g>
      <g
         id="g8259">
        <path
           sodipodi:nodetypes="cc"
           id="path5369"
           d="m 519.62,834.60132 0,45.2"
           style="fill:none;stroke:#000000;stroke-width:1px;stroke-linecap:butt;stroke-linejoin:miter;stroke-opacity:1;marker-end:url(#Arrow1Mend)" />
        <path
           sodipodi:type="arc"
           style="fill:#000000;fill-opacity:1;stroke:#000000;stroke-width:1;stroke-miterlimit:4;stroke-dasharray:none"
           id="path5371"
           sodipodi:cx="-51.79557"
           sodipodi:cy="32.435127"
           sodipodi:rx="5.4800777"
           sodipodi:ry="5.4800777"
           d="m -46.315493,32.435127 c 0,3.026564 -2.453514,5.480078 -5.480077,5.480078 -3.026564,0 -5.480078,-2.453514 -5.480078,-5.480078 0,-3.026563 2.453514,-5.480077 5.480078,-5.480077 3.026563,0 5.480077,2.453514 5.480077,5.480077 z"
           transform="matrix(0.31195247,0,0,0.31195247,535.78726,824.4831)" />
      </g>
    </g>
    <g
       transform="matrix(-1,0,0,1,1039.24,0)"
       id="g8327">
      <g
         id="g8291">
        <path
           style="fill:none;stroke:#000000;stroke-width:1px;stroke-linecap:butt;stroke-linejoin:miter;stroke-opacity:1;marker-end:url(#Arrow1Mend)"
           d="m 525.12,830.60132 0,49.2"
           id="path5373"
           sodipodi:nodetypes="cc" />
        <path
           transform="matrix(0.31195247,0,0,0.31195247,541.28726,820.4831)"
           d="m -46.315493,32.435127 c 0,3.026564 -2.453514,5.480078 -5.480077,5.480078 -3.026564,0 -5.480078,-2.453514 -5.480078,-5.480078 0,-3.026563 2.453514,-5.480077 5.480078,-5.480077 3.026563,0 5.480077,2.453514 5.480077,5.480077 z"
           sodipodi:ry="5.4800777"
           sodipodi:rx="5.4800777"
           sodipodi:cy="32.435127"
           sodipodi:cx="-51.79557"
           id="path5375"
           style="fill:#000000;fill-opacity:1;stroke:#000000;stroke-width:1;stroke-miterlimit:4;stroke-dasharray:none"
           sodipodi:type="arc" />
      </g>
      <g
         id="g8295">
        <path
           sodipodi:nodetypes="cc"
           id="path5377"
           d="m 530.62,826.60132 0,53.2"
           style="fill:none;stroke:#000000;stroke-width:1px;stroke-linecap:butt;stroke-linejoin:miter;stroke-opacity:1;marker-end:url(#Arrow1Mend)" />
        <path
           sodipodi:type="arc"
           style="fill:#000000;fill-opacity:1;stroke:#000000;stroke-width:1;stroke-miterlimit:4;stroke-dasharray:none"
           id="path5379"
           sodipodi:cx="-51.79557"
           sodipodi:cy="32.435127"
           sodipodi:rx="5.4800777"
           sodipodi:ry="5.4800777"
           d="m -46.315493,32.435127 c 0,3.026564 -2.453514,5.480078 -5.480077,5.480078 -3.026564,0 -5.480078,-2.453514 -5.480078,-5.480078 0,-3.026563 2.453514,-5.480077 5.480078,-5.480077 3.026563,0 5.480077,2.453514 5.480077,5.480077 z"
           transform="matrix(0.31195247,0,0,0.31195247,546.78726,816.4831)" />
      </g>
      <g
         id="g8299">
        <path
           style="fill:none;stroke:#000000;stroke-width:1px;stroke-linecap:butt;stroke-linejoin:miter;stroke-opacity:1;marker-end:url(#Arrow1Mend)"
           d="m 536.12,822.60132 0,57.19994"
           id="path5381"
           sodipodi:nodetypes="cc" />
        <path
           transform="matrix(0.31195247,0,0,0.31195247,552.28726,812.4831)"
           d="m -46.315493,32.435127 c 0,3.026564 -2.453514,5.480078 -5.480077,5.480078 -3.026564,0 -5.480078,-2.453514 -5.480078,-5.480078 0,-3.026563 2.453514,-5.480077 5.480078,-5.480077 3.026563,0 5.480077,2.453514 5.480077,5.480077 z"
           sodipodi:ry="5.4800777"
           sodipodi:rx="5.4800777"
           sodipodi:cy="32.435127"
           sodipodi:cx="-51.79557"
           id="path5383"
           style="fill:#000000;fill-opacity:1;stroke:#000000;stroke-width:1;stroke-miterlimit:4;stroke-dasharray:none"
           sodipodi:type="arc" />
      </g>
    </g>
    <path
       style="fill:none;stroke:#000000;stroke-width:1px;stroke-linecap:butt;stroke-linejoin:miter;stroke-opacity:1;marker-end:url(#Arrow1Mend)"
       d="m 598.46904,941.46097 16,0"
       id="path7223"
       sodipodi:nodetypes="cc" />
    <path
       transform="matrix(0.31195247,0,0,0.31195247,614.93726,931.33355)"
       d="m -46.315493,32.435127 c 0,3.026564 -2.453514,5.480078 -5.480077,5.480078 -3.026564,0 -5.480078,-2.453514 -5.480078,-5.480078 0,-3.026563 2.453514,-5.480077 5.480078,-5.480077 3.026563,0 5.480077,2.453514 5.480077,5.480077 z"
       sodipodi:ry="5.4800777"
       sodipodi:rx="5.4800777"
       sodipodi:cy="32.435127"
       sodipodi:cx="-51.79557"
       id="path7225"
       style="fill:#000000;fill-opacity:1;stroke:#000000;stroke-width:1;stroke-miterlimit:4;stroke-dasharray:none"
       sodipodi:type="arc" />
    <path
       transform="matrix(0.31195247,0,0,0.31195247,447.28726,824.4831)"
       d="m -46.315493,32.435127 c 0,3.026564 -2.453514,5.480078 -5.480077,5.480078 -3.026564,0 -5.480078,-2.453514 -5.480078,-5.480078 0,-3.026563 2.453514,-5.480077 5.480078,-5.480077 3.026563,0 5.480077,2.453514 5.480077,5.480077 z"
       sodipodi:ry="5.4800777"
       sodipodi:rx="5.4800777"
       sodipodi:cy="32.435127"
       sodipodi:cx="-51.79557"
       id="path8203"
       style="fill:#000000;fill-opacity:1;stroke:#000000;stroke-width:1;stroke-miterlimit:4;stroke-dasharray:none"
       sodipodi:type="arc" />
    <path
       sodipodi:type="arc"
       style="fill:#000000;fill-opacity:1;stroke:#000000;stroke-width:1;stroke-miterlimit:4;stroke-dasharray:none"
       id="path8205"
       sodipodi:cx="-51.79557"
       sodipodi:cy="32.435127"
       sodipodi:rx="5.4800777"
       sodipodi:ry="5.4800777"
       d="m -46.315493,32.435127 c 0,3.026564 -2.453514,5.480078 -5.480077,5.480078 -3.026564,0 -5.480078,-2.453514 -5.480078,-5.480078 0,-3.026563 2.453514,-5.480077 5.480078,-5.480077 3.026563,0 5.480077,2.453514 5.480077,5.480077 z"
       transform="matrix(0.31195247,0,0,0.31195247,503.28726,828.4831)" />
    <path
       transform="matrix(0.31195247,0,0,0.31195247,559.28726,832.4831)"
       d="m -46.315493,32.435127 c 0,3.026564 -2.453514,5.480078 -5.480077,5.480078 -3.026564,0 -5.480078,-2.453514 -5.480078,-5.480078 0,-3.026563 2.453514,-5.480077 5.480078,-5.480077 3.026563,0 5.480077,2.453514 5.480077,5.480077 z"
       sodipodi:ry="5.4800777"
       sodipodi:rx="5.4800777"
       sodipodi:cy="32.435127"
       sodipodi:cx="-51.79557"
       id="path8207"
       style="fill:#000000;fill-opacity:1;stroke:#000000;stroke-width:1;stroke-miterlimit:4;stroke-dasharray:none"
       sodipodi:type="arc" />
    <path
       style="fill:none;stroke:#000000;stroke-width:1px;stroke-linecap:butt;stroke-linejoin:miter;stroke-opacity:1;marker-end:url(#Arrow1Mend)"
       d="m 347.72,890.50081 38,0"
       id="path8366"
       sodipodi:nodetypes="cc" />
    <g
       style="font-style:normal;font-variant:normal;font-weight:normal;font-stretch:normal;letter-spacing:normal;word-spacing:normal;text-anchor:start;fill:none;stroke:#000000;stroke-linecap:butt;stroke-linejoin:miter;stroke-miterlimit:10.43299961;stroke-opacity:1;stroke-dasharray:none;stroke-dashoffset:0"
       ns0:preamble=""
       ns0:text="$\\mathit{opc}$\n\n\n"
       word-spacing="normal"
       letter-spacing="normal"
       font-size-adjust="none"
       font-stretch="normal"
       font-weight="normal"
       font-variant="normal"
       font-style="normal"
       stroke-miterlimit="10.433"
       xml:space="preserve"
       transform="matrix(1,0,0,-1,129.54646,1544.3664)"
       id="content">
<path
   id="path8510"
   d="m 228.5,660 0,0.09 0,0.09 -0.01,0.08 -0.01,0.08 -0.02,0.09 -0.02,0.07 -0.02,0.08 -0.02,0.08 -0.03,0.07 -0.03,0.07 -0.03,0.07 -0.04,0.07 -0.04,0.06 -0.04,0.06 -0.04,0.06 -0.05,0.05 -0.05,0.06 -0.05,0.05 -0.05,0.04 -0.06,0.05 -0.06,0.04 -0.06,0.04 -0.06,0.03 -0.07,0.03 -0.07,0.03 -0.06,0.03 -0.08,0.02 -0.07,0.01 -0.07,0.02 -0.08,0.01 -0.08,0 -0.08,0.01 c -1.24,0 -2.52,-1.42 -2.52,-2.87 0,-1.03 0.63,-1.65 1.45,-1.65 v 0.22 c -0.39,0 -0.75,0.31 -0.75,1.03 0,0.5 0.26,1.6 0.57,2.14 0.37,0.61 0.85,0.91 1.24,0.91 0.49,0 0.77,-0.44 0.77,-1.03 0,-0.43 -0.22,-1.45 -0.54,-2.05 -0.29,-0.55 -0.8,-1 -1.29,-1 h 0 v -0.22 c 1.24,0 2.52,1.42 2.52,2.88 z"
   style="fill:#000000;stroke-width:0" />
<path
   id="path8512"
   d="m 229.42,655.96 -0.01,-0.03 0,-0.03 -0.01,-0.02 -0.01,-0.03 -0.01,-0.02 -0.01,-0.02 0,-0.02 -0.01,-0.02 -0.01,-0.01 -0.01,-0.02 -0.01,-0.01 -0.01,-0.02 -0.02,-0.01 -0.01,-0.01 -0.01,-0.01 -0.02,-0.01 -0.01,-0.01 -0.02,-0.01 -0.01,0 -0.02,-0.01 -0.02,0 -0.02,-0.01 -0.02,0 -0.03,-0.01 -0.02,0 -0.03,0 -0.03,0 -0.02,-0.01 -0.03,0 -0.04,0 -0.03,0 -0.04,0 c -0.09,0 -0.21,0 -0.21,-0.19 0,-0.07 0.05,-0.12 0.12,-0.12 0.27,0 0.56,0.03 0.84,0.03 0.32,0 0.66,-0.03 0.97,-0.03 0.06,0 0.19,0 0.19,0.19 0,0.12 -0.1,0.12 -0.24,0.12 -0.51,0 -0.51,0.06 -0.51,0.16 0,0.06 0.07,0.32 0.11,0.48 l 0.36,1.45 c 0.07,-0.17 0.32,-0.58 0.83,-0.58 l -0.01,0.22 c -0.57,0 -0.67,0.85 -0.67,0.93 0,0.03 0.01,0.06 0.03,0.14 l 0.47,1.88 c 0.08,0.34 0.69,1.13 1.24,1.13 0.45,0 0.55,-0.57 0.55,-0.89 0,-0.42 -0.27,-1.6 -0.56,-2.24 -0.12,-0.25 -0.55,-0.95 -1.06,-0.95 l 0.01,-0.22 c 1.09,0 2.28,1.48 2.28,2.96 0,1.07 -0.6,1.56 -1.2,1.56 -0.49,0 -0.92,-0.36 -1.2,-0.7 -0.12,0.58 -0.57,0.7 -0.82,0.7 -0.36,0 -0.56,-0.23 -0.72,-0.53 -0.19,-0.4 -0.32,-0.99 -0.32,-1.01 0,-0.1 0.1,-0.1 0.15,-0.1 0.13,0 0.14,0.01 0.19,0.23 0.18,0.7 0.37,1.19 0.68,1.19 0.26,0 0.26,-0.29 0.26,-0.4 0,-0.06 0,-0.22 -0.07,-0.5 z"
   style="fill:#000000;stroke-width:0" />
<path
   id="path8514"
   d="m 237.44,660.99 -0.02,-0.01 -0.02,0 -0.03,0 -0.02,-0.01 -0.02,0 -0.02,-0.01 -0.02,0 -0.01,-0.01 -0.02,-0.01 -0.02,0 -0.01,-0.01 -0.02,-0.01 -0.02,-0.01 -0.01,0 -0.01,-0.01 -0.02,-0.01 -0.01,-0.01 -0.01,-0.01 -0.01,-0.01 -0.02,-0.01 -0.01,-0.01 -0.01,-0.01 -0.02,-0.02 -0.01,-0.02 -0.02,-0.02 -0.01,-0.02 -0.01,-0.02 -0.02,-0.02 -0.01,-0.02 0,-0.02 -0.01,-0.02 -0.01,-0.02 0,-0.02 -0.01,-0.02 0,-0.01 0,-0.02 0,-0.01 -0.01,-0.01 0,-0.02 0,0 0,-0.01 0,0 0,-0.01 0,0 0,0 c 0,-0.16 0.11,-0.32 0.34,-0.32 0.27,0 0.51,0.22 0.51,0.6 0,0.49 -0.43,0.86 -1.07,0.86 -1.23,0 -2.52,-1.42 -2.52,-2.87 0,-0.99 0.59,-1.65 1.47,-1.65 1.27,0 2.1,1 2.1,1.15 0,0.05 -0.08,0.16 -0.16,0.16 -0.04,0 -0.05,-0.01 -0.13,-0.11 -0.74,-0.94 -1.62,-0.98 -1.79,-0.98 -0.54,0 -0.79,0.45 -0.79,1.03 0,0.53 0.27,1.57 0.53,2.05 0.36,0.65 0.86,1 1.3,1 0.11,0 0.56,-0.02 0.71,-0.43 z"
   style="fill:#000000;stroke-width:0" />
</g>    <g
       style="font-style:normal;font-variant:normal;font-weight:normal;font-stretch:normal;letter-spacing:normal;word-spacing:normal;text-anchor:start;fill:none;stroke:#000000;stroke-linecap:butt;stroke-linejoin:miter;stroke-miterlimit:10.43299961;stroke-opacity:1;stroke-dasharray:none;stroke-dashoffset:0"
       ns0:preamble=""
       ns0:text="$\\mathit{addrs}$\n\n\n"
       word-spacing="normal"
       letter-spacing="normal"
       font-size-adjust="none"
       font-stretch="normal"
       font-weight="normal"
       font-variant="normal"
       font-style="normal"
       stroke-miterlimit="10.433"
       xml:space="preserve"
       transform="matrix(1,0,0,-1,124.911,1624.5027)"
       id="g9098">
<path
   id="path9100"
   d="m 226.91,657.82 0.01,-0.04 0.01,-0.05 0.02,-0.04 0.01,-0.04 0.02,-0.04 0.02,-0.04 0.02,-0.03 0.02,-0.03 0.02,-0.04 0.02,-0.03 0.02,-0.03 0.03,-0.03 0.02,-0.02 0.03,-0.03 0.03,-0.02 0.02,-0.02 0.03,-0.02 0.03,-0.02 0.03,-0.02 0.03,-0.02 0.03,-0.01 0.03,-0.01 0.03,-0.02 0.04,-0.01 0.03,-0.01 0.03,0 0.03,-0.01 0.04,-0.01 0.03,0 0.03,0 0.03,-0.01 0.04,0 c 0.36,0 0.57,0.25 0.72,0.56 0.18,0.38 0.3,0.96 0.3,0.98 0,0.1 -0.08,0.1 -0.15,0.1 -0.12,0 -0.13,-0.01 -0.19,-0.23 -0.14,-0.56 -0.32,-1.19 -0.66,-1.19 -0.26,0 -0.26,0.27 -0.26,0.41 0,0.07 0,0.23 0.07,0.51 l 0.67,2.71 c 0.04,0.14 0.04,0.16 0.04,0.21 0,0.21 -0.16,0.26 -0.27,0.26 -0.31,0 -0.38,-0.34 -0.39,-0.39 -0.19,0.43 -0.51,0.59 -0.83,0.59 v -0.22 c 0.44,0 0.69,-0.52 0.69,-0.94 0,-0.02 -0.01,-0.07 -0.03,-0.13 h 0 l -0.47,-1.88 c -0.08,-0.32 -0.7,-1.13 -1.25,-1.13 -0.46,0 -0.54,0.59 -0.54,0.89 0,0.5 0.3,1.66 0.48,2.08 0.25,0.61 0.71,1.11 1.12,1.11 v 0.22 c -1.11,0 -2.28,-1.52 -2.28,-2.97 0,-0.85 0.46,-1.55 1.2,-1.55 0.36,0 0.8,0.21 1.2,0.7 z"
   style="fill:#000000;stroke-width:0" />
<path
   id="path9102"
   d="m 234.07,663.9 0,0 0.01,0 0,0.01 0,0 0,0 0,0.01 0,0 0,0.01 0,0 0.01,0.01 0,0.01 0,0.01 0,0.01 0.01,0.01 0,0 0,0 0,0.01 0,0 0,0.01 0,0 0,0.01 0,0 0,0 0,0.01 0,0 0,0 0,0 0,0.01 c 0,0.09 -0.06,0.12 -0.14,0.12 -0.03,0 -0.12,-0.01 -0.16,-0.02 l -0.98,-0.08 c -0.12,-0.01 -0.23,-0.02 -0.23,-0.21 0,-0.11 0.1,-0.11 0.24,-0.11 0.48,0 0.5,-0.07 0.5,-0.17 0,-0.03 -0.03,-0.16 -0.03,-0.17 l -0.58,-2.33 c -0.15,0.31 -0.42,0.58 -0.84,0.58 v -0.22 c 0.08,0 0.31,-0.01 0.49,-0.29 0.1,-0.16 0.2,-0.45 0.2,-0.64 0,-0.03 -0.01,-0.07 -0.03,-0.13 l -0.48,-1.91 c -0.08,-0.31 -0.69,-1.11 -1.23,-1.11 -0.47,0 -0.55,0.59 -0.55,0.89 0,0.5 0.31,1.66 0.49,2.08 0.25,0.61 0.7,1.11 1.11,1.11 v 0.22 c -1.1,0 -2.28,-1.52 -2.28,-2.97 0,-0.85 0.46,-1.55 1.21,-1.55 0.35,0 0.79,0.21 1.19,0.7 0.11,-0.49 0.48,-0.7 0.83,-0.7 0.37,0 0.58,0.25 0.73,0.56 0.18,0.38 0.29,0.96 0.29,0.98 0,0.1 -0.08,0.1 -0.14,0.1 -0.12,0 -0.13,-0.01 -0.19,-0.23 -0.14,-0.56 -0.33,-1.19 -0.67,-1.19 -0.26,0 -0.26,0.27 -0.26,0.41 0,0.07 0,0.22 0.06,0.46 z"
   style="fill:#000000;stroke-width:0" />
<path
   id="path9104"
   d="m 239.17,663.9 0,0 0,0 0,0.01 0,0 0,0 0,0.01 0,0 0.01,0.01 0,0 0,0.01 0,0.01 0,0.01 0.01,0.01 0,0.01 0,0 0,0 0,0.01 0,0 0,0.01 0,0 0,0.01 0.01,0 0,0 0,0.01 0,0 0,0 0,0 0,0.01 c 0,0.09 -0.06,0.12 -0.14,0.12 -0.03,0 -0.13,-0.01 -0.16,-0.02 l -0.99,-0.08 c -0.12,-0.01 -0.23,-0.02 -0.23,-0.21 0,-0.11 0.1,-0.11 0.24,-0.11 0.48,0 0.5,-0.07 0.5,-0.17 0,-0.03 -0.03,-0.16 -0.03,-0.17 l -0.58,-2.33 c -0.15,0.31 -0.42,0.58 -0.83,0.58 v -0.22 c 0.07,0 0.3,-0.01 0.48,-0.29 0.1,-0.16 0.2,-0.45 0.2,-0.64 0,-0.03 -0.01,-0.07 -0.03,-0.13 l -0.48,-1.91 c -0.08,-0.31 -0.68,-1.11 -1.23,-1.11 -0.47,0 -0.55,0.59 -0.55,0.89 0,0.5 0.31,1.66 0.49,2.08 0.25,0.61 0.71,1.11 1.12,1.11 v 0.22 c -1.11,0 -2.29,-1.52 -2.29,-2.97 0,-0.85 0.46,-1.55 1.21,-1.55 0.36,0 0.8,0.21 1.19,0.7 0.11,-0.49 0.48,-0.7 0.83,-0.7 0.37,0 0.58,0.25 0.73,0.56 0.18,0.38 0.3,0.96 0.3,0.98 0,0.1 -0.08,0.1 -0.15,0.1 -0.12,0 -0.13,-0.01 -0.19,-0.23 -0.14,-0.56 -0.33,-1.19 -0.67,-1.19 -0.26,0 -0.26,0.27 -0.26,0.41 0,0.07 0,0.22 0.06,0.46 z"
   style="fill:#000000;stroke-width:0" />
<path
   id="path9106"
   d="m 241.28,660.1 0,0 0,0.01 0,0 0.01,0.01 0,0.01 0,0.01 0.01,0.01 0,0.02 0.01,0.01 0.01,0.02 0,0.02 0.01,0.01 0.02,0.05 0.02,0.04 0.02,0.05 0.03,0.05 0.02,0.05 0.03,0.06 0.04,0.06 0.03,0.06 0.04,0.06 0.04,0.06 0.04,0.06 0.05,0.06 0.05,0.06 0.05,0.06 0.05,0.05 0.05,0.06 0.06,0.05 0.06,0.05 0.06,0.04 0.07,0.04 0.03,0.02 0.03,0.01 0.04,0.02 0.03,0.01 0.04,0.01 0.04,0.02 0.03,0 0.04,0.01 0.04,0.01 0.04,0 0.04,0.01 0.04,0 c 0.05,0 0.32,0 0.52,-0.14 -0.35,-0.11 -0.38,-0.43 -0.38,-0.48 0,-0.13 0.1,-0.32 0.35,-0.32 0.18,0 0.49,0.14 0.49,0.53 0,0.52 -0.65,0.63 -0.98,0.63 -0.68,0 -1.04,-0.5 -1.2,-0.72 -0.11,0.53 -0.5,0.72 -0.83,0.72 -0.36,0 -0.56,-0.23 -0.71,-0.53 -0.19,-0.4 -0.32,-0.99 -0.32,-1.01 0,-0.1 0.1,-0.1 0.15,-0.1 0.13,0 0.14,0.01 0.19,0.23 0.17,0.7 0.36,1.19 0.67,1.19 0.26,0 0.26,-0.29 0.26,-0.4 0,-0.16 -0.03,-0.35 -0.07,-0.51 l -0.75,-2.99 c -0.01,-0.06 -0.03,-0.11 -0.03,-0.14 0,-0.11 0.08,-0.26 0.28,-0.26 0.3,0 0.37,0.29 0.39,0.37 z"
   style="fill:#000000;stroke-width:0" />
<path
   id="path9108"
   d="m 245.37,659.2 0.08,-0.02 0.08,-0.02 0.09,-0.02 0.04,-0.01 0.03,-0.02 0.04,-0.01 0.04,-0.01 0.04,-0.02 0.03,-0.01 0.04,-0.02 0.03,-0.01 0.04,-0.02 0.03,-0.02 0.03,-0.02 0.03,-0.02 0.03,-0.02 0.02,-0.03 0.03,-0.02 0.02,-0.03 0.02,-0.03 0.02,-0.03 0.02,-0.04 0.01,-0.03 0.02,-0.04 0.01,-0.04 0.01,-0.04 0,-0.05 0,-0.02 0.01,-0.02 0,-0.03 0,-0.02 c 0,-0.32 -0.27,-1.12 -1.3,-1.12 -0.22,0 -0.8,0.05 -0.95,0.56 0.5,0.05 0.5,0.47 0.5,0.49 0,0.19 -0.13,0.32 -0.33,0.32 -0.23,0 -0.51,-0.17 -0.51,-0.62 0,-0.61 0.57,-0.97 1.28,-0.97 1.5,0 1.87,1.22 1.87,1.68 0,0.86 -0.77,1.04 -1.18,1.13 -0.28,0.06 -0.64,0.14 -0.64,0.57 0,0.24 0.21,0.92 1.01,0.92 0.27,0 0.64,-0.1 0.75,-0.49 -0.32,-0.04 -0.4,-0.31 -0.4,-0.41 0,-0.11 0.06,-0.28 0.3,-0.28 0.16,0 0.42,0.12 0.42,0.55 0,0.46 -0.4,0.85 -1.06,0.85 -1.17,0 -1.58,-0.96 -1.58,-1.48 0,-0.77 0.65,-0.9 0.93,-0.96 z"
   style="fill:#000000;stroke-width:0" />
</g>    <g
       id="g9419"
       transform="matrix(1,0,0,-1,152.33474,1503.5671)"
       xml:space="preserve"
       stroke-miterlimit="10.433"
       font-style="normal"
       font-variant="normal"
       font-weight="normal"
       font-stretch="normal"
       font-size-adjust="none"
       letter-spacing="normal"
       word-spacing="normal"
       ns0:text="$0$\n\n\n\n"
       ns0:preamble=""
       style="font-style:normal;font-variant:normal;font-weight:normal;font-stretch:normal;letter-spacing:normal;word-spacing:normal;text-anchor:start;fill:none;stroke:#000000;stroke-linecap:butt;stroke-linejoin:miter;stroke-miterlimit:10.43299961;stroke-opacity:1;stroke-dasharray:none;stroke-dashoffset:0">
<path
   d="m 228.01,660.42 0,0.15 0,0.15 0,0.15 -0.01,0.15 -0.01,0.15 -0.01,0.14 -0.01,0.15 -0.02,0.15 -0.03,0.15 -0.02,0.14 -0.04,0.15 -0.03,0.14 -0.05,0.14 -0.05,0.14 -0.05,0.14 -0.03,0.07 -0.03,0.07 c -0.46,0.96 -1.28,1.12 -1.7,1.12 -0.6,0 -1.32,-0.26 -1.73,-1.19 -0.32,-0.69 -0.37,-1.46 -0.37,-2.26 0,-0.75 0.04,-1.64 0.45,-2.4 0.43,-0.81 1.16,-1.01 1.64,-1.01 v 0.22 c -0.39,0 -0.97,0.25 -1.15,1.21 -0.11,0.6 -0.11,1.51 -0.11,2.1 0,0.64 0,1.3 0.08,1.83 0.19,1.19 0.93,1.28 1.18,1.28 0.33,0 0.99,-0.18 1.18,-1.17 0.1,-0.56 0.1,-1.31 0.1,-1.94 0,-0.75 0,-1.43 -0.11,-2.06 -0.15,-0.95 -0.72,-1.25 -1.17,-1.25 h 0 v -0.22 c 0.54,0 1.3,0.21 1.74,1.16 0.31,0.69 0.36,1.46 0.36,2.25 z"
   id="path9421"
   style="fill:#000000;stroke-width:0" />
</g>    <g
       style="font-style:normal;font-variant:normal;font-weight:normal;font-stretch:normal;letter-spacing:normal;word-spacing:normal;text-anchor:start;fill:none;stroke:#000000;stroke-linecap:butt;stroke-linejoin:miter;stroke-miterlimit:10.43299961;stroke-opacity:1;stroke-dasharray:none;stroke-dashoffset:0"
       ns0:preamble=""
       ns0:text="$1$\n\n\n\n\n"
       word-spacing="normal"
       letter-spacing="normal"
       font-size-adjust="none"
       font-stretch="normal"
       font-weight="normal"
       font-variant="normal"
       font-style="normal"
       stroke-miterlimit="10.433"
       xml:space="preserve"
       transform="matrix(1,0,0,-1,158.13,1503.6771)"
       id="g9731">
<path
   id="path9733"
   d="m 226.36,663.61 0,0.01 0,0.01 0,0.01 0,0.01 0,0.01 0,0.01 0,0.01 0,0.01 0,0.01 0,0.01 0,0 0,0.01 0,0.01 0,0.01 0,0 0,0.01 0,0.01 0,0 -0.01,0.01 0,0.02 0,0.01 0,0.01 -0.01,0 0,0.01 -0.01,0.01 0,0 -0.01,0.01 -0.01,0 0,0.01 -0.01,0 -0.01,0 0,0.01 -0.01,0 0,0 -0.01,0 -0.01,0 0,0 -0.01,0 0,0 -0.01,0 -0.01,0.01 -0.01,0 0,0 -0.01,0 -0.01,0 -0.01,0 -0.01,0 -0.01,0 -0.01,0 -0.01,0 -0.01,0 -0.01,0 c -0.62,-0.64 -1.49,-0.64 -1.81,-0.64 v -0.31 c 0.2,0 0.79,0 1.3,0.26 v -5.16 c 0,-0.36 -0.03,-0.48 -0.92,-0.48 h -0.32 v -0.31 c 0.35,0.03 1.21,0.03 1.61,0.03 0.4,0 1.27,0 1.62,-0.03 v 0.31 h -0.32 c -0.9,0 -0.93,0.11 -0.93,0.48 z"
   style="fill:#000000;stroke-width:0" />
</g>    <g
       id="g10049"
       transform="matrix(1,0,0,-1,256.305,1469.5703)"
       xml:space="preserve"
       stroke-miterlimit="10.433"
       font-style="normal"
       font-variant="normal"
       font-weight="normal"
       font-stretch="normal"
       font-size-adjust="none"
       letter-spacing="normal"
       word-spacing="normal"
       ns0:text="$\\mathbf{cpu}$\n\n\n\n\n"
       ns0:preamble=""
       style="font-style:normal;font-variant:normal;font-weight:normal;font-stretch:normal;letter-spacing:normal;word-spacing:normal;text-anchor:start;fill:none;stroke:#000000;stroke-linecap:butt;stroke-linejoin:miter;stroke-miterlimit:10.43299961;stroke-opacity:1;stroke-dasharray:none;stroke-dashoffset:0">
<path
   style="fill:#000000;stroke-width:0"
   d="m 227.02,661.29 -0.02,-0.02 -0.01,-0.01 -0.02,-0.02 -0.01,-0.01 -0.01,-0.02 -0.02,-0.02 -0.01,-0.01 -0.01,-0.02 -0.01,-0.02 -0.01,-0.01 0,-0.02 -0.01,-0.01 -0.01,-0.02 -0.01,-0.02 0,-0.01 -0.01,-0.02 0,-0.01 -0.01,-0.02 0,-0.01 0,-0.02 -0.01,-0.01 0,-0.02 0,-0.01 0,-0.01 -0.01,-0.02 0,-0.01 0,-0.01 0,-0.01 0,-0.01 0,-0.01 0,-0.01 0,-0.01 c 0,-0.44 0.35,-0.63 0.62,-0.63 0.31,0 0.63,0.21 0.63,0.63 0,0.86 -1.16,0.92 -1.74,0.92 -1.78,0 -2.52,-1.15 -2.52,-2.31 0,-1.32 0.94,-2.27 2.47,-2.27 1.62,0 1.92,1.16 1.92,1.23 0,0.14 -0.15,0.14 -0.24,0.14 -0.18,0 -0.19,-0.02 -0.24,-0.15 -0.26,-0.63 -0.74,-0.82 -1.25,-0.82 -1.38,0 -1.38,1.47 -1.38,1.92 0,0.56 0,1.86 1.28,1.86 0.35,0 0.52,-0.03 0.65,-0.06 z"
   id="path10051" />
<path
   style="fill:#000000;stroke-width:0"
   d="m 230.72,657.62 0.04,-0.03 0.04,-0.03 0.04,-0.03 0.04,-0.03 0.04,-0.02 0.04,-0.03 0.04,-0.02 0.04,-0.03 0.04,-0.02 0.04,-0.02 0.04,-0.02 0.04,-0.01 0.04,-0.02 0.04,-0.02 0.04,-0.01 0.04,-0.01 0.04,-0.02 0.04,-0.01 0.08,-0.02 0.08,-0.01 0.08,-0.02 0.08,-0.01 0.08,0 0.08,-0.01 0.07,0 -0.11,0.36 c -0.14,0 -0.61,0 -1.05,0.54 -0.11,0.13 -0.11,0.14 -0.11,0.33 v 2.11 c 0,0.19 0.01,0.2 0.15,0.34 0.39,0.41 0.91,0.47 1.13,0.47 0.67,0 1.23,-0.61 1.23,-1.87 0,-1.4 -0.7,-1.92 -1.35,-1.92 l 0.11,-0.36 c 1.5,0 2.51,0.9 2.51,2.28 0,1.33 -0.9,2.27 -2.34,2.27 -0.75,0 -1.27,-0.31 -1.5,-0.49 v 0.49 l -1.77,-0.08 v -0.47 c 0.62,0 0.69,0 0.69,-0.38 v -5.02 h -0.69 v -0.47 c 0.28,0.01 0.88,0.03 1.26,0.03 0.39,0 0.97,-0.02 1.25,-0.03 v 0.47 h -0.68 z"
   id="path10053" />
<path
   style="fill:#000000;stroke-width:0"
   d="m 239.26,657.95 v -0.78 l 1.76,0.06 v 0.47 c -0.62,0 -0.69,0 -0.69,0.39 v 3.63 l -1.82,-0.08 v -0.47 c 0.62,0 0.69,0 0.69,-0.39 v -1.9 c 0,-0.82 -0.51,-1.35 -1.24,-1.35 -0.77,0 -0.8,0.25 -0.8,0.79 v 3.4 l -1.82,-0.08 v -0.47 c 0.62,0 0.69,0 0.69,-0.39 v -2.32 c 0,-1.07 0.81,-1.29 1.79,-1.29 0.26,0 0.98,0 1.44,0.78 z"
   id="path10055" />
</g>    <g
       style="font-style:normal;font-variant:normal;font-weight:normal;font-stretch:normal;letter-spacing:normal;word-spacing:normal;text-anchor:start;fill:none;stroke:#000000;stroke-linecap:butt;stroke-linejoin:miter;stroke-miterlimit:10.43299961;stroke-opacity:1;stroke-dasharray:none;stroke-dashoffset:0"
       ns0:preamble=""
       ns0:text="$\\mathit{x}$\n\n\n\n"
       word-spacing="normal"
       letter-spacing="normal"
       font-size-adjust="none"
       font-stretch="normal"
       font-weight="normal"
       font-variant="normal"
       font-style="normal"
       stroke-miterlimit="10.433"
       xml:space="preserve"
       transform="matrix(1,0,0,-1,134.43146,1478.3706)"
       id="g3125">
<path
   id="path3127"
   d="m 228.15,661.28 -0.01,-0.01 -0.02,0 -0.02,-0.01 -0.02,0 -0.01,-0.01 -0.02,-0.01 -0.01,0 -0.02,-0.01 -0.01,-0.01 -0.01,-0.01 -0.02,0 -0.01,-0.01 -0.01,-0.01 -0.01,-0.01 -0.01,-0.01 -0.02,-0.01 -0.01,-0.01 -0.01,-0.01 -0.01,-0.02 -0.02,-0.02 -0.02,-0.02 -0.01,-0.02 -0.01,-0.02 -0.01,-0.02 -0.01,-0.02 -0.01,-0.02 -0.01,-0.01 -0.01,-0.02 0,-0.02 -0.01,-0.02 0,-0.02 -0.01,-0.01 0,-0.02 0,-0.01 0,-0.01 0,-0.01 0,-0.01 0,-0.01 0,0 0,-0.01 0,0 0,0 0,0 0,0 c 0,-0.13 0.09,-0.32 0.34,-0.32 0.18,0 0.49,0.14 0.49,0.53 0,0.51 -0.58,0.63 -0.86,0.63 -0.55,0 -0.88,-0.49 -0.98,-0.68 -0.22,0.6 -0.71,0.68 -0.96,0.68 -0.99,0 -1.53,-1.31 -1.53,-1.54 0,-0.1 0.1,-0.1 0.15,-0.1 0.13,0 0.13,0.01 0.18,0.17 0.27,0.86 0.79,1.25 1.18,1.25 0.29,0 0.48,-0.23 0.48,-0.63 0,-0.24 -0.12,-0.73 -0.21,-1.1 -0.11,-0.41 -0.12,-0.45 -0.23,-0.9 -0.16,-0.65 -0.36,-1.45 -0.96,-1.45 -0.03,0 -0.27,0 -0.44,0.14 0.3,0.08 0.39,0.33 0.39,0.48 0,0.26 -0.21,0.32 -0.34,0.32 -0.25,0 -0.5,-0.21 -0.5,-0.54 0,-0.39 0.42,-0.62 0.88,-0.62 0.48,0 0.8,0.38 0.97,0.68 0.2,-0.57 0.69,-0.68 0.95,-0.68 1.03,0 1.53,1.34 1.53,1.54 0,0.1 -0.08,0.1 -0.14,0.1 -0.13,0 -0.14,-0.01 -0.19,-0.17 -0.26,-0.86 -0.76,-1.25 -1.18,-1.25 -0.2,0 -0.47,0.12 -0.47,0.64 0,0.24 0.11,0.67 0.19,1.01 0.11,0.41 0.26,1.03 0.34,1.36 0.14,0.52 0.41,1.07 0.88,1.07 0.03,0 0.27,0 0.43,-0.14 z"
   style="fill:#000000;stroke-width:0" />
</g>    <g
       transform="translate(-1.6,-42.400203)"
       id="g4275">
      <path
         sodipodi:nodetypes="cccc"
         id="path4277"
         d="m 349.32,1015.6013 85.9,0 0,-70.99998 7,0"
         style="fill:none;stroke:#000000;stroke-width:1px;stroke-linecap:butt;stroke-linejoin:miter;stroke-opacity:1;marker-end:none" />
      <path
         style="fill:none;stroke:#000000;stroke-width:1px;stroke-linecap:butt;stroke-linejoin:miter;stroke-opacity:1;marker-end:none"
         d="m 349.32,1017.6013 87.5,0 0,-70.99998 5.4,0"
         id="path4279"
         sodipodi:nodetypes="cccc" />
      <path
         style="fill:none;stroke:#000000;stroke-width:1px;stroke-linecap:butt;stroke-linejoin:miter;stroke-opacity:1"
         d="m 438.82,948.55094 5.5,-2.89982 -5.5,-3.00018"
         id="path4281"
         sodipodi:nodetypes="ccc" />
    </g>
    <g
       id="g4299"
       transform="translate(55.1,-42.400203)">
      <path
         style="fill:none;stroke:#000000;stroke-width:1px;stroke-linecap:butt;stroke-linejoin:miter;stroke-opacity:1;marker-end:none"
         d="m 292.72,1019.6013 142.5,0 0,-74.99998 7,0"
         id="path4301"
         sodipodi:nodetypes="cccc" />
      <path
         sodipodi:nodetypes="cccc"
         id="path4303"
         d="m 292.72,1021.6013 144.1,0 0,-74.99998 5.4,0"
         style="fill:none;stroke:#000000;stroke-width:1px;stroke-linecap:butt;stroke-linejoin:miter;stroke-opacity:1;marker-end:none" />
      <path
         sodipodi:nodetypes="ccc"
         id="path4305"
         d="m 438.82,948.55094 5.5,-2.89982 -5.5,-3.00018"
         style="fill:none;stroke:#000000;stroke-width:1px;stroke-linecap:butt;stroke-linejoin:miter;stroke-opacity:1" />
    </g>
    <g
       transform="translate(111.1,-42.400203)"
       id="g4307">
      <path
         sodipodi:nodetypes="cccc"
         id="path4309"
         d="m 236.72,1023.6013 198.5,0 0,-78.99998 7,0"
         style="fill:none;stroke:#000000;stroke-width:1px;stroke-linecap:butt;stroke-linejoin:miter;stroke-opacity:1;marker-end:none" />
      <path
         style="fill:none;stroke:#000000;stroke-width:1px;stroke-linecap:butt;stroke-linejoin:miter;stroke-opacity:1;marker-end:none"
         d="m 236.72,1025.6013 200.1,0 0,-78.99998 5.4,0"
         id="path4311"
         sodipodi:nodetypes="cccc" />
      <path
         style="fill:none;stroke:#000000;stroke-width:1px;stroke-linecap:butt;stroke-linejoin:miter;stroke-opacity:1"
         d="m 438.82,948.55094 5.5,-2.89982 -5.5,-3.00018"
         id="path4313"
         sodipodi:nodetypes="ccc" />
    </g>
    <path
       sodipodi:nodetypes="cccc"
       id="path4317"
       d="m 347.82,969.2011 30.5,0 0,-66.99998 7,0"
       style="fill:none;stroke:#000000;stroke-width:1px;stroke-linecap:butt;stroke-linejoin:miter;stroke-opacity:1;marker-end:none" />
    <path
       style="fill:none;stroke:#000000;stroke-width:1px;stroke-linecap:butt;stroke-linejoin:miter;stroke-opacity:1;marker-end:none"
       d="m 347.82,971.2011 32.1,0 0,-66.99998 5.4,0"
       id="path4319"
       sodipodi:nodetypes="cccc" />
    <path
       style="fill:none;stroke:#000000;stroke-width:1px;stroke-linecap:butt;stroke-linejoin:miter;stroke-opacity:1"
       d="m 381.92,906.15074 5.5,-2.89982 -5.5,-3.00018"
       id="path4321"
       sodipodi:nodetypes="ccc" />
    <g
       id="g4483"
       transform="matrix(1,0,0,-1,179.265,1556.175)"
       xml:space="preserve"
       stroke="black"
       stroke-linecap="butt"
       stroke-linejoin="miter"
       stroke-miterlimit="10.433"
       stroke-dasharray="none"
       stroke-dashoffset="0"
       stroke-opacity="1"
       fill="none"
       fill-rule="evenodd"
       fill-opacity="1"
       font-style="normal"
       font-variant="normal"
       font-weight="normal"
       font-stretch="normal"
       font-size-adjust="none"
       letter-spacing="normal"
       word-spacing="normal"
       text-anchor="start"
       ns0:text="$\\mathbf{fu_0}$\n\n\n\n\n"
       ns0:preamble=""
       style="font-style:normal;font-variant:normal;font-weight:normal;font-stretch:normal;letter-spacing:normal;word-spacing:normal;text-anchor:start;fill:none;stroke:#000000;stroke-linecap:butt;stroke-linejoin:miter;stroke-miterlimit:10.43299961;stroke-opacity:1;stroke-dasharray:none;stroke-dashoffset:0">
<path
   d="M224.6,661.66 H223.85 V661.19 H224.6 V657.7 H223.91 V657.23 C224.26,657.24,224.71,657.26,225.17,657.26 C225.54,657.26,226.18,657.26,226.54,657.23 V657.7 H225.67 V661.19 H226.82 V661.66 H225.61 V662.66 C225.61,663.76,226.37,663.85,226.62,663.85 C226.67,663.85,226.72,663.85,226.79,663.83 C226.64,663.72,226.56,663.53,226.56,663.34 C226.56,662.91,226.91,662.72,227.17,662.72 C227.47,662.72,227.79,662.93,227.79,663.34 C227.79,663.76,227.43,664.21,226.65,664.21 C225.67,664.21,224.6,663.79,224.6,662.66 Z "
   stroke-width="0"
   fill="black"
   id="path4485" />
<path
   d="M231.3,657.95 V657.17 L233.06,657.23 V657.7 C232.44,657.7,232.38,657.7,232.38,658.09 V661.72 L230.55,661.64 V661.17 C231.17,661.17,231.24,661.17,231.24,660.78 V658.88 C231.24,658.06,230.73,657.53,230,657.53 C229.24,657.53,229.21,657.78,229.21,658.32 V661.72 L227.38,661.64 V661.17 C228,661.17,228.07,661.17,228.07,660.78 V658.46 C228.07,657.39,228.88,657.17,229.86,657.17 C230.12,657.17,230.84,657.17,231.3,657.95 Z "
   stroke-width="0"
   fill="black"
   id="path4487" />
<path
   d="M237.42,657.96 L237.42,658.04 L237.42,658.13 L237.42,658.21 L237.42,658.31 L237.41,658.4 L237.4,658.49 L237.39,658.59 L237.38,658.69 L237.37,658.79 L237.35,658.88 L237.33,658.98 L237.3,659.08 L237.27,659.18 L237.24,659.27 L237.2,659.37 L237.15,659.46 L237.11,659.55 L237.05,659.63 L236.99,659.72 L236.93,659.8 L236.85,659.87 L236.77,659.94 L236.69,660.01 L236.64,660.04 L236.59,660.07 L236.54,660.1 L236.49,660.12 L236.44,660.15 L236.38,660.17 L236.33,660.19 L236.27,660.21 L236.2,660.23 L236.14,660.25 L236.07,660.26 L236.01,660.28 L235.94,660.29 L235.86,660.3 L235.79,660.31 L235.71,660.31 L235.63,660.31 L235.55,660.32 V659.99 C235.81,659.99,236.27,659.88,236.38,659.4 C236.45,659.07,236.45,658.49,236.45,658.05 C236.45,657.56,236.45,657.05,236.38,656.66 C236.29,656.1,235.81,655.98,235.55,655.98 H235.55 C235.32,655.98,235.12,656.05,234.95,656.2 C234.76,656.36,234.64,656.47,234.64,658.05 C234.64,658.53,234.64,659.08,234.72,659.41 C234.83,659.87,235.26,659.99,235.55,659.99 V660.32 C233.76,660.32,233.67,658.81,233.67,657.96 C233.67,657.08,233.78,655.66,235.55,655.66 C237.31,655.66,237.42,657.07,237.42,657.96 Z "
   stroke-width="0"
   fill="black"
   id="path4489" />
</g>    <g
       style="font-style:normal;font-variant:normal;font-weight:normal;font-stretch:normal;letter-spacing:normal;word-spacing:normal;text-anchor:start;fill:none;stroke:#000000;stroke-linecap:butt;stroke-linejoin:miter;stroke-miterlimit:10.43299961;stroke-opacity:1;stroke-dasharray:none;stroke-dashoffset:0"
       ns0:preamble=""
       ns0:text="$\\mathbf{fu_1}$\n\n\n\n\n"
       text-anchor="start"
       word-spacing="normal"
       letter-spacing="normal"
       font-size-adjust="none"
       font-stretch="normal"
       font-weight="normal"
       font-variant="normal"
       font-style="normal"
       fill-opacity="1"
       fill-rule="evenodd"
       fill="none"
       stroke-opacity="1"
       stroke-dashoffset="0"
       stroke-dasharray="none"
       stroke-miterlimit="10.433"
       stroke-linejoin="miter"
       stroke-linecap="butt"
       stroke="black"
       xml:space="preserve"
       transform="matrix(1,0,0,-1,235.265,1556.175)"
       id="g4808">
<path
   id="path4810"
   fill="black"
   stroke-width="0"
   d="M224.6,661.66 H223.85 V661.19 H224.6 V657.7 H223.91 V657.23 C224.26,657.24,224.71,657.26,225.17,657.26 C225.54,657.26,226.18,657.26,226.54,657.23 V657.7 H225.67 V661.19 H226.82 V661.66 H225.61 V662.66 C225.61,663.76,226.37,663.85,226.62,663.85 C226.67,663.85,226.72,663.85,226.79,663.83 C226.64,663.72,226.56,663.53,226.56,663.34 C226.56,662.91,226.91,662.72,227.17,662.72 C227.47,662.72,227.79,662.93,227.79,663.34 C227.79,663.76,227.43,664.21,226.65,664.21 C225.67,664.21,224.6,663.79,224.6,662.66 Z " />
<path
   id="path4812"
   fill="black"
   stroke-width="0"
   d="M231.3,657.95 V657.17 L233.06,657.23 V657.7 C232.44,657.7,232.38,657.7,232.38,658.09 V661.72 L230.55,661.64 V661.17 C231.17,661.17,231.24,661.17,231.24,660.78 V658.88 C231.24,658.06,230.73,657.53,230,657.53 C229.24,657.53,229.21,657.78,229.21,658.32 V661.72 L227.38,661.64 V661.17 C228,661.17,228.07,661.17,228.07,660.78 V658.46 C228.07,657.39,228.88,657.17,229.86,657.17 C230.12,657.17,230.84,657.17,231.3,657.95 Z " />
<path
   id="path4814"
   fill="black"
   stroke-width="0"
   d="M236.08,660.07 L236.08,660.08 L236.08,660.09 L236.08,660.1 L236.08,660.11 L236.08,660.12 L236.08,660.13 L236.08,660.14 L236.08,660.15 L236.07,660.16 L236.07,660.17 L236.07,660.18 L236.07,660.18 L236.07,660.19 L236.07,660.2 L236.07,660.21 L236.06,660.22 L236.06,660.24 L236.05,660.25 L236.05,660.26 L236.04,660.26 L236.03,660.27 L236.03,660.28 L236.02,660.28 L236.01,660.29 L236,660.29 L235.99,660.3 L235.97,660.3 L235.96,660.31 L235.95,660.31 L235.93,660.31 L235.91,660.31 L235.9,660.31 L235.88,660.31 L235.87,660.31 L235.86,660.31 L235.85,660.31 L235.83,660.31 L235.82,660.31 L235.81,660.31 L235.8,660.31 L235.79,660.31 L235.78,660.31 L235.76,660.31 L235.75,660.32 L235.74,660.32 C235.3,659.97,234.73,659.87,234.17,659.87 H234.01 V659.48 H234.17 C234.45,659.48,234.88,659.53,235.17,659.62 V656.13 H234.07 V655.74 C234.41,655.77,235.25,655.77,235.62,655.77 C235.88,655.77,236.13,655.76,236.38,655.76 C236.59,655.76,236.95,655.75,237.15,655.74 V656.13 H236.08 Z " />
</g>    <g
       id="g5135"
       transform="matrix(1,0,0,-1,291.265,1556.175)"
       xml:space="preserve"
       stroke="black"
       stroke-linecap="butt"
       stroke-linejoin="miter"
       stroke-miterlimit="10.433"
       stroke-dasharray="none"
       stroke-dashoffset="0"
       stroke-opacity="1"
       fill="none"
       fill-rule="evenodd"
       fill-opacity="1"
       font-style="normal"
       font-variant="normal"
       font-weight="normal"
       font-stretch="normal"
       font-size-adjust="none"
       letter-spacing="normal"
       word-spacing="normal"
       text-anchor="start"
       ns0:text="$\\mathbf{fu_2}$\n\n\n\n\n"
       ns0:preamble=""
       style="font-style:normal;font-variant:normal;font-weight:normal;font-stretch:normal;letter-spacing:normal;word-spacing:normal;text-anchor:start;fill:none;stroke:#000000;stroke-linecap:butt;stroke-linejoin:miter;stroke-miterlimit:10.43299961;stroke-opacity:1;stroke-dasharray:none;stroke-dashoffset:0">
<path
   d="M224.6,661.66 H223.85 V661.19 H224.6 V657.7 H223.91 V657.23 C224.26,657.24,224.71,657.26,225.17,657.26 C225.54,657.26,226.18,657.26,226.54,657.23 V657.7 H225.67 V661.19 H226.82 V661.66 H225.61 V662.66 C225.61,663.76,226.37,663.85,226.62,663.85 C226.67,663.85,226.72,663.85,226.79,663.83 C226.64,663.72,226.56,663.53,226.56,663.34 C226.56,662.91,226.91,662.72,227.17,662.72 C227.47,662.72,227.79,662.93,227.79,663.34 C227.79,663.76,227.43,664.21,226.65,664.21 C225.67,664.21,224.6,663.79,224.6,662.66 Z "
   stroke-width="0"
   fill="black"
   id="path5137" />
<path
   d="M231.3,657.95 V657.17 L233.06,657.23 V657.7 C232.44,657.7,232.38,657.7,232.38,658.09 V661.72 L230.55,661.64 V661.17 C231.17,661.17,231.24,661.17,231.24,660.78 V658.88 C231.24,658.06,230.73,657.53,230,657.53 C229.24,657.53,229.21,657.78,229.21,658.32 V661.72 L227.38,661.64 V661.17 C228,661.17,228.07,661.17,228.07,660.78 V658.46 C228.07,657.39,228.88,657.17,229.86,657.17 C230.12,657.17,230.84,657.17,231.3,657.95 Z "
   stroke-width="0"
   fill="black"
   id="path5139" />
<path
   d="M237.33,657.33 H236.89 C236.87,657.25,236.81,656.75,236.68,656.72 C236.54,656.7,236.12,656.7,235.96,656.7 H235 C235.39,656.98,235.78,657.27,236.18,657.53 C236.75,657.89,237.33,658.26,237.33,658.96 C237.33,659.79,236.54,660.32,235.43,660.32 C234.48,660.32,233.77,659.95,233.77,659.28 C233.77,658.88,234.1,658.73,234.31,658.73 C234.56,658.73,234.85,658.91,234.85,659.28 C234.85,659.61,234.59,659.75,234.57,659.76 C234.82,659.92,235.14,659.92,235.23,659.92 C235.82,659.92,236.29,659.55,236.29,658.95 C236.29,658.41,235.92,657.97,235.52,657.61 L233.86,656.14 C233.78,656.05,233.77,656.05,233.77,655.91 V655.74 H237.09 Z "
   stroke-width="0"
   fill="black"
   id="path5141" />
</g>    <g
       style="font-style:normal;font-variant:normal;font-weight:normal;font-stretch:normal;letter-spacing:normal;word-spacing:normal;text-anchor:start;fill:none;stroke:#000000;stroke-linecap:butt;stroke-linejoin:miter;stroke-miterlimit:10.43299961;stroke-opacity:1;stroke-dasharray:none;stroke-dashoffset:0"
       ns0:preamble=""
       ns0:text="$\\mathbf{fu_3}$\n\n\n\n\n"
       text-anchor="start"
       word-spacing="normal"
       letter-spacing="normal"
       font-size-adjust="none"
       font-stretch="normal"
       font-weight="normal"
       font-variant="normal"
       font-style="normal"
       fill-opacity="1"
       fill-rule="evenodd"
       fill="none"
       stroke-opacity="1"
       stroke-dashoffset="0"
       stroke-dasharray="none"
       stroke-miterlimit="10.433"
       stroke-linejoin="miter"
       stroke-linecap="butt"
       stroke="black"
       xml:space="preserve"
       transform="matrix(1,0,0,-1,347.265,1556.175)"
       id="g5464">
<path
   id="path5466"
   fill="black"
   stroke-width="0"
   d="M224.6,661.66 H223.85 V661.19 H224.6 V657.7 H223.91 V657.23 C224.26,657.24,224.71,657.26,225.17,657.26 C225.54,657.26,226.18,657.26,226.54,657.23 V657.7 H225.67 V661.19 H226.82 V661.66 H225.61 V662.66 C225.61,663.76,226.37,663.85,226.62,663.85 C226.67,663.85,226.72,663.85,226.79,663.83 C226.64,663.72,226.56,663.53,226.56,663.34 C226.56,662.91,226.91,662.72,227.17,662.72 C227.47,662.72,227.79,662.93,227.79,663.34 C227.79,663.76,227.43,664.21,226.65,664.21 C225.67,664.21,224.6,663.79,224.6,662.66 Z " />
<path
   id="path5468"
   fill="black"
   stroke-width="0"
   d="M231.3,657.95 V657.17 L233.06,657.23 V657.7 C232.44,657.7,232.38,657.7,232.38,658.09 V661.72 L230.55,661.64 V661.17 C231.17,661.17,231.24,661.17,231.24,660.78 V658.88 C231.24,658.06,230.73,657.53,230,657.53 C229.24,657.53,229.21,657.78,229.21,658.32 V661.72 L227.38,661.64 V661.17 C228,661.17,228.07,661.17,228.07,660.78 V658.46 C228.07,657.39,228.88,657.17,229.86,657.17 C230.12,657.17,230.84,657.17,231.3,657.95 Z " />
<path
   id="path5470"
   fill="black"
   stroke-width="0"
   d="M235.4,658.01 L235.44,658.01 L235.48,658.01 L235.51,658 L235.55,658 L235.58,658 L235.61,657.99 L235.65,657.99 L235.68,657.98 L235.71,657.97 L235.73,657.96 L235.76,657.96 L235.79,657.95 L235.81,657.94 L235.84,657.93 L235.86,657.91 L235.89,657.9 L235.91,657.89 L235.93,657.88 L235.95,657.86 L235.97,657.85 L236.01,657.82 L236.04,657.79 L236.07,657.76 L236.1,657.72 L236.12,657.68 L236.14,657.65 L236.16,657.61 L236.18,657.57 L236.2,657.53 L236.21,657.49 L236.22,657.45 L236.23,657.4 L236.24,657.36 L236.25,657.32 L236.25,657.28 L236.26,657.24 L236.26,657.2 L236.26,657.16 L236.26,657.12 L236.27,657.08 L236.27,657.04 L236.27,657.01 C236.27,656.72,236.27,656.01,235.43,656.01 C235.24,656.01,234.8,656.05,234.5,656.23 C234.65,656.3,234.83,656.46,234.83,656.76 C234.83,657.08,234.6,657.32,234.26,657.32 C233.92,657.32,233.69,657.08,233.69,656.75 C233.69,656.04,234.47,655.66,235.46,655.66 C236.91,655.66,237.4,656.42,237.4,657 C237.4,657.54,236.98,658.03,236.18,658.19 C236.68,658.38,237.15,658.74,237.15,659.33 C237.15,659.87,236.59,660.32,235.48,660.32 C234.53,660.32,233.94,659.85,233.94,659.27 C233.94,658.92,234.2,658.73,234.47,658.73 C234.82,658.73,235,658.99,235,659.26 C235,659.61,234.72,659.74,234.65,659.76 C234.93,659.97,235.3,659.99,235.44,659.99 C236.13,659.99,236.13,659.54,236.13,659.34 C236.13,659.03,235.99,658.38,235.29,658.35 C235.12,658.34,234.94,658.33,234.9,658.32 C234.81,658.29,234.81,658.21,234.81,658.17 C234.81,658.01,234.9,658.01,235.03,658.01 Z " />
</g>    <path
       style="fill:none;stroke:#000000;stroke-width:1px;stroke-linecap:butt;stroke-linejoin:miter;stroke-opacity:1;marker-end:url(#Arrow1Mend)"
       d="m 431.12,869.39174 0,-3"
       id="path4916"
       sodipodi:nodetypes="cc" />
    <path
       sodipodi:nodetypes="cc"
       id="path5108"
       d="m 487.12,869.39174 0,-3"
       style="fill:none;stroke:#000000;stroke-width:1px;stroke-linecap:butt;stroke-linejoin:miter;stroke-opacity:1;marker-end:url(#Arrow1Mend)" />
    <path
       style="fill:none;stroke:#000000;stroke-width:1px;stroke-linecap:butt;stroke-linejoin:miter;stroke-opacity:1;marker-end:url(#Arrow1Mend)"
       d="m 543.12,869.39174 0,-3"
       id="path5110"
       sodipodi:nodetypes="cc" />
    <path
       sodipodi:nodetypes="cc"
       id="path5112"
       d="m 598.82,869.39174 0,-3"
       style="fill:none;stroke:#000000;stroke-width:1px;stroke-linecap:butt;stroke-linejoin:miter;stroke-opacity:1;marker-end:url(#Arrow1Mend)" />
  </g>
</svg>
