<?xml version="1.0" encoding="UTF-8" standalone="no"?>
<!-- Created with Inkscape (http://www.inkscape.org/) -->

<svg
   xmlns:dc="http://purl.org/dc/elements/1.1/"
   xmlns:cc="http://creativecommons.org/ns#"
   xmlns:rdf="http://www.w3.org/1999/02/22-rdf-syntax-ns#"
   xmlns:svg="http://www.w3.org/2000/svg"
   xmlns="http://www.w3.org/2000/svg"
   xmlns:sodipodi="http://sodipodi.sourceforge.net/DTD/sodipodi-0.dtd"
   xmlns:inkscape="http://www.inkscape.org/namespaces/inkscape"
   width="131.25"
   height="62.050003"
   id="svg2"
   version="1.1"
   inkscape:version="0.47 r22583"
   sodipodi:docname="mac.svg">
  <sodipodi:namedview
     id="base"
     pagecolor="#ffffff"
     bordercolor="#666666"
     borderopacity="1.0"
     inkscape:pageopacity="0.0"
     inkscape:pageshadow="2"
     inkscape:zoom="3.5188563"
     inkscape:cx="60.13205"
     inkscape:cy="37.003824"
     inkscape:document-units="px"
     inkscape:current-layer="layer1"
     showgrid="true"
     inkscape:snap-grids="true"
     inkscape:window-width="1091"
     inkscape:window-height="838"
     inkscape:window-x="30"
     inkscape:window-y="154"
     inkscape:window-maximized="0">
    <inkscape:grid
       snapvisiblegridlinesonly="true"
       enabled="true"
       visible="true"
       empspacing="5"
       id="grid2818"
       type="xygrid" />
  </sodipodi:namedview>
  <defs
     id="defs4"><marker
   style="overflow:visible"
   id="Arrow1Mend"
   refX="0"
   refY="0"
   orient="auto"
   inkscape:stockid="Arrow1Mend">
  <path
     transform="matrix(-0.4,0,0,-0.4,-4,0)"
     style="fill-rule:evenodd;stroke:#000000;stroke-width:1pt;marker-start:none"
     d="M 0,0 5,-5 -12.5,0 5,5 0,0 z"
     id="path3732" />
</marker>
<marker
   style="overflow:visible"
   id="Arrow1Send"
   refX="0"
   refY="0"
   orient="auto"
   inkscape:stockid="Arrow1Send">
  <path
     transform="matrix(-0.2,0,0,-0.2,-1.2,0)"
     style="fill-rule:evenodd;stroke:#000000;stroke-width:1pt;marker-start:none"
     d="M 0,0 5,-5 -12.5,0 5,5 0,0 z"
     id="path3738" />
</marker>
<inkscape:perspective
   id="perspective10"
   inkscape:persp3d-origin="372.04724 : 350.78739 : 1"
   inkscape:vp_z="744.09448 : 526.18109 : 1"
   inkscape:vp_y="0 : 1000 : 0"
   inkscape:vp_x="0 : 526.18109 : 1"
   sodipodi:type="inkscape:persp3d" />
<inkscape:perspective
   sodipodi:type="inkscape:persp3d"
   inkscape:vp_x="0 : 0.5 : 1"
   inkscape:vp_y="0 : 1000 : 0"
   inkscape:vp_z="1 : 0.5 : 1"
   inkscape:persp3d-origin="0.5 : 0.33333333 : 1"
   id="perspective3098" />
<inkscape:perspective
   sodipodi:type="inkscape:persp3d"
   inkscape:vp_x="0 : 0.5 : 1"
   inkscape:vp_y="0 : 1000 : 0"
   inkscape:vp_z="1 : 0.5 : 1"
   inkscape:persp3d-origin="0.5 : 0.33333333 : 1"
   id="perspective3128" />













</defs>
  <metadata
     id="metadata7">
    <rdf:RDF>
      <cc:Work
         rdf:about="">
        <dc:format>image/svg+xml</dc:format>
        <dc:type
           rdf:resource="http://purl.org/dc/dcmitype/StillImage" />
        <dc:title />
      </cc:Work>
    </rdf:RDF>
  </metadata>
  <g
     transform="translate(-379,-556.29948)"
     id="layer1"
     inkscape:groupmode="layer"
     inkscape:label="Layer 1">
    <rect
       y="562.75385"
       x="394.5"
       height="55.315327"
       width="100"
       id="rect2925"
       style="fill:#ffffff;stroke:#000000;stroke-width:0.56061715" />
    <rect
       style="fill:#ffffff;stroke:#000000;stroke-width:0.54772252"
       id="rect5226"
       width="30"
       height="29.999987"
       x="454"
       y="583.06915" />
    <rect
       y="567.75385"
       x="404.5"
       height="29.999987"
       width="30"
       id="rect2879"
       style="fill:#ffffff;stroke:#000000;stroke-width:0.54772252" />
    <path
       sodipodi:nodetypes="cc"
       id="path2940"
       d="m 379.5,573.34948 23,0"
       style="fill:none;stroke:#000000;stroke-width:1px;stroke-linecap:butt;stroke-linejoin:miter;stroke-opacity:1;marker-end:url(#Arrow1Mend)" />
    <path
       sodipodi:nodetypes="cc"
       id="path2942"
       d="m 379.5,593.34948 23,0"
       style="fill:none;stroke:#000000;stroke-width:1px;stroke-linecap:butt;stroke-linejoin:miter;stroke-opacity:1;marker-end:url(#Arrow1Mend)" />
    <path
       sodipodi:nodetypes="cc"
       id="path2944"
       d="m 379.5,608.34948 73,0"
       style="fill:none;stroke:#000000;stroke-width:1px;stroke-linecap:butt;stroke-linejoin:miter;stroke-opacity:1;marker-end:url(#Arrow1Mend)" />
    <path
       sodipodi:nodetypes="cc"
       id="path2946"
       d="m 484,598.06917 25,0"
       style="fill:none;stroke:#000000;stroke-width:1px;stroke-linecap:butt;stroke-linejoin:miter;stroke-opacity:1;marker-end:url(#Arrow1Mend)" />
    <path
       sodipodi:nodetypes="cccc"
       id="path4172"
       d="m 434.5,583.34948 9,0 0,5 9,0"
       style="fill:none;stroke:#000000;stroke-width:1px;stroke-linecap:butt;stroke-linejoin:miter;stroke-opacity:1;marker-end:url(#Arrow1Mend)" />
    <path
       style="font-style:normal;font-variant:normal;font-weight:normal;font-stretch:normal;letter-spacing:normal;word-spacing:normal;text-anchor:start;fill:#000000;stroke:#000000;stroke-width:0;stroke-linecap:butt;stroke-linejoin:miter;stroke-miterlimit:10.43299961;stroke-opacity:1;stroke-dasharray:none;stroke-dashoffset:0"
       d="m 385.2,567.21948 -0.02,-0.03 -0.02,-0.04 -0.01,-0.03 -0.02,-0.03 -0.02,-0.03 -0.02,-0.03 -0.03,-0.03 -0.02,-0.03 -0.02,-0.03 -0.02,-0.03 -0.03,-0.03 -0.02,-0.02 -0.03,-0.03 -0.02,-0.02 -0.03,-0.02 -0.03,-0.03 -0.03,-0.02 -0.03,-0.02 -0.03,-0.01 -0.03,-0.02 -0.03,-0.02 -0.03,-0.01 -0.04,-0.02 -0.03,-0.01 -0.04,-0.01 -0.03,-0.01 -0.04,-0.01 -0.04,0 -0.04,-0.01 -0.04,0 -0.04,-0.01 -0.04,0 0.01,0.22 c 0.65,0 0.79,0.82 0.79,0.88 0,0.06 -0.02,0.12 -0.03,0.17 l -0.5,1.95 c -0.05,0.18 -0.05,0.2 -0.2,0.37 -0.44,0.55 -0.84,0.71 -1.12,0.71 -0.5,0 -0.64,-0.55 -0.64,-0.94 0,-0.5 0.32,-1.72 0.55,-2.18 0.31,-0.59 0.75,-0.96 1.15,-0.96 l -0.01,-0.22 c -1.16,0 -2.4,1.47 -2.4,2.92 0,0.94 0.55,1.6 1.33,1.6 0.19,0 0.69,-0.04 1.29,-0.75 0.08,0.42 0.43,0.75 0.91,0.75 0.35,0 0.58,-0.23 0.74,-0.55 0.16,-0.36 0.29,-0.97 0.29,-0.99 0,-0.1 -0.09,-0.1 -0.12,-0.1 -0.09,0 -0.11,0.04 -0.14,0.18 -0.17,0.65 -0.34,1.24 -0.75,1.24 -0.27,0 -0.3,-0.26 -0.3,-0.46 0,-0.22 0.02,-0.3 0.13,-0.74 0.11,-0.42 0.13,-0.52 0.22,-0.89 l 0.36,-1.4 c 0.07,-0.28 0.07,-0.3 0.07,-0.34 0,-0.17 -0.12,-0.27 -0.29,-0.27 -0.24,0 -0.39,0.22 -0.42,0.44 z"
       id="path3172" />
    <path
       style="font-style:normal;font-variant:normal;font-weight:normal;font-stretch:normal;letter-spacing:normal;word-spacing:normal;text-anchor:start;fill:#000000;stroke:#000000;stroke-width:0;stroke-linecap:butt;stroke-linejoin:miter;stroke-miterlimit:10.43299961;stroke-opacity:1;stroke-dasharray:none;stroke-dashoffset:0"
       d="m 384.235,584.64948 0,0 0,0 0,0 0,0 0,0 0,-0.01 0,0 0,0 0,-0.01 0,0 0,-0.01 0,0 0,-0.01 0,0 -0.01,-0.01 0,0 0,-0.01 -0.01,0 0,-0.01 0,0 -0.01,0 0,-0.01 0,0 -0.01,0 0,0 0,-0.01 0,0 -0.01,0 0,0 0,0 -0.01,0 0,-0.01 -0.01,0 0,0 0,0 -0.01,0 0,0 -0.01,0 0,0 -0.01,-0.01 0,0 -0.01,0 0,0 -0.01,0 -0.01,0 c -0.22,0 -0.95,0.08 -1.21,0.1 -0.08,0.01 -0.19,0.02 -0.19,0.2 0,0.12 0.09,0.12 0.24,0.12 0.48,0 0.5,0.07 0.5,0.17 0,0.07 -0.09,0.41 -0.14,0.62 l -0.82,3.25 c -0.12,0.49 -0.16,0.65 -0.16,1 0,0.95 0.53,1.57 1.27,1.57 l 0,-0.22 c -0.34,0 -0.67,-0.27 -0.67,-1.01 0,-0.19 0,-0.38 0.16,-1 l 0.22,-0.92 c 0.06,-0.22 0.06,-0.24 0.15,-0.35 0.49,-0.65 0.93,-0.8 1.19,-0.8 0.36,0 0.63,0.3 0.63,0.94 0,0.59 -0.33,1.73 -0.51,2.11 -0.33,0.67 -0.79,1.03 -1.17,1.03 l 0,0.22 c 1.17,0 2.4,-1.49 2.4,-2.92 0,-0.91 -0.53,-1.6 -1.33,-1.6 -0.46,0 -0.86,0.29 -1.16,0.6 z"
       id="path3174" />
    <path
       style="font-style:normal;font-variant:normal;font-weight:normal;font-stretch:normal;letter-spacing:normal;word-spacing:normal;text-anchor:start;fill:#000000;stroke:#000000;stroke-width:0;stroke-linecap:butt;stroke-linejoin:miter;stroke-miterlimit:10.43299961;stroke-opacity:1;stroke-dasharray:none;stroke-dashoffset:0"
       d="m 385.755,602.20948 -0.03,0 -0.03,0 -0.02,0 -0.03,0 -0.03,0.01 -0.03,0 -0.01,0 -0.02,0 -0.01,0.01 -0.01,0 -0.02,0 -0.01,0.01 -0.01,0 -0.02,0.01 -0.01,0 -0.01,0.01 -0.02,0 -0.01,0.01 -0.01,0.01 -0.02,0.01 -0.01,0.01 -0.01,0.01 -0.02,0.01 -0.01,0.01 -0.01,0.01 -0.02,0.01 c -0.16,0.15 -0.17,0.32 -0.17,0.39 0,0.24 0.17,0.35 0.36,0.35 0.29,0 0.56,-0.24 0.56,-0.64 0,-0.49 -0.47,-0.86 -1.17,-0.86 -1.35,0 -2.67,1.43 -2.67,2.83 0,0.9 0.57,1.69 1.61,1.69 1.43,0 2.26,-1.06 2.26,-1.18 0,-0.06 -0.06,-0.13 -0.12,-0.13 -0.05,0 -0.07,0.02 -0.13,0.1 -0.78,0.99 -1.87,0.99 -1.99,0.99 -0.63,0 -0.9,-0.49 -0.9,-1.09 0,-0.41 0.2,-1.37 0.54,-1.99 0.31,-0.57 0.86,-1 1.41,-1 0.33,0 0.71,0.13 0.85,0.4 z"
       id="path3176" />
    <g
       id="g3240"
       transform="translate(19.5,22.579977)">
      <path
         id="path3178"
         d="m 415.97,534.6895 0,3.08 -0.69,0 0,0.47 c 0.28,-0.01 0.88,-0.03 1.26,-0.03 0.39,0 0.98,0.02 1.25,0.03 l 0,-0.47 -0.68,0 0,-2.08 c 0,-1.09 0.86,-1.58 1.48,-1.58 0.34,0 0.56,0.2 0.56,0.97 l 0,2.69 -0.69,0 0,0.47 c 0.28,-0.01 0.88,-0.03 1.26,-0.03 0.38,0 0.97,0.02 1.25,0.03 l 0,-0.47 -0.68,0 0,-2.08 c 0,-1.09 0.86,-1.58 1.48,-1.58 0.34,0 0.56,0.2 0.56,0.97 l 0,2.69 -0.69,0 0,0.47 c 0.28,-0.01 0.88,-0.03 1.25,-0.03 0.39,0 0.98,0.02 1.26,0.03 l 0,-0.47 -0.69,0 0,-2.58 c 0,-1.03 -0.5,-1.44 -1.53,-1.44 -0.91,0 -1.43,0.5 -1.69,0.96 -0.19,-0.93 -1.11,-0.96 -1.49,-0.96 -0.87,0 -1.43,0.45 -1.75,1.08 l 0,-1.08 -1.72,0.08 0,0.47 c 0.62,0 0.69,0 0.69,0.39 z"
         style="font-style:normal;font-variant:normal;font-weight:normal;font-stretch:normal;letter-spacing:normal;word-spacing:normal;text-anchor:start;fill:#000000;stroke:#000000;stroke-width:0;stroke-linecap:butt;stroke-linejoin:miter;stroke-miterlimit:10.43299961;stroke-opacity:1;stroke-dasharray:none;stroke-dashoffset:0" />
      <path
         id="path3180"
         d="m 428.11,537.4695 0,0.06 0,0.06 0,0.03 0.01,0.04 0,0.03 0.01,0.03 0,0.03 0.01,0.03 0.01,0.04 0.01,0.03 0.02,0.03 0.02,0.03 0.02,0.03 0.02,0.03 0.02,0.03 0.03,0.02 0.04,0.03 0.01,0.01 0.02,0.02 0.02,0.01 0.02,0.01 0.02,0.01 0.03,0.01 0.02,0.01 0.02,0.01 0.03,0.01 0.03,0.01 0.02,0.01 0.03,0.01 0.03,0.01 0.03,0 0.04,0.01 0.03,0.01 0.04,0 0.03,0.01 0.04,0 0.04,0.01 0.04,0 0.04,0 0.05,0 0.04,0.01 0.05,0 0.04,0 0.48,0 c 0.2,0 0.32,0 0.32,-0.24 0,-0.23 -0.13,-0.23 -0.26,-0.23 -0.61,-0.01 -0.61,-0.14 -0.61,-0.37 l 0,-2.14 c 0,-0.89 -0.7,-1.54 -2.19,-1.54 -0.56,0 -1.78,0.04 -1.78,0.92 0,0.44 0.35,0.63 0.62,0.63 0.31,0 0.63,-0.21 0.63,-0.63 0,-0.3 -0.19,-0.47 -0.22,-0.49 0.28,-0.06 0.59,-0.07 0.71,-0.07 0.75,0 1.1,0.42 1.1,1.18 l 0,0.34 0,0.31 0,0.94 c 0,0.96 -0.92,1.09 -1.17,1.09 -0.51,0 -0.9,-0.35 -0.9,-0.79 0,-1.07 1.57,-1.21 2.07,-1.24 l 0,0 0,-0.31 c -0.71,0.03 -3.24,0.12 -3.24,1.56 0,0.96 1.24,1.14 1.92,1.14 0.8,0 1.27,-0.41 1.49,-0.83 z"
         style="font-style:normal;font-variant:normal;font-weight:normal;font-stretch:normal;letter-spacing:normal;word-spacing:normal;text-anchor:start;fill:#000000;stroke:#000000;stroke-width:0;stroke-linecap:butt;stroke-linejoin:miter;stroke-miterlimit:10.43299961;stroke-opacity:1;stroke-dasharray:none;stroke-dashoffset:0" />
      <path
         id="path3182"
         d="m 433.54,534.1795 -0.01,0.02 -0.02,0.01 -0.01,0.02 -0.02,0.01 -0.01,0.02 -0.01,0.02 -0.01,0.01 -0.02,0.02 -0.01,0.02 0,0.01 -0.01,0.02 -0.01,0.01 -0.01,0.02 0,0.02 -0.01,0.01 -0.01,0.02 0,0.01 0,0.02 -0.01,0.01 0,0.02 -0.01,0.01 0,0.02 0,0.01 0,0.01 0,0.02 0,0.01 -0.01,0.01 0,0.01 0,0.01 0,0.01 0,0.01 0,0.01 c 0,0.44 0.35,0.63 0.62,0.63 0.31,0 0.63,-0.21 0.63,-0.63 0,-0.86 -1.16,-0.92 -1.74,-0.92 -1.78,0 -2.52,1.15 -2.52,2.31 0,1.32 0.94,2.27 2.47,2.27 1.62,0 1.92,-1.16 1.92,-1.23 0,-0.14 -0.14,-0.14 -0.24,-0.14 -0.18,0 -0.19,0.02 -0.24,0.15 -0.26,0.63 -0.74,0.82 -1.25,0.82 -1.38,0 -1.38,-1.47 -1.38,-1.92 0,-0.56 0,-1.86 1.28,-1.86 0.35,0 0.52,0.03 0.65,0.06 z"
         style="font-style:normal;font-variant:normal;font-weight:normal;font-stretch:normal;letter-spacing:normal;word-spacing:normal;text-anchor:start;fill:#000000;stroke:#000000;stroke-width:0;stroke-linecap:butt;stroke-linejoin:miter;stroke-miterlimit:10.43299961;stroke-opacity:1;stroke-dasharray:none;stroke-dashoffset:0" />
    </g>
    <g
       id="g3245"
       transform="translate(21.52,63.259646)">
      <path
         id="path3184"
         d="m 442.09,537.4695 0,0.06 0,0.06 0,0.03 0.01,0.04 0,0.03 0.01,0.03 0,0.03 0.01,0.03 0.01,0.04 0.01,0.03 0.02,0.03 0.02,0.03 0.02,0.03 0.02,0.03 0.02,0.03 0.03,0.02 0.04,0.03 0.01,0.01 0.02,0.02 0.02,0.01 0.02,0.01 0.02,0.01 0.03,0.01 0.02,0.01 0.02,0.01 0.03,0.01 0.03,0.01 0.02,0.01 0.03,0.01 0.03,0.01 0.03,0 0.04,0.01 0.03,0.01 0.04,0 0.03,0.01 0.04,0 0.04,0.01 0.04,0 0.04,0 0.05,0 0.04,0.01 0.05,0 0.05,0 0.47,0 c 0.2,0 0.32,0 0.32,-0.24 0,-0.23 -0.13,-0.23 -0.26,-0.23 -0.61,-0.01 -0.61,-0.14 -0.61,-0.37 l 0,-2.14 c 0,-0.89 -0.7,-1.54 -2.19,-1.54 -0.57,0 -1.78,0.04 -1.78,0.92 0,0.44 0.35,0.63 0.62,0.63 0.31,0 0.62,-0.21 0.62,-0.63 0,-0.3 -0.18,-0.47 -0.21,-0.49 0.28,-0.06 0.59,-0.07 0.71,-0.07 0.75,0 1.1,0.42 1.1,1.18 l 0,0.34 0,0.31 0,0.94 c 0,0.96 -0.92,1.09 -1.17,1.09 -0.51,0 -0.9,-0.35 -0.9,-0.79 0,-1.07 1.57,-1.21 2.07,-1.24 l 0,0 0,-0.31 c -0.71,0.03 -3.24,0.12 -3.24,1.56 0,0.96 1.24,1.14 1.92,1.14 0.8,0 1.27,-0.41 1.49,-0.83 z"
         style="font-style:normal;font-variant:normal;font-weight:normal;font-stretch:normal;letter-spacing:normal;word-spacing:normal;text-anchor:start;fill:#000000;stroke:#000000;stroke-width:0;stroke-linecap:butt;stroke-linejoin:miter;stroke-miterlimit:10.43299961;stroke-opacity:1;stroke-dasharray:none;stroke-dashoffset:0" />
      <path
         id="path3186"
         d="m 448.1,537.8095 0,0.49 1.82,-0.06 0,-0.47 c -0.62,0 -0.69,0 -0.69,-0.39 l 0,-6.06 -1.76,0.08 0,0.47 c 0.62,0 0.69,0 0.69,0.39 l 0,1.94 c -0.5,-0.39 -1.02,-0.45 -1.35,-0.45 -1.45,0 -2.5,0.88 -2.5,2.29 0,1.31 0.92,2.26 2.39,2.26 l 0.1,-0.36 c -1.21,0 -1.21,-1.21 -1.21,-1.9 0,-0.48 0,-1.02 0.26,-1.41 0.29,-0.42 0.76,-0.52 1.06,-0.52 0.57,0 0.97,0.32 1.19,0.61 l 0,0 0,2.49 c -0.13,0.18 -0.54,0.73 -1.3,0.73 l -0.1,0.36 c 0.61,0 1.09,-0.24 1.4,-0.49 z"
         style="font-style:normal;font-variant:normal;font-weight:normal;font-stretch:normal;letter-spacing:normal;word-spacing:normal;text-anchor:start;fill:#000000;stroke:#000000;stroke-width:0;stroke-linecap:butt;stroke-linejoin:miter;stroke-miterlimit:10.43299961;stroke-opacity:1;stroke-dasharray:none;stroke-dashoffset:0" />
      <path
         id="path3188"
         d="m 454.46,537.8095 0,0.49 1.82,-0.06 0,-0.47 c -0.61,0 -0.68,0 -0.68,-0.39 l 0,-6.06 -1.77,0.08 0,0.47 c 0.62,0 0.69,0 0.69,0.39 l 0,1.94 c -0.5,-0.39 -1.02,-0.45 -1.35,-0.45 -1.45,0 -2.5,0.88 -2.5,2.29 0,1.31 0.92,2.26 2.4,2.26 l 0.09,-0.36 c -1.21,0 -1.21,-1.21 -1.21,-1.9 0,-0.48 0,-1.02 0.26,-1.41 0.29,-0.42 0.76,-0.52 1.06,-0.52 0.57,0 0.97,0.32 1.19,0.61 l 0,0 0,2.49 c -0.13,0.18 -0.54,0.73 -1.3,0.73 l -0.09,0.36 c 0.6,0 1.08,-0.24 1.39,-0.49 z"
         style="font-style:normal;font-variant:normal;font-weight:normal;font-stretch:normal;letter-spacing:normal;word-spacing:normal;text-anchor:start;fill:#000000;stroke:#000000;stroke-width:0;stroke-linecap:butt;stroke-linejoin:miter;stroke-miterlimit:10.43299961;stroke-opacity:1;stroke-dasharray:none;stroke-dashoffset:0" />
    </g>
    <g
       id="g3250"
       transform="translate(-49.97,47.944339)">
      <path
         id="path3190"
         d="m 461.13,534.6895 0,3.08 -0.69,0 0,0.47 c 0.28,-0.01 0.88,-0.03 1.26,-0.03 0.38,0 0.97,0.02 1.25,0.03 l 0,-0.47 -0.69,0 0,-2.08 c 0,-1.09 0.87,-1.58 1.49,-1.58 0.34,0 0.56,0.2 0.56,0.97 l 0,2.69 -0.69,0 0,0.47 c 0.28,-0.01 0.88,-0.03 1.25,-0.03 0.39,0 0.98,0.02 1.26,0.03 l 0,-0.47 -0.69,0 0,-2.08 c 0,-1.09 0.87,-1.58 1.49,-1.58 0.33,0 0.55,0.2 0.55,0.97 l 0,2.69 -0.68,0 0,0.47 c 0.28,-0.01 0.87,-0.03 1.25,-0.03 0.39,0 0.98,0.02 1.26,0.03 l 0,-0.47 -0.69,0 0,-2.58 c 0,-1.03 -0.51,-1.44 -1.53,-1.44 -0.91,0 -1.43,0.5 -1.69,0.96 -0.2,-0.93 -1.11,-0.96 -1.49,-0.96 -0.87,0 -1.44,0.45 -1.76,1.08 l 0,-1.08 -1.71,0.08 0,0.47 c 0.62,0 0.69,0 0.69,0.39 z"
         style="font-style:normal;font-variant:normal;font-weight:normal;font-stretch:normal;letter-spacing:normal;word-spacing:normal;text-anchor:start;fill:#000000;stroke:#000000;stroke-width:0;stroke-linecap:butt;stroke-linejoin:miter;stroke-miterlimit:10.43299961;stroke-opacity:1;stroke-dasharray:none;stroke-dashoffset:0" />
      <path
         id="path3192"
         d="m 473.58,537.5195 0,0.78 1.77,-0.06 0,-0.47 c -0.62,0 -0.69,0 -0.69,-0.39 l 0,-3.63 -1.83,0.08 0,0.47 c 0.62,0 0.69,0 0.69,0.39 l 0,1.9 c 0,0.82 -0.51,1.35 -1.23,1.35 -0.77,0 -0.8,-0.25 -0.8,-0.79 l 0,-3.4 -1.82,0.08 0,0.47 c 0.61,0 0.68,0 0.68,0.39 l 0,2.32 c 0,1.07 0.81,1.29 1.8,1.29 0.26,0 0.97,0 1.43,-0.78 z"
         style="font-style:normal;font-variant:normal;font-weight:normal;font-stretch:normal;letter-spacing:normal;word-spacing:normal;text-anchor:start;fill:#000000;stroke:#000000;stroke-width:0;stroke-linecap:butt;stroke-linejoin:miter;stroke-miterlimit:10.43299961;stroke-opacity:1;stroke-dasharray:none;stroke-dashoffset:0" />
      <path
         id="path3194"
         d="m 477.82,531.3195 -1.77,0.08 0,0.47 c 0.62,0 0.69,0 0.69,0.39 l 0,5.51 -0.69,0 0,0.47 c 0.32,-0.01 0.8,-0.03 1.23,-0.03 0.43,0 0.89,0.02 1.22,0.03 l 0,-0.47 -0.68,0 z"
         style="font-style:normal;font-variant:normal;font-weight:normal;font-stretch:normal;letter-spacing:normal;word-spacing:normal;text-anchor:start;fill:#000000;stroke:#000000;stroke-width:0;stroke-linecap:butt;stroke-linejoin:miter;stroke-miterlimit:10.43299961;stroke-opacity:1;stroke-dasharray:none;stroke-dashoffset:0" />
    </g>
  </g>
</svg>
